%FSLAX45Y45*%
G04 Gerber Fmt 4.5, Leading zero omitted, Abs format (unit mm)*
G04 Created by KiCad (PCBNEW 5.1.5+dfsg1-2build2) date 2020-11-19 08:55:22*
%MOMM*%
%LPD*%
G04 APERTURE LIST*
%TA.AperFunction,Profile*%
%ADD10C,0.150000*%
%TD*%
%ADD11C,0.200000*%
%ADD12C,0.300000*%
G04 APERTURE END LIST*
D10*
X17970500Y-12954000D02*
G75*
G03X18034000Y-12890500I0J63500D01*
G01*
X11430000Y-12890500D02*
G75*
G03X11493500Y-12954000I63500J0D01*
G01*
X11493500Y-7620000D02*
G75*
G03X11430000Y-7683500I0J-63500D01*
G01*
X17907000Y-7620000D02*
X11493500Y-7620000D01*
X18034000Y-7747000D02*
X17907000Y-7620000D01*
X18034000Y-8890000D02*
X18034000Y-7747000D01*
X18288000Y-9144000D02*
X18034000Y-8890000D01*
X18288000Y-12446000D02*
X18288000Y-9144000D01*
X18034000Y-12700000D02*
X18288000Y-12446000D01*
X18034000Y-12890500D02*
X18034000Y-12700000D01*
X11493500Y-12954000D02*
X17970500Y-12954000D01*
X11430000Y-7683500D02*
X11430000Y-12890500D01*
D11*
X12667000Y-12540000D02*
X12987000Y-12860000D01*
X12987000Y-12540000D02*
X12667000Y-12860000D01*
X17874000Y-9238000D02*
X18194000Y-9558000D01*
X18194000Y-9238000D02*
X17874000Y-9558000D01*
X17874000Y-12032000D02*
X18194000Y-12352000D01*
X18194000Y-12032000D02*
X17874000Y-12352000D01*
X12794000Y-7714000D02*
X13114000Y-8034000D01*
X13114000Y-7714000D02*
X12794000Y-8034000D01*
D12*
X11708928Y-13427214D02*
X11708928Y-13127214D01*
X11780357Y-13127214D01*
X11823214Y-13141500D01*
X11851786Y-13170071D01*
X11866071Y-13198643D01*
X11880357Y-13255786D01*
X11880357Y-13298643D01*
X11866071Y-13355786D01*
X11851786Y-13384357D01*
X11823214Y-13412929D01*
X11780357Y-13427214D01*
X11708928Y-13427214D01*
X12008928Y-13427214D02*
X12008928Y-13227214D01*
X12008928Y-13284357D02*
X12023214Y-13255786D01*
X12037500Y-13241500D01*
X12066071Y-13227214D01*
X12094643Y-13227214D01*
X12194643Y-13427214D02*
X12194643Y-13227214D01*
X12194643Y-13127214D02*
X12180357Y-13141500D01*
X12194643Y-13155786D01*
X12208928Y-13141500D01*
X12194643Y-13127214D01*
X12194643Y-13155786D01*
X12380357Y-13427214D02*
X12351786Y-13412929D01*
X12337500Y-13384357D01*
X12337500Y-13127214D01*
X12537500Y-13427214D02*
X12508928Y-13412929D01*
X12494643Y-13384357D01*
X12494643Y-13127214D01*
X12880357Y-13427214D02*
X12880357Y-13127214D01*
X12980357Y-13341500D01*
X13080357Y-13127214D01*
X13080357Y-13427214D01*
X13351786Y-13427214D02*
X13351786Y-13270071D01*
X13337500Y-13241500D01*
X13308928Y-13227214D01*
X13251786Y-13227214D01*
X13223214Y-13241500D01*
X13351786Y-13412929D02*
X13323214Y-13427214D01*
X13251786Y-13427214D01*
X13223214Y-13412929D01*
X13208928Y-13384357D01*
X13208928Y-13355786D01*
X13223214Y-13327214D01*
X13251786Y-13312929D01*
X13323214Y-13312929D01*
X13351786Y-13298643D01*
X13494643Y-13227214D02*
X13494643Y-13527214D01*
X13494643Y-13241500D02*
X13523214Y-13227214D01*
X13580357Y-13227214D01*
X13608928Y-13241500D01*
X13623214Y-13255786D01*
X13637500Y-13284357D01*
X13637500Y-13370071D01*
X13623214Y-13398643D01*
X13608928Y-13412929D01*
X13580357Y-13427214D01*
X13523214Y-13427214D01*
X13494643Y-13412929D01*
X13766071Y-13398643D02*
X13780357Y-13412929D01*
X13766071Y-13427214D01*
X13751786Y-13412929D01*
X13766071Y-13398643D01*
X13766071Y-13427214D01*
X13766071Y-13241500D02*
X13780357Y-13255786D01*
X13766071Y-13270071D01*
X13751786Y-13255786D01*
X13766071Y-13241500D01*
X13766071Y-13270071D01*
X11102500Y-13761500D02*
X11422500Y-14081500D01*
X11422500Y-13761500D02*
X11102500Y-14081500D01*
X11680357Y-13757214D02*
X11866071Y-13757214D01*
X11766071Y-13871500D01*
X11808928Y-13871500D01*
X11837500Y-13885786D01*
X11851786Y-13900071D01*
X11866071Y-13928643D01*
X11866071Y-14000071D01*
X11851786Y-14028643D01*
X11837500Y-14042929D01*
X11808928Y-14057214D01*
X11723214Y-14057214D01*
X11694643Y-14042929D01*
X11680357Y-14028643D01*
X11994643Y-14028643D02*
X12008928Y-14042929D01*
X11994643Y-14057214D01*
X11980357Y-14042929D01*
X11994643Y-14028643D01*
X11994643Y-14057214D01*
X12123214Y-13785786D02*
X12137500Y-13771500D01*
X12166071Y-13757214D01*
X12237500Y-13757214D01*
X12266071Y-13771500D01*
X12280357Y-13785786D01*
X12294643Y-13814357D01*
X12294643Y-13842929D01*
X12280357Y-13885786D01*
X12108928Y-14057214D01*
X12294643Y-14057214D01*
X12480357Y-13757214D02*
X12508928Y-13757214D01*
X12537500Y-13771500D01*
X12551786Y-13785786D01*
X12566071Y-13814357D01*
X12580357Y-13871500D01*
X12580357Y-13942929D01*
X12566071Y-14000071D01*
X12551786Y-14028643D01*
X12537500Y-14042929D01*
X12508928Y-14057214D01*
X12480357Y-14057214D01*
X12451786Y-14042929D01*
X12437500Y-14028643D01*
X12423214Y-14000071D01*
X12408928Y-13942929D01*
X12408928Y-13871500D01*
X12423214Y-13814357D01*
X12437500Y-13785786D01*
X12451786Y-13771500D01*
X12480357Y-13757214D01*
X12708928Y-14057214D02*
X12708928Y-13857214D01*
X12708928Y-13885786D02*
X12723214Y-13871500D01*
X12751786Y-13857214D01*
X12794643Y-13857214D01*
X12823214Y-13871500D01*
X12837500Y-13900071D01*
X12837500Y-14057214D01*
X12837500Y-13900071D02*
X12851786Y-13871500D01*
X12880357Y-13857214D01*
X12923214Y-13857214D01*
X12951786Y-13871500D01*
X12966071Y-13900071D01*
X12966071Y-14057214D01*
X13108928Y-14057214D02*
X13108928Y-13857214D01*
X13108928Y-13885786D02*
X13123214Y-13871500D01*
X13151786Y-13857214D01*
X13194643Y-13857214D01*
X13223214Y-13871500D01*
X13237500Y-13900071D01*
X13237500Y-14057214D01*
X13237500Y-13900071D02*
X13251786Y-13871500D01*
X13280357Y-13857214D01*
X13323214Y-13857214D01*
X13351786Y-13871500D01*
X13366071Y-13900071D01*
X13366071Y-14057214D01*
X13951786Y-13742929D02*
X13694643Y-14128643D01*
X14337500Y-13757214D02*
X14366071Y-13757214D01*
X14394643Y-13771500D01*
X14408928Y-13785786D01*
X14423214Y-13814357D01*
X14437500Y-13871500D01*
X14437500Y-13942929D01*
X14423214Y-14000071D01*
X14408928Y-14028643D01*
X14394643Y-14042929D01*
X14366071Y-14057214D01*
X14337500Y-14057214D01*
X14308928Y-14042929D01*
X14294643Y-14028643D01*
X14280357Y-14000071D01*
X14266071Y-13942929D01*
X14266071Y-13871500D01*
X14280357Y-13814357D01*
X14294643Y-13785786D01*
X14308928Y-13771500D01*
X14337500Y-13757214D01*
X14566071Y-14028643D02*
X14580357Y-14042929D01*
X14566071Y-14057214D01*
X14551786Y-14042929D01*
X14566071Y-14028643D01*
X14566071Y-14057214D01*
X14866071Y-14057214D02*
X14694643Y-14057214D01*
X14780357Y-14057214D02*
X14780357Y-13757214D01*
X14751786Y-13800071D01*
X14723214Y-13828643D01*
X14694643Y-13842929D01*
X14980357Y-13785786D02*
X14994643Y-13771500D01*
X15023214Y-13757214D01*
X15094643Y-13757214D01*
X15123214Y-13771500D01*
X15137500Y-13785786D01*
X15151786Y-13814357D01*
X15151786Y-13842929D01*
X15137500Y-13885786D01*
X14966071Y-14057214D01*
X15151786Y-14057214D01*
X15408928Y-13757214D02*
X15351786Y-13757214D01*
X15323214Y-13771500D01*
X15308928Y-13785786D01*
X15280357Y-13828643D01*
X15266071Y-13885786D01*
X15266071Y-14000071D01*
X15280357Y-14028643D01*
X15294643Y-14042929D01*
X15323214Y-14057214D01*
X15380357Y-14057214D01*
X15408928Y-14042929D01*
X15423214Y-14028643D01*
X15437500Y-14000071D01*
X15437500Y-13928643D01*
X15423214Y-13900071D01*
X15408928Y-13885786D01*
X15380357Y-13871500D01*
X15323214Y-13871500D01*
X15294643Y-13885786D01*
X15280357Y-13900071D01*
X15266071Y-13928643D01*
X15551786Y-13757214D02*
X15551786Y-13814357D01*
X15666071Y-13757214D02*
X15666071Y-13814357D01*
X16108928Y-14171500D02*
X16094643Y-14157214D01*
X16066071Y-14114357D01*
X16051786Y-14085786D01*
X16037500Y-14042929D01*
X16023214Y-13971500D01*
X16023214Y-13914357D01*
X16037500Y-13842929D01*
X16051786Y-13800071D01*
X16066071Y-13771500D01*
X16094643Y-13728643D01*
X16108928Y-13714357D01*
X16351786Y-13857214D02*
X16351786Y-14057214D01*
X16280357Y-13742929D02*
X16208928Y-13957214D01*
X16394643Y-13957214D01*
X16737500Y-14057214D02*
X16737500Y-13757214D01*
X16866071Y-14057214D02*
X16866071Y-13900071D01*
X16851786Y-13871500D01*
X16823214Y-13857214D01*
X16780357Y-13857214D01*
X16751786Y-13871500D01*
X16737500Y-13885786D01*
X17051786Y-14057214D02*
X17023214Y-14042929D01*
X17008928Y-14028643D01*
X16994643Y-14000071D01*
X16994643Y-13914357D01*
X17008928Y-13885786D01*
X17023214Y-13871500D01*
X17051786Y-13857214D01*
X17094643Y-13857214D01*
X17123214Y-13871500D01*
X17137500Y-13885786D01*
X17151786Y-13914357D01*
X17151786Y-14000071D01*
X17137500Y-14028643D01*
X17123214Y-14042929D01*
X17094643Y-14057214D01*
X17051786Y-14057214D01*
X17323214Y-14057214D02*
X17294643Y-14042929D01*
X17280357Y-14014357D01*
X17280357Y-13757214D01*
X17551786Y-14042929D02*
X17523214Y-14057214D01*
X17466071Y-14057214D01*
X17437500Y-14042929D01*
X17423214Y-14014357D01*
X17423214Y-13900071D01*
X17437500Y-13871500D01*
X17466071Y-13857214D01*
X17523214Y-13857214D01*
X17551786Y-13871500D01*
X17566071Y-13900071D01*
X17566071Y-13928643D01*
X17423214Y-13957214D01*
X17680357Y-14042929D02*
X17708928Y-14057214D01*
X17766071Y-14057214D01*
X17794643Y-14042929D01*
X17808928Y-14014357D01*
X17808928Y-14000071D01*
X17794643Y-13971500D01*
X17766071Y-13957214D01*
X17723214Y-13957214D01*
X17694643Y-13942929D01*
X17680357Y-13914357D01*
X17680357Y-13900071D01*
X17694643Y-13871500D01*
X17723214Y-13857214D01*
X17766071Y-13857214D01*
X17794643Y-13871500D01*
X17908928Y-14171500D02*
X17923214Y-14157214D01*
X17951786Y-14114357D01*
X17966071Y-14085786D01*
X17980357Y-14042929D01*
X17994643Y-13971500D01*
X17994643Y-13914357D01*
X17980357Y-13842929D01*
X17966071Y-13800071D01*
X17951786Y-13771500D01*
X17923214Y-13728643D01*
X17908928Y-13714357D01*
X18451786Y-14171500D02*
X18437500Y-14157214D01*
X18408928Y-14114357D01*
X18394643Y-14085786D01*
X18380357Y-14042929D01*
X18366071Y-13971500D01*
X18366071Y-13914357D01*
X18380357Y-13842929D01*
X18394643Y-13800071D01*
X18408928Y-13771500D01*
X18437500Y-13728643D01*
X18451786Y-13714357D01*
X18566071Y-13857214D02*
X18566071Y-14057214D01*
X18566071Y-13885786D02*
X18580357Y-13871500D01*
X18608928Y-13857214D01*
X18651786Y-13857214D01*
X18680357Y-13871500D01*
X18694643Y-13900071D01*
X18694643Y-14057214D01*
X18880357Y-14057214D02*
X18851786Y-14042929D01*
X18837500Y-14028643D01*
X18823214Y-14000071D01*
X18823214Y-13914357D01*
X18837500Y-13885786D01*
X18851786Y-13871500D01*
X18880357Y-13857214D01*
X18923214Y-13857214D01*
X18951786Y-13871500D01*
X18966071Y-13885786D01*
X18980357Y-13914357D01*
X18980357Y-14000071D01*
X18966071Y-14028643D01*
X18951786Y-14042929D01*
X18923214Y-14057214D01*
X18880357Y-14057214D01*
X19066071Y-13857214D02*
X19180357Y-13857214D01*
X19108928Y-13757214D02*
X19108928Y-14014357D01*
X19123214Y-14042929D01*
X19151786Y-14057214D01*
X19180357Y-14057214D01*
X19508928Y-13857214D02*
X19508928Y-14157214D01*
X19508928Y-13871500D02*
X19537500Y-13857214D01*
X19594643Y-13857214D01*
X19623214Y-13871500D01*
X19637500Y-13885786D01*
X19651786Y-13914357D01*
X19651786Y-14000071D01*
X19637500Y-14028643D01*
X19623214Y-14042929D01*
X19594643Y-14057214D01*
X19537500Y-14057214D01*
X19508928Y-14042929D01*
X19823214Y-14057214D02*
X19794643Y-14042929D01*
X19780357Y-14014357D01*
X19780357Y-13757214D01*
X20066071Y-14057214D02*
X20066071Y-13900071D01*
X20051786Y-13871500D01*
X20023214Y-13857214D01*
X19966071Y-13857214D01*
X19937500Y-13871500D01*
X20066071Y-14042929D02*
X20037500Y-14057214D01*
X19966071Y-14057214D01*
X19937500Y-14042929D01*
X19923214Y-14014357D01*
X19923214Y-13985786D01*
X19937500Y-13957214D01*
X19966071Y-13942929D01*
X20037500Y-13942929D01*
X20066071Y-13928643D01*
X20166071Y-13857214D02*
X20280357Y-13857214D01*
X20208928Y-13757214D02*
X20208928Y-14014357D01*
X20223214Y-14042929D01*
X20251786Y-14057214D01*
X20280357Y-14057214D01*
X20494643Y-14042929D02*
X20466071Y-14057214D01*
X20408928Y-14057214D01*
X20380357Y-14042929D01*
X20366071Y-14014357D01*
X20366071Y-13900071D01*
X20380357Y-13871500D01*
X20408928Y-13857214D01*
X20466071Y-13857214D01*
X20494643Y-13871500D01*
X20508928Y-13900071D01*
X20508928Y-13928643D01*
X20366071Y-13957214D01*
X20766071Y-14057214D02*
X20766071Y-13757214D01*
X20766071Y-14042929D02*
X20737500Y-14057214D01*
X20680357Y-14057214D01*
X20651786Y-14042929D01*
X20637500Y-14028643D01*
X20623214Y-14000071D01*
X20623214Y-13914357D01*
X20637500Y-13885786D01*
X20651786Y-13871500D01*
X20680357Y-13857214D01*
X20737500Y-13857214D01*
X20766071Y-13871500D01*
X20880357Y-14171500D02*
X20894643Y-14157214D01*
X20923214Y-14114357D01*
X20937500Y-14085786D01*
X20951786Y-14042929D01*
X20966071Y-13971500D01*
X20966071Y-13914357D01*
X20951786Y-13842929D01*
X20937500Y-13800071D01*
X20923214Y-13771500D01*
X20894643Y-13728643D01*
X20880357Y-13714357D01*
M02*
