G04 #@! TF.GenerationSoftware,KiCad,Pcbnew,5.1.5+dfsg1-2build2*
G04 #@! TF.CreationDate,2020-11-19T08:55:39-07:00*
G04 #@! TF.ProjectId,sduino_uno,73647569-6e6f-45f7-956e-6f2e6b696361,2017-11-15*
G04 #@! TF.SameCoordinates,Original*
G04 #@! TF.FileFunction,Legend,Top*
G04 #@! TF.FilePolarity,Positive*
%FSLAX46Y46*%
G04 Gerber Fmt 4.6, Leading zero omitted, Abs format (unit mm)*
G04 Created by KiCad (PCBNEW 5.1.5+dfsg1-2build2) date 2020-11-19 08:55:39*
%MOMM*%
%LPD*%
G04 APERTURE LIST*
%ADD10C,0.200000*%
%ADD11C,0.150000*%
%ADD12C,0.300000*%
%ADD13C,0.120000*%
%ADD14C,0.254000*%
G04 APERTURE END LIST*
D10*
X182245000Y-102870000D02*
X182245000Y-105410000D01*
X180744761Y-111064285D02*
X180792380Y-110921428D01*
X180792380Y-110683333D01*
X180744761Y-110588095D01*
X180697142Y-110540476D01*
X180601904Y-110492857D01*
X180506666Y-110492857D01*
X180411428Y-110540476D01*
X180363809Y-110588095D01*
X180316190Y-110683333D01*
X180268571Y-110873809D01*
X180220952Y-110969047D01*
X180173333Y-111016666D01*
X180078095Y-111064285D01*
X179982857Y-111064285D01*
X179887619Y-111016666D01*
X179840000Y-110969047D01*
X179792380Y-110873809D01*
X179792380Y-110635714D01*
X179840000Y-110492857D01*
X180744761Y-110111904D02*
X180792380Y-109969047D01*
X180792380Y-109730952D01*
X180744761Y-109635714D01*
X180697142Y-109588095D01*
X180601904Y-109540476D01*
X180506666Y-109540476D01*
X180411428Y-109588095D01*
X180363809Y-109635714D01*
X180316190Y-109730952D01*
X180268571Y-109921428D01*
X180220952Y-110016666D01*
X180173333Y-110064285D01*
X180078095Y-110111904D01*
X179982857Y-110111904D01*
X179887619Y-110064285D01*
X179840000Y-110016666D01*
X179792380Y-109921428D01*
X179792380Y-109683333D01*
X179840000Y-109540476D01*
X177871428Y-111873809D02*
X177823809Y-111826190D01*
X177776190Y-111730952D01*
X177871428Y-111540476D01*
X177823809Y-111445238D01*
X177776190Y-111397619D01*
X177347619Y-111064285D02*
X177300000Y-111016666D01*
X177252380Y-110921428D01*
X177252380Y-110683333D01*
X177300000Y-110588095D01*
X177347619Y-110540476D01*
X177442857Y-110492857D01*
X177538095Y-110492857D01*
X177680952Y-110540476D01*
X178252380Y-111111904D01*
X178252380Y-110492857D01*
X177252380Y-110159523D02*
X177252380Y-109540476D01*
X177633333Y-109873809D01*
X177633333Y-109730952D01*
X177680952Y-109635714D01*
X177728571Y-109588095D01*
X177823809Y-109540476D01*
X178061904Y-109540476D01*
X178157142Y-109588095D01*
X178204761Y-109635714D01*
X178252380Y-109730952D01*
X178252380Y-110016666D01*
X178204761Y-110111904D01*
X178157142Y-110159523D01*
D11*
X165233809Y-105733809D02*
X165348095Y-105771904D01*
X165538571Y-105771904D01*
X165614761Y-105733809D01*
X165652857Y-105695714D01*
X165690952Y-105619523D01*
X165690952Y-105543333D01*
X165652857Y-105467142D01*
X165614761Y-105429047D01*
X165538571Y-105390952D01*
X165386190Y-105352857D01*
X165310000Y-105314761D01*
X165271904Y-105276666D01*
X165233809Y-105200476D01*
X165233809Y-105124285D01*
X165271904Y-105048095D01*
X165310000Y-105010000D01*
X165386190Y-104971904D01*
X165576666Y-104971904D01*
X165690952Y-105010000D01*
X165919523Y-104971904D02*
X166376666Y-104971904D01*
X166148095Y-105771904D02*
X166148095Y-104971904D01*
X166643333Y-105771904D02*
X166643333Y-104971904D01*
X166910000Y-105543333D01*
X167176666Y-104971904D01*
X167176666Y-105771904D01*
X167671904Y-105314761D02*
X167595714Y-105276666D01*
X167557619Y-105238571D01*
X167519523Y-105162380D01*
X167519523Y-105124285D01*
X167557619Y-105048095D01*
X167595714Y-105010000D01*
X167671904Y-104971904D01*
X167824285Y-104971904D01*
X167900476Y-105010000D01*
X167938571Y-105048095D01*
X167976666Y-105124285D01*
X167976666Y-105162380D01*
X167938571Y-105238571D01*
X167900476Y-105276666D01*
X167824285Y-105314761D01*
X167671904Y-105314761D01*
X167595714Y-105352857D01*
X167557619Y-105390952D01*
X167519523Y-105467142D01*
X167519523Y-105619523D01*
X167557619Y-105695714D01*
X167595714Y-105733809D01*
X167671904Y-105771904D01*
X167824285Y-105771904D01*
X167900476Y-105733809D01*
X167938571Y-105695714D01*
X167976666Y-105619523D01*
X167976666Y-105467142D01*
X167938571Y-105390952D01*
X167900476Y-105352857D01*
X167824285Y-105314761D01*
X168281428Y-105733809D02*
X168395714Y-105771904D01*
X168586190Y-105771904D01*
X168662380Y-105733809D01*
X168700476Y-105695714D01*
X168738571Y-105619523D01*
X168738571Y-105543333D01*
X168700476Y-105467142D01*
X168662380Y-105429047D01*
X168586190Y-105390952D01*
X168433809Y-105352857D01*
X168357619Y-105314761D01*
X168319523Y-105276666D01*
X168281428Y-105200476D01*
X168281428Y-105124285D01*
X168319523Y-105048095D01*
X168357619Y-105010000D01*
X168433809Y-104971904D01*
X168624285Y-104971904D01*
X168738571Y-105010000D01*
X169500476Y-105771904D02*
X169043333Y-105771904D01*
X169271904Y-105771904D02*
X169271904Y-104971904D01*
X169195714Y-105086190D01*
X169119523Y-105162380D01*
X169043333Y-105200476D01*
X169995714Y-104971904D02*
X170071904Y-104971904D01*
X170148095Y-105010000D01*
X170186190Y-105048095D01*
X170224285Y-105124285D01*
X170262380Y-105276666D01*
X170262380Y-105467142D01*
X170224285Y-105619523D01*
X170186190Y-105695714D01*
X170148095Y-105733809D01*
X170071904Y-105771904D01*
X169995714Y-105771904D01*
X169919523Y-105733809D01*
X169881428Y-105695714D01*
X169843333Y-105619523D01*
X169805238Y-105467142D01*
X169805238Y-105276666D01*
X169843333Y-105124285D01*
X169881428Y-105048095D01*
X169919523Y-105010000D01*
X169995714Y-104971904D01*
X170986190Y-104971904D02*
X170605238Y-104971904D01*
X170567142Y-105352857D01*
X170605238Y-105314761D01*
X170681428Y-105276666D01*
X170871904Y-105276666D01*
X170948095Y-105314761D01*
X170986190Y-105352857D01*
X171024285Y-105429047D01*
X171024285Y-105619523D01*
X170986190Y-105695714D01*
X170948095Y-105733809D01*
X170871904Y-105771904D01*
X170681428Y-105771904D01*
X170605238Y-105733809D01*
X170567142Y-105695714D01*
X171367142Y-105771904D02*
X171367142Y-104971904D01*
X171824285Y-105771904D02*
X171481428Y-105314761D01*
X171824285Y-104971904D02*
X171367142Y-105429047D01*
X172510000Y-104971904D02*
X172357619Y-104971904D01*
X172281428Y-105010000D01*
X172243333Y-105048095D01*
X172167142Y-105162380D01*
X172129047Y-105314761D01*
X172129047Y-105619523D01*
X172167142Y-105695714D01*
X172205238Y-105733809D01*
X172281428Y-105771904D01*
X172433809Y-105771904D01*
X172510000Y-105733809D01*
X172548095Y-105695714D01*
X172586190Y-105619523D01*
X172586190Y-105429047D01*
X172548095Y-105352857D01*
X172510000Y-105314761D01*
X172433809Y-105276666D01*
X172281428Y-105276666D01*
X172205238Y-105314761D01*
X172167142Y-105352857D01*
X172129047Y-105429047D01*
X128327476Y-105225857D02*
X128060809Y-105225857D01*
X128060809Y-105644904D02*
X128060809Y-104844904D01*
X128441761Y-104844904D01*
X129127476Y-105644904D02*
X128746523Y-105644904D01*
X128746523Y-104844904D01*
X129546523Y-104844904D02*
X129698904Y-104844904D01*
X129775095Y-104883000D01*
X129851285Y-104959190D01*
X129889380Y-105111571D01*
X129889380Y-105378238D01*
X129851285Y-105530619D01*
X129775095Y-105606809D01*
X129698904Y-105644904D01*
X129546523Y-105644904D01*
X129470333Y-105606809D01*
X129394142Y-105530619D01*
X129356047Y-105378238D01*
X129356047Y-105111571D01*
X129394142Y-104959190D01*
X129470333Y-104883000D01*
X129546523Y-104844904D01*
X130156047Y-104844904D02*
X130346523Y-105644904D01*
X130498904Y-105073476D01*
X130651285Y-105644904D01*
X130841761Y-104844904D01*
X131146523Y-105340142D02*
X131756047Y-105340142D01*
X132594142Y-105568714D02*
X132556047Y-105606809D01*
X132441761Y-105644904D01*
X132365571Y-105644904D01*
X132251285Y-105606809D01*
X132175095Y-105530619D01*
X132137000Y-105454428D01*
X132098904Y-105302047D01*
X132098904Y-105187761D01*
X132137000Y-105035380D01*
X132175095Y-104959190D01*
X132251285Y-104883000D01*
X132365571Y-104844904D01*
X132441761Y-104844904D01*
X132556047Y-104883000D01*
X132594142Y-104921095D01*
X132822714Y-104844904D02*
X133279857Y-104844904D01*
X133051285Y-105644904D02*
X133051285Y-104844904D01*
X133927476Y-105644904D02*
X133546523Y-105644904D01*
X133546523Y-104844904D01*
X139255714Y-105644904D02*
X138989047Y-105263952D01*
X138798571Y-105644904D02*
X138798571Y-104844904D01*
X139103333Y-104844904D01*
X139179523Y-104883000D01*
X139217619Y-104921095D01*
X139255714Y-104997285D01*
X139255714Y-105111571D01*
X139217619Y-105187761D01*
X139179523Y-105225857D01*
X139103333Y-105263952D01*
X138798571Y-105263952D01*
X139560476Y-105606809D02*
X139674761Y-105644904D01*
X139865238Y-105644904D01*
X139941428Y-105606809D01*
X139979523Y-105568714D01*
X140017619Y-105492523D01*
X140017619Y-105416333D01*
X139979523Y-105340142D01*
X139941428Y-105302047D01*
X139865238Y-105263952D01*
X139712857Y-105225857D01*
X139636666Y-105187761D01*
X139598571Y-105149666D01*
X139560476Y-105073476D01*
X139560476Y-104997285D01*
X139598571Y-104921095D01*
X139636666Y-104883000D01*
X139712857Y-104844904D01*
X139903333Y-104844904D01*
X140017619Y-104883000D01*
X140246190Y-104844904D02*
X140703333Y-104844904D01*
X140474761Y-105644904D02*
X140474761Y-104844904D01*
X140970000Y-105340142D02*
X141579523Y-105340142D01*
X141960476Y-105225857D02*
X142227142Y-105225857D01*
X142341428Y-105644904D02*
X141960476Y-105644904D01*
X141960476Y-104844904D01*
X142341428Y-104844904D01*
X142684285Y-105644904D02*
X142684285Y-104844904D01*
X143141428Y-105644904D01*
X143141428Y-104844904D01*
X176498571Y-97097809D02*
X176612857Y-97135904D01*
X176803333Y-97135904D01*
X176879523Y-97097809D01*
X176917619Y-97059714D01*
X176955714Y-96983523D01*
X176955714Y-96907333D01*
X176917619Y-96831142D01*
X176879523Y-96793047D01*
X176803333Y-96754952D01*
X176650952Y-96716857D01*
X176574761Y-96678761D01*
X176536666Y-96640666D01*
X176498571Y-96564476D01*
X176498571Y-96488285D01*
X176536666Y-96412095D01*
X176574761Y-96374000D01*
X176650952Y-96335904D01*
X176841428Y-96335904D01*
X176955714Y-96374000D01*
X177298571Y-97135904D02*
X177298571Y-96335904D01*
X177603333Y-96335904D01*
X177679523Y-96374000D01*
X177717619Y-96412095D01*
X177755714Y-96488285D01*
X177755714Y-96602571D01*
X177717619Y-96678761D01*
X177679523Y-96716857D01*
X177603333Y-96754952D01*
X177298571Y-96754952D01*
X178098571Y-97135904D02*
X178098571Y-96335904D01*
X178479523Y-96831142D02*
X179089047Y-96831142D01*
X178784285Y-97135904D02*
X178784285Y-96526380D01*
X179470000Y-97135904D02*
X179470000Y-96335904D01*
X179774761Y-96335904D01*
X179850952Y-96374000D01*
X179889047Y-96412095D01*
X179927142Y-96488285D01*
X179927142Y-96602571D01*
X179889047Y-96678761D01*
X179850952Y-96716857D01*
X179774761Y-96754952D01*
X179470000Y-96754952D01*
X180193809Y-96335904D02*
X180384285Y-97135904D01*
X180536666Y-96564476D01*
X180689047Y-97135904D01*
X180879523Y-96335904D01*
X181641428Y-97135904D02*
X181374761Y-96754952D01*
X181184285Y-97135904D02*
X181184285Y-96335904D01*
X181489047Y-96335904D01*
X181565238Y-96374000D01*
X181603333Y-96412095D01*
X181641428Y-96488285D01*
X181641428Y-96602571D01*
X181603333Y-96678761D01*
X181565238Y-96716857D01*
X181489047Y-96754952D01*
X181184285Y-96754952D01*
X176421071Y-92162380D02*
X176611547Y-92162380D01*
X176706785Y-92210000D01*
X176802023Y-92305238D01*
X176849642Y-92495714D01*
X176849642Y-92829047D01*
X176802023Y-93019523D01*
X176706785Y-93114761D01*
X176611547Y-93162380D01*
X176421071Y-93162380D01*
X176325833Y-93114761D01*
X176230595Y-93019523D01*
X176182976Y-92829047D01*
X176182976Y-92495714D01*
X176230595Y-92305238D01*
X176325833Y-92210000D01*
X176421071Y-92162380D01*
X177278214Y-93162380D02*
X177278214Y-92162380D01*
X177849642Y-93162380D01*
X177849642Y-92162380D01*
X145687023Y-96972380D02*
X145353690Y-96496190D01*
X145115595Y-96972380D02*
X145115595Y-95972380D01*
X145496547Y-95972380D01*
X145591785Y-96020000D01*
X145639404Y-96067619D01*
X145687023Y-96162857D01*
X145687023Y-96305714D01*
X145639404Y-96400952D01*
X145591785Y-96448571D01*
X145496547Y-96496190D01*
X145115595Y-96496190D01*
X146020357Y-95972380D02*
X146687023Y-96972380D01*
X146687023Y-95972380D02*
X146020357Y-96972380D01*
X144972738Y-93432380D02*
X145544166Y-93432380D01*
X145258452Y-94432380D02*
X145258452Y-93432380D01*
X145782261Y-93432380D02*
X146448928Y-94432380D01*
X146448928Y-93432380D02*
X145782261Y-94432380D01*
X145591785Y-88082380D02*
X145115595Y-88082380D01*
X145115595Y-87082380D01*
D10*
X139700000Y-76835000D02*
X142240000Y-76835000D01*
X139700000Y-80645000D02*
X142240000Y-80645000D01*
X153670000Y-125095000D02*
X158750000Y-125095000D01*
X153670000Y-128905000D02*
X158750000Y-128905000D01*
X148590000Y-115570000D02*
X146050000Y-115570000D01*
X148590000Y-110490000D02*
X148590000Y-115570000D01*
X146050000Y-110490000D02*
X148590000Y-110490000D01*
X140970000Y-113030000D02*
X143510000Y-113030000D01*
X140970000Y-107950000D02*
X140970000Y-113030000D01*
X143510000Y-107950000D02*
X140970000Y-107950000D01*
X146050000Y-125730000D02*
X146050000Y-115570000D01*
X143510000Y-125730000D02*
X143510000Y-115570000D01*
X141692380Y-110680476D02*
X141692380Y-111156666D01*
X142168571Y-111204285D01*
X142120952Y-111156666D01*
X142073333Y-111061428D01*
X142073333Y-110823333D01*
X142120952Y-110728095D01*
X142168571Y-110680476D01*
X142263809Y-110632857D01*
X142501904Y-110632857D01*
X142597142Y-110680476D01*
X142644761Y-110728095D01*
X142692380Y-110823333D01*
X142692380Y-111061428D01*
X142644761Y-111156666D01*
X142597142Y-111204285D01*
X141692380Y-110347142D02*
X142692380Y-110013809D01*
X141692380Y-109680476D01*
X146772380Y-114506190D02*
X146772380Y-113887142D01*
X147153333Y-114220476D01*
X147153333Y-114077619D01*
X147200952Y-113982380D01*
X147248571Y-113934761D01*
X147343809Y-113887142D01*
X147581904Y-113887142D01*
X147677142Y-113934761D01*
X147724761Y-113982380D01*
X147772380Y-114077619D01*
X147772380Y-114363333D01*
X147724761Y-114458571D01*
X147677142Y-114506190D01*
X147677142Y-113458571D02*
X147724761Y-113410952D01*
X147772380Y-113458571D01*
X147724761Y-113506190D01*
X147677142Y-113458571D01*
X147772380Y-113458571D01*
X146772380Y-113077619D02*
X146772380Y-112458571D01*
X147153333Y-112791904D01*
X147153333Y-112649047D01*
X147200952Y-112553809D01*
X147248571Y-112506190D01*
X147343809Y-112458571D01*
X147581904Y-112458571D01*
X147677142Y-112506190D01*
X147724761Y-112553809D01*
X147772380Y-112649047D01*
X147772380Y-112934761D01*
X147724761Y-113030000D01*
X147677142Y-113077619D01*
X146772380Y-112172857D02*
X147772380Y-111839523D01*
X146772380Y-111506190D01*
X133754761Y-83981428D02*
X133802380Y-83838571D01*
X133802380Y-83600476D01*
X133754761Y-83505238D01*
X133707142Y-83457619D01*
X133611904Y-83410000D01*
X133516666Y-83410000D01*
X133421428Y-83457619D01*
X133373809Y-83505238D01*
X133326190Y-83600476D01*
X133278571Y-83790952D01*
X133230952Y-83886190D01*
X133183333Y-83933809D01*
X133088095Y-83981428D01*
X132992857Y-83981428D01*
X132897619Y-83933809D01*
X132850000Y-83886190D01*
X132802380Y-83790952D01*
X132802380Y-83552857D01*
X132850000Y-83410000D01*
X133707142Y-82410000D02*
X133754761Y-82457619D01*
X133802380Y-82600476D01*
X133802380Y-82695714D01*
X133754761Y-82838571D01*
X133659523Y-82933809D01*
X133564285Y-82981428D01*
X133373809Y-83029047D01*
X133230952Y-83029047D01*
X133040476Y-82981428D01*
X132945238Y-82933809D01*
X132850000Y-82838571D01*
X132802380Y-82695714D01*
X132802380Y-82600476D01*
X132850000Y-82457619D01*
X132897619Y-82410000D01*
X133802380Y-81505238D02*
X133802380Y-81981428D01*
X132802380Y-81981428D01*
X136294761Y-84029047D02*
X136342380Y-83886190D01*
X136342380Y-83648095D01*
X136294761Y-83552857D01*
X136247142Y-83505238D01*
X136151904Y-83457619D01*
X136056666Y-83457619D01*
X135961428Y-83505238D01*
X135913809Y-83552857D01*
X135866190Y-83648095D01*
X135818571Y-83838571D01*
X135770952Y-83933809D01*
X135723333Y-83981428D01*
X135628095Y-84029047D01*
X135532857Y-84029047D01*
X135437619Y-83981428D01*
X135390000Y-83933809D01*
X135342380Y-83838571D01*
X135342380Y-83600476D01*
X135390000Y-83457619D01*
X136342380Y-83029047D02*
X135342380Y-83029047D01*
X135342380Y-82790952D01*
X135390000Y-82648095D01*
X135485238Y-82552857D01*
X135580476Y-82505238D01*
X135770952Y-82457619D01*
X135913809Y-82457619D01*
X136104285Y-82505238D01*
X136199523Y-82552857D01*
X136294761Y-82648095D01*
X136342380Y-82790952D01*
X136342380Y-83029047D01*
X136056666Y-82076666D02*
X136056666Y-81600476D01*
X136342380Y-82171904D02*
X135342380Y-81838571D01*
X136342380Y-81505238D01*
X138596666Y-84838571D02*
X138596666Y-84362380D01*
X138882380Y-84933809D02*
X137882380Y-84600476D01*
X138882380Y-84267142D01*
X138882380Y-83362380D02*
X138406190Y-83695714D01*
X138882380Y-83933809D02*
X137882380Y-83933809D01*
X137882380Y-83552857D01*
X137930000Y-83457619D01*
X137977619Y-83410000D01*
X138072857Y-83362380D01*
X138215714Y-83362380D01*
X138310952Y-83410000D01*
X138358571Y-83457619D01*
X138406190Y-83552857D01*
X138406190Y-83933809D01*
X138358571Y-82933809D02*
X138358571Y-82600476D01*
X138882380Y-82457619D02*
X138882380Y-82933809D01*
X137882380Y-82933809D01*
X137882380Y-82457619D01*
X138358571Y-81695714D02*
X138358571Y-82029047D01*
X138882380Y-82029047D02*
X137882380Y-82029047D01*
X137882380Y-81552857D01*
X140470000Y-83695714D02*
X140422380Y-83790952D01*
X140422380Y-83933809D01*
X140470000Y-84076666D01*
X140565238Y-84171904D01*
X140660476Y-84219523D01*
X140850952Y-84267142D01*
X140993809Y-84267142D01*
X141184285Y-84219523D01*
X141279523Y-84171904D01*
X141374761Y-84076666D01*
X141422380Y-83933809D01*
X141422380Y-83838571D01*
X141374761Y-83695714D01*
X141327142Y-83648095D01*
X140993809Y-83648095D01*
X140993809Y-83838571D01*
X141422380Y-83219523D02*
X140422380Y-83219523D01*
X141422380Y-82648095D01*
X140422380Y-82648095D01*
X141422380Y-82171904D02*
X140422380Y-82171904D01*
X140422380Y-81933809D01*
X140470000Y-81790952D01*
X140565238Y-81695714D01*
X140660476Y-81648095D01*
X140850952Y-81600476D01*
X140993809Y-81600476D01*
X141184285Y-81648095D01*
X141279523Y-81695714D01*
X141374761Y-81790952D01*
X141422380Y-81933809D01*
X141422380Y-82171904D01*
D12*
X179070000Y-86360000D02*
X142240000Y-86360000D01*
X163830000Y-119380000D02*
X179070000Y-119380000D01*
X148590000Y-119380000D02*
X161290000Y-119380000D01*
D10*
X159581904Y-124253809D02*
X160381904Y-123987142D01*
X159581904Y-123720476D01*
X160381904Y-123453809D02*
X159848571Y-123453809D01*
X159581904Y-123453809D02*
X159620000Y-123491904D01*
X159658095Y-123453809D01*
X159620000Y-123415714D01*
X159581904Y-123453809D01*
X159658095Y-123453809D01*
X159848571Y-123072857D02*
X160381904Y-123072857D01*
X159924761Y-123072857D02*
X159886666Y-123034761D01*
X159848571Y-122958571D01*
X159848571Y-122844285D01*
X159886666Y-122768095D01*
X159962857Y-122730000D01*
X160381904Y-122730000D01*
X157080000Y-123720476D02*
X157041904Y-123796666D01*
X157041904Y-123910952D01*
X157080000Y-124025238D01*
X157156190Y-124101428D01*
X157232380Y-124139523D01*
X157384761Y-124177619D01*
X157499047Y-124177619D01*
X157651428Y-124139523D01*
X157727619Y-124101428D01*
X157803809Y-124025238D01*
X157841904Y-123910952D01*
X157841904Y-123834761D01*
X157803809Y-123720476D01*
X157765714Y-123682380D01*
X157499047Y-123682380D01*
X157499047Y-123834761D01*
X157841904Y-123339523D02*
X157041904Y-123339523D01*
X157841904Y-122882380D01*
X157041904Y-122882380D01*
X157841904Y-122501428D02*
X157041904Y-122501428D01*
X157041904Y-122310952D01*
X157080000Y-122196666D01*
X157156190Y-122120476D01*
X157232380Y-122082380D01*
X157384761Y-122044285D01*
X157499047Y-122044285D01*
X157651428Y-122082380D01*
X157727619Y-122120476D01*
X157803809Y-122196666D01*
X157841904Y-122310952D01*
X157841904Y-122501428D01*
X154540000Y-123720476D02*
X154501904Y-123796666D01*
X154501904Y-123910952D01*
X154540000Y-124025238D01*
X154616190Y-124101428D01*
X154692380Y-124139523D01*
X154844761Y-124177619D01*
X154959047Y-124177619D01*
X155111428Y-124139523D01*
X155187619Y-124101428D01*
X155263809Y-124025238D01*
X155301904Y-123910952D01*
X155301904Y-123834761D01*
X155263809Y-123720476D01*
X155225714Y-123682380D01*
X154959047Y-123682380D01*
X154959047Y-123834761D01*
X155301904Y-123339523D02*
X154501904Y-123339523D01*
X155301904Y-122882380D01*
X154501904Y-122882380D01*
X155301904Y-122501428D02*
X154501904Y-122501428D01*
X154501904Y-122310952D01*
X154540000Y-122196666D01*
X154616190Y-122120476D01*
X154692380Y-122082380D01*
X154844761Y-122044285D01*
X154959047Y-122044285D01*
X155111428Y-122082380D01*
X155187619Y-122120476D01*
X155263809Y-122196666D01*
X155301904Y-122310952D01*
X155301904Y-122501428D01*
X151961904Y-123758571D02*
X151961904Y-124139523D01*
X152342857Y-124177619D01*
X152304761Y-124139523D01*
X152266666Y-124063333D01*
X152266666Y-123872857D01*
X152304761Y-123796666D01*
X152342857Y-123758571D01*
X152419047Y-123720476D01*
X152609523Y-123720476D01*
X152685714Y-123758571D01*
X152723809Y-123796666D01*
X152761904Y-123872857D01*
X152761904Y-124063333D01*
X152723809Y-124139523D01*
X152685714Y-124177619D01*
X151961904Y-123491904D02*
X152761904Y-123225238D01*
X151961904Y-122958571D01*
X149421904Y-124215714D02*
X149421904Y-123720476D01*
X149726666Y-123987142D01*
X149726666Y-123872857D01*
X149764761Y-123796666D01*
X149802857Y-123758571D01*
X149879047Y-123720476D01*
X150069523Y-123720476D01*
X150145714Y-123758571D01*
X150183809Y-123796666D01*
X150221904Y-123872857D01*
X150221904Y-124101428D01*
X150183809Y-124177619D01*
X150145714Y-124215714D01*
X150145714Y-123377619D02*
X150183809Y-123339523D01*
X150221904Y-123377619D01*
X150183809Y-123415714D01*
X150145714Y-123377619D01*
X150221904Y-123377619D01*
X149421904Y-123072857D02*
X149421904Y-122577619D01*
X149726666Y-122844285D01*
X149726666Y-122730000D01*
X149764761Y-122653809D01*
X149802857Y-122615714D01*
X149879047Y-122577619D01*
X150069523Y-122577619D01*
X150145714Y-122615714D01*
X150183809Y-122653809D01*
X150221904Y-122730000D01*
X150221904Y-122958571D01*
X150183809Y-123034761D01*
X150145714Y-123072857D01*
X149421904Y-122349047D02*
X150221904Y-122082380D01*
X149421904Y-121815714D01*
X147681904Y-123682380D02*
X147300952Y-123949047D01*
X147681904Y-124139523D02*
X146881904Y-124139523D01*
X146881904Y-123834761D01*
X146920000Y-123758571D01*
X146958095Y-123720476D01*
X147034285Y-123682380D01*
X147148571Y-123682380D01*
X147224761Y-123720476D01*
X147262857Y-123758571D01*
X147300952Y-123834761D01*
X147300952Y-124139523D01*
X147262857Y-123339523D02*
X147262857Y-123072857D01*
X147681904Y-122958571D02*
X147681904Y-123339523D01*
X146881904Y-123339523D01*
X146881904Y-122958571D01*
X147643809Y-122653809D02*
X147681904Y-122539523D01*
X147681904Y-122349047D01*
X147643809Y-122272857D01*
X147605714Y-122234761D01*
X147529523Y-122196666D01*
X147453333Y-122196666D01*
X147377142Y-122234761D01*
X147339047Y-122272857D01*
X147300952Y-122349047D01*
X147262857Y-122501428D01*
X147224761Y-122577619D01*
X147186666Y-122615714D01*
X147110476Y-122653809D01*
X147034285Y-122653809D01*
X146958095Y-122615714D01*
X146920000Y-122577619D01*
X146881904Y-122501428D01*
X146881904Y-122310952D01*
X146920000Y-122196666D01*
X147262857Y-121853809D02*
X147262857Y-121587142D01*
X147681904Y-121472857D02*
X147681904Y-121853809D01*
X146881904Y-121853809D01*
X146881904Y-121472857D01*
X146881904Y-121244285D02*
X146881904Y-120787142D01*
X147681904Y-121015714D02*
X146881904Y-121015714D01*
X145141904Y-124139523D02*
X144341904Y-124139523D01*
X144341904Y-123606190D02*
X144341904Y-123453809D01*
X144380000Y-123377619D01*
X144456190Y-123301428D01*
X144608571Y-123263333D01*
X144875238Y-123263333D01*
X145027619Y-123301428D01*
X145103809Y-123377619D01*
X145141904Y-123453809D01*
X145141904Y-123606190D01*
X145103809Y-123682380D01*
X145027619Y-123758571D01*
X144875238Y-123796666D01*
X144608571Y-123796666D01*
X144456190Y-123758571D01*
X144380000Y-123682380D01*
X144341904Y-123606190D01*
X145141904Y-122463333D02*
X144760952Y-122730000D01*
X145141904Y-122920476D02*
X144341904Y-122920476D01*
X144341904Y-122615714D01*
X144380000Y-122539523D01*
X144418095Y-122501428D01*
X144494285Y-122463333D01*
X144608571Y-122463333D01*
X144684761Y-122501428D01*
X144722857Y-122539523D01*
X144760952Y-122615714D01*
X144760952Y-122920476D01*
X144722857Y-122120476D02*
X144722857Y-121853809D01*
X145141904Y-121739523D02*
X145141904Y-122120476D01*
X144341904Y-122120476D01*
X144341904Y-121739523D01*
X144722857Y-121130000D02*
X144722857Y-121396666D01*
X145141904Y-121396666D02*
X144341904Y-121396666D01*
X144341904Y-121015714D01*
X177966666Y-124139523D02*
X177966666Y-123663333D01*
X178252380Y-124234761D02*
X177252380Y-123901428D01*
X178252380Y-123568095D01*
X177252380Y-122758571D02*
X177252380Y-123234761D01*
X177728571Y-123282380D01*
X177680952Y-123234761D01*
X177633333Y-123139523D01*
X177633333Y-122901428D01*
X177680952Y-122806190D01*
X177728571Y-122758571D01*
X177823809Y-122710952D01*
X178061904Y-122710952D01*
X178157142Y-122758571D01*
X178204761Y-122806190D01*
X178252380Y-122901428D01*
X178252380Y-123139523D01*
X178204761Y-123234761D01*
X178157142Y-123282380D01*
X175426666Y-124139523D02*
X175426666Y-123663333D01*
X175712380Y-124234761D02*
X174712380Y-123901428D01*
X175712380Y-123568095D01*
X175045714Y-122806190D02*
X175712380Y-122806190D01*
X174664761Y-123044285D02*
X175379047Y-123282380D01*
X175379047Y-122663333D01*
X172886666Y-124139523D02*
X172886666Y-123663333D01*
X173172380Y-124234761D02*
X172172380Y-123901428D01*
X173172380Y-123568095D01*
X172172380Y-123330000D02*
X172172380Y-122710952D01*
X172553333Y-123044285D01*
X172553333Y-122901428D01*
X172600952Y-122806190D01*
X172648571Y-122758571D01*
X172743809Y-122710952D01*
X172981904Y-122710952D01*
X173077142Y-122758571D01*
X173124761Y-122806190D01*
X173172380Y-122901428D01*
X173172380Y-123187142D01*
X173124761Y-123282380D01*
X173077142Y-123330000D01*
X170346666Y-124139523D02*
X170346666Y-123663333D01*
X170632380Y-124234761D02*
X169632380Y-123901428D01*
X170632380Y-123568095D01*
X169727619Y-123282380D02*
X169680000Y-123234761D01*
X169632380Y-123139523D01*
X169632380Y-122901428D01*
X169680000Y-122806190D01*
X169727619Y-122758571D01*
X169822857Y-122710952D01*
X169918095Y-122710952D01*
X170060952Y-122758571D01*
X170632380Y-123330000D01*
X170632380Y-122710952D01*
X170251428Y-122425238D02*
X170203809Y-122377619D01*
X170156190Y-122282380D01*
X170251428Y-122091904D01*
X170203809Y-121996666D01*
X170156190Y-121949047D01*
X167806666Y-124139523D02*
X167806666Y-123663333D01*
X168092380Y-124234761D02*
X167092380Y-123901428D01*
X168092380Y-123568095D01*
X168092380Y-122710952D02*
X168092380Y-123282380D01*
X168092380Y-122996666D02*
X167092380Y-122996666D01*
X167235238Y-123091904D01*
X167330476Y-123187142D01*
X167378095Y-123282380D01*
X167711428Y-122425238D02*
X167663809Y-122377619D01*
X167616190Y-122282380D01*
X167711428Y-122091904D01*
X167663809Y-121996666D01*
X167616190Y-121949047D01*
X165266666Y-124139523D02*
X165266666Y-123663333D01*
X165552380Y-124234761D02*
X164552380Y-123901428D01*
X165552380Y-123568095D01*
X164552380Y-123044285D02*
X164552380Y-122949047D01*
X164600000Y-122853809D01*
X164647619Y-122806190D01*
X164742857Y-122758571D01*
X164933333Y-122710952D01*
X165171428Y-122710952D01*
X165361904Y-122758571D01*
X165457142Y-122806190D01*
X165504761Y-122853809D01*
X165552380Y-122949047D01*
X165552380Y-123044285D01*
X165504761Y-123139523D01*
X165457142Y-123187142D01*
X165361904Y-123234761D01*
X165171428Y-123282380D01*
X164933333Y-123282380D01*
X164742857Y-123234761D01*
X164647619Y-123187142D01*
X164600000Y-123139523D01*
X164552380Y-123044285D01*
X165171428Y-122425238D02*
X165123809Y-122377619D01*
X165076190Y-122282380D01*
X165171428Y-122091904D01*
X165123809Y-121996666D01*
X165076190Y-121949047D01*
X143962380Y-82552857D02*
X143962380Y-83124285D01*
X143962380Y-82838571D02*
X142962380Y-82838571D01*
X143105238Y-82933809D01*
X143200476Y-83029047D01*
X143248095Y-83124285D01*
X142962380Y-82219523D02*
X142962380Y-81600476D01*
X143343333Y-81933809D01*
X143343333Y-81790952D01*
X143390952Y-81695714D01*
X143438571Y-81648095D01*
X143533809Y-81600476D01*
X143771904Y-81600476D01*
X143867142Y-81648095D01*
X143914761Y-81695714D01*
X143962380Y-81790952D01*
X143962380Y-82076666D01*
X143914761Y-82171904D01*
X143867142Y-82219523D01*
X146502380Y-82552857D02*
X146502380Y-83124285D01*
X146502380Y-82838571D02*
X145502380Y-82838571D01*
X145645238Y-82933809D01*
X145740476Y-83029047D01*
X145788095Y-83124285D01*
X145597619Y-82171904D02*
X145550000Y-82124285D01*
X145502380Y-82029047D01*
X145502380Y-81790952D01*
X145550000Y-81695714D01*
X145597619Y-81648095D01*
X145692857Y-81600476D01*
X145788095Y-81600476D01*
X145930952Y-81648095D01*
X146502380Y-82219523D01*
X146502380Y-81600476D01*
X149042380Y-82552857D02*
X149042380Y-83124285D01*
X149042380Y-82838571D02*
X148042380Y-82838571D01*
X148185238Y-82933809D01*
X148280476Y-83029047D01*
X148328095Y-83124285D01*
X149042380Y-81600476D02*
X149042380Y-82171904D01*
X149042380Y-81886190D02*
X148042380Y-81886190D01*
X148185238Y-81981428D01*
X148280476Y-82076666D01*
X148328095Y-82171904D01*
X151201428Y-83933809D02*
X151153809Y-83886190D01*
X151106190Y-83790952D01*
X151201428Y-83600476D01*
X151153809Y-83505238D01*
X151106190Y-83457619D01*
X151582380Y-82552857D02*
X151582380Y-83124285D01*
X151582380Y-82838571D02*
X150582380Y-82838571D01*
X150725238Y-82933809D01*
X150820476Y-83029047D01*
X150868095Y-83124285D01*
X150582380Y-81933809D02*
X150582380Y-81838571D01*
X150630000Y-81743333D01*
X150677619Y-81695714D01*
X150772857Y-81648095D01*
X150963333Y-81600476D01*
X151201428Y-81600476D01*
X151391904Y-81648095D01*
X151487142Y-81695714D01*
X151534761Y-81743333D01*
X151582380Y-81838571D01*
X151582380Y-81933809D01*
X151534761Y-82029047D01*
X151487142Y-82076666D01*
X151391904Y-82124285D01*
X151201428Y-82171904D01*
X150963333Y-82171904D01*
X150772857Y-82124285D01*
X150677619Y-82076666D01*
X150630000Y-82029047D01*
X150582380Y-81933809D01*
X153741428Y-82981428D02*
X153693809Y-82933809D01*
X153646190Y-82838571D01*
X153741428Y-82648095D01*
X153693809Y-82552857D01*
X153646190Y-82505238D01*
X154122380Y-82076666D02*
X154122380Y-81886190D01*
X154074761Y-81790952D01*
X154027142Y-81743333D01*
X153884285Y-81648095D01*
X153693809Y-81600476D01*
X153312857Y-81600476D01*
X153217619Y-81648095D01*
X153170000Y-81695714D01*
X153122380Y-81790952D01*
X153122380Y-81981428D01*
X153170000Y-82076666D01*
X153217619Y-82124285D01*
X153312857Y-82171904D01*
X153550952Y-82171904D01*
X153646190Y-82124285D01*
X153693809Y-82076666D01*
X153741428Y-81981428D01*
X153741428Y-81790952D01*
X153693809Y-81695714D01*
X153646190Y-81648095D01*
X153550952Y-81600476D01*
X156281428Y-82981428D02*
X156233809Y-82933809D01*
X156186190Y-82838571D01*
X156281428Y-82648095D01*
X156233809Y-82552857D01*
X156186190Y-82505238D01*
X156090952Y-81981428D02*
X156043333Y-82076666D01*
X155995714Y-82124285D01*
X155900476Y-82171904D01*
X155852857Y-82171904D01*
X155757619Y-82124285D01*
X155710000Y-82076666D01*
X155662380Y-81981428D01*
X155662380Y-81790952D01*
X155710000Y-81695714D01*
X155757619Y-81648095D01*
X155852857Y-81600476D01*
X155900476Y-81600476D01*
X155995714Y-81648095D01*
X156043333Y-81695714D01*
X156090952Y-81790952D01*
X156090952Y-81981428D01*
X156138571Y-82076666D01*
X156186190Y-82124285D01*
X156281428Y-82171904D01*
X156471904Y-82171904D01*
X156567142Y-82124285D01*
X156614761Y-82076666D01*
X156662380Y-81981428D01*
X156662380Y-81790952D01*
X156614761Y-81695714D01*
X156567142Y-81648095D01*
X156471904Y-81600476D01*
X156281428Y-81600476D01*
X156186190Y-81648095D01*
X156138571Y-81695714D01*
X156090952Y-81790952D01*
X159472380Y-82219523D02*
X159472380Y-81552857D01*
X160472380Y-81981428D01*
X162631428Y-82981428D02*
X162583809Y-82933809D01*
X162536190Y-82838571D01*
X162631428Y-82648095D01*
X162583809Y-82552857D01*
X162536190Y-82505238D01*
X162012380Y-81695714D02*
X162012380Y-81886190D01*
X162060000Y-81981428D01*
X162107619Y-82029047D01*
X162250476Y-82124285D01*
X162440952Y-82171904D01*
X162821904Y-82171904D01*
X162917142Y-82124285D01*
X162964761Y-82076666D01*
X163012380Y-81981428D01*
X163012380Y-81790952D01*
X162964761Y-81695714D01*
X162917142Y-81648095D01*
X162821904Y-81600476D01*
X162583809Y-81600476D01*
X162488571Y-81648095D01*
X162440952Y-81695714D01*
X162393333Y-81790952D01*
X162393333Y-81981428D01*
X162440952Y-82076666D01*
X162488571Y-82124285D01*
X162583809Y-82171904D01*
X165171428Y-82981428D02*
X165123809Y-82933809D01*
X165076190Y-82838571D01*
X165171428Y-82648095D01*
X165123809Y-82552857D01*
X165076190Y-82505238D01*
X164552380Y-81648095D02*
X164552380Y-82124285D01*
X165028571Y-82171904D01*
X164980952Y-82124285D01*
X164933333Y-82029047D01*
X164933333Y-81790952D01*
X164980952Y-81695714D01*
X165028571Y-81648095D01*
X165123809Y-81600476D01*
X165361904Y-81600476D01*
X165457142Y-81648095D01*
X165504761Y-81695714D01*
X165552380Y-81790952D01*
X165552380Y-82029047D01*
X165504761Y-82124285D01*
X165457142Y-82171904D01*
X167711428Y-82981428D02*
X167663809Y-82933809D01*
X167616190Y-82838571D01*
X167711428Y-82648095D01*
X167663809Y-82552857D01*
X167616190Y-82505238D01*
X167425714Y-81695714D02*
X168092380Y-81695714D01*
X167044761Y-81933809D02*
X167759047Y-82171904D01*
X167759047Y-81552857D01*
X170251428Y-82981428D02*
X170203809Y-82933809D01*
X170156190Y-82838571D01*
X170251428Y-82648095D01*
X170203809Y-82552857D01*
X170156190Y-82505238D01*
X169632380Y-82219523D02*
X169632380Y-81600476D01*
X170013333Y-81933809D01*
X170013333Y-81790952D01*
X170060952Y-81695714D01*
X170108571Y-81648095D01*
X170203809Y-81600476D01*
X170441904Y-81600476D01*
X170537142Y-81648095D01*
X170584761Y-81695714D01*
X170632380Y-81790952D01*
X170632380Y-82076666D01*
X170584761Y-82171904D01*
X170537142Y-82219523D01*
X172791428Y-82981428D02*
X172743809Y-82933809D01*
X172696190Y-82838571D01*
X172791428Y-82648095D01*
X172743809Y-82552857D01*
X172696190Y-82505238D01*
X172267619Y-82171904D02*
X172220000Y-82124285D01*
X172172380Y-82029047D01*
X172172380Y-81790952D01*
X172220000Y-81695714D01*
X172267619Y-81648095D01*
X172362857Y-81600476D01*
X172458095Y-81600476D01*
X172600952Y-81648095D01*
X173172380Y-82219523D01*
X173172380Y-81600476D01*
X174712380Y-85219523D02*
X174712380Y-84648095D01*
X175712380Y-84933809D02*
X174712380Y-84933809D01*
X174712380Y-84410000D02*
X175712380Y-83743333D01*
X174712380Y-83743333D02*
X175712380Y-84410000D01*
X175331428Y-83362380D02*
X175331428Y-82600476D01*
X175521904Y-82790952D02*
X175331428Y-82600476D01*
X175140952Y-82790952D01*
X175712380Y-81600476D02*
X175712380Y-82171904D01*
X175712380Y-81886190D02*
X174712380Y-81886190D01*
X174855238Y-81981428D01*
X174950476Y-82076666D01*
X174998095Y-82171904D01*
X178252380Y-84743333D02*
X177776190Y-85076666D01*
X178252380Y-85314761D02*
X177252380Y-85314761D01*
X177252380Y-84933809D01*
X177300000Y-84838571D01*
X177347619Y-84790952D01*
X177442857Y-84743333D01*
X177585714Y-84743333D01*
X177680952Y-84790952D01*
X177728571Y-84838571D01*
X177776190Y-84933809D01*
X177776190Y-85314761D01*
X177252380Y-84410000D02*
X178252380Y-83743333D01*
X177252380Y-83743333D02*
X178252380Y-84410000D01*
X177871428Y-82600476D02*
X177871428Y-83362380D01*
X178061904Y-83171904D02*
X177871428Y-83362380D01*
X177680952Y-83171904D01*
X177252380Y-81933809D02*
X177252380Y-81838571D01*
X177300000Y-81743333D01*
X177347619Y-81695714D01*
X177442857Y-81648095D01*
X177633333Y-81600476D01*
X177871428Y-81600476D01*
X178061904Y-81648095D01*
X178157142Y-81695714D01*
X178204761Y-81743333D01*
X178252380Y-81838571D01*
X178252380Y-81933809D01*
X178204761Y-82029047D01*
X178157142Y-82076666D01*
X178061904Y-82124285D01*
X177871428Y-82171904D01*
X177633333Y-82171904D01*
X177442857Y-82124285D01*
X177347619Y-82076666D01*
X177300000Y-82029047D01*
X177252380Y-81933809D01*
X152168571Y-121192857D02*
X152168571Y-119992857D01*
X152625714Y-119992857D01*
X152740000Y-120050000D01*
X152797142Y-120107142D01*
X152854285Y-120221428D01*
X152854285Y-120392857D01*
X152797142Y-120507142D01*
X152740000Y-120564285D01*
X152625714Y-120621428D01*
X152168571Y-120621428D01*
X153597142Y-119992857D02*
X153825714Y-119992857D01*
X153940000Y-120050000D01*
X154054285Y-120164285D01*
X154111428Y-120392857D01*
X154111428Y-120792857D01*
X154054285Y-121021428D01*
X153940000Y-121135714D01*
X153825714Y-121192857D01*
X153597142Y-121192857D01*
X153482857Y-121135714D01*
X153368571Y-121021428D01*
X153311428Y-120792857D01*
X153311428Y-120392857D01*
X153368571Y-120164285D01*
X153482857Y-120050000D01*
X153597142Y-119992857D01*
X154511428Y-119992857D02*
X154797142Y-121192857D01*
X155025714Y-120335714D01*
X155254285Y-121192857D01*
X155540000Y-119992857D01*
X155997142Y-120564285D02*
X156397142Y-120564285D01*
X156568571Y-121192857D02*
X155997142Y-121192857D01*
X155997142Y-119992857D01*
X156568571Y-119992857D01*
X157768571Y-121192857D02*
X157368571Y-120621428D01*
X157082857Y-121192857D02*
X157082857Y-119992857D01*
X157540000Y-119992857D01*
X157654285Y-120050000D01*
X157711428Y-120107142D01*
X157768571Y-120221428D01*
X157768571Y-120392857D01*
X157711428Y-120507142D01*
X157654285Y-120564285D01*
X157540000Y-120621428D01*
X157082857Y-120621428D01*
X166935714Y-120850000D02*
X167507142Y-120850000D01*
X166821428Y-121192857D02*
X167221428Y-119992857D01*
X167621428Y-121192857D01*
X168021428Y-121192857D02*
X168021428Y-119992857D01*
X168707142Y-121192857D01*
X168707142Y-119992857D01*
X169221428Y-120850000D02*
X169792857Y-120850000D01*
X169107142Y-121192857D02*
X169507142Y-119992857D01*
X169907142Y-121192857D01*
X170878571Y-121192857D02*
X170307142Y-121192857D01*
X170307142Y-119992857D01*
X171507142Y-119992857D02*
X171735714Y-119992857D01*
X171850000Y-120050000D01*
X171964285Y-120164285D01*
X172021428Y-120392857D01*
X172021428Y-120792857D01*
X171964285Y-121021428D01*
X171850000Y-121135714D01*
X171735714Y-121192857D01*
X171507142Y-121192857D01*
X171392857Y-121135714D01*
X171278571Y-121021428D01*
X171221428Y-120792857D01*
X171221428Y-120392857D01*
X171278571Y-120164285D01*
X171392857Y-120050000D01*
X171507142Y-119992857D01*
X173164285Y-120050000D02*
X173050000Y-119992857D01*
X172878571Y-119992857D01*
X172707142Y-120050000D01*
X172592857Y-120164285D01*
X172535714Y-120278571D01*
X172478571Y-120507142D01*
X172478571Y-120678571D01*
X172535714Y-120907142D01*
X172592857Y-121021428D01*
X172707142Y-121135714D01*
X172878571Y-121192857D01*
X172992857Y-121192857D01*
X173164285Y-121135714D01*
X173221428Y-121078571D01*
X173221428Y-120678571D01*
X172992857Y-120678571D01*
X174650000Y-121192857D02*
X174650000Y-119992857D01*
X175221428Y-121192857D02*
X175221428Y-119992857D01*
X175907142Y-121192857D01*
X175907142Y-119992857D01*
X154055000Y-85632857D02*
X154055000Y-84432857D01*
X154340714Y-84432857D01*
X154512142Y-84490000D01*
X154626428Y-84604285D01*
X154683571Y-84718571D01*
X154740714Y-84947142D01*
X154740714Y-85118571D01*
X154683571Y-85347142D01*
X154626428Y-85461428D01*
X154512142Y-85575714D01*
X154340714Y-85632857D01*
X154055000Y-85632857D01*
X155255000Y-85632857D02*
X155255000Y-84432857D01*
X156455000Y-84490000D02*
X156340714Y-84432857D01*
X156169285Y-84432857D01*
X155997857Y-84490000D01*
X155883571Y-84604285D01*
X155826428Y-84718571D01*
X155769285Y-84947142D01*
X155769285Y-85118571D01*
X155826428Y-85347142D01*
X155883571Y-85461428D01*
X155997857Y-85575714D01*
X156169285Y-85632857D01*
X156283571Y-85632857D01*
X156455000Y-85575714D01*
X156512142Y-85518571D01*
X156512142Y-85118571D01*
X156283571Y-85118571D01*
X157026428Y-85632857D02*
X157026428Y-84432857D01*
X157426428Y-84432857D02*
X158112142Y-84432857D01*
X157769285Y-85632857D02*
X157769285Y-84432857D01*
X158455000Y-85290000D02*
X159026428Y-85290000D01*
X158340714Y-85632857D02*
X158740714Y-84432857D01*
X159140714Y-85632857D01*
X160112142Y-85632857D02*
X159540714Y-85632857D01*
X159540714Y-84432857D01*
X161769285Y-86090000D02*
X161712142Y-86032857D01*
X161597857Y-85861428D01*
X161540714Y-85747142D01*
X161483571Y-85575714D01*
X161426428Y-85290000D01*
X161426428Y-85061428D01*
X161483571Y-84775714D01*
X161540714Y-84604285D01*
X161597857Y-84490000D01*
X161712142Y-84318571D01*
X161769285Y-84261428D01*
X162226428Y-85632857D02*
X162226428Y-84432857D01*
X162683571Y-84432857D01*
X162797857Y-84490000D01*
X162855000Y-84547142D01*
X162912142Y-84661428D01*
X162912142Y-84832857D01*
X162855000Y-84947142D01*
X162797857Y-85004285D01*
X162683571Y-85061428D01*
X162226428Y-85061428D01*
X163312142Y-84432857D02*
X163597857Y-85632857D01*
X163826428Y-84775714D01*
X164055000Y-85632857D01*
X164340714Y-84432857D01*
X164797857Y-85632857D02*
X164797857Y-84432857D01*
X165197857Y-85290000D01*
X165597857Y-84432857D01*
X165597857Y-85632857D01*
X165997857Y-85175714D02*
X166055000Y-85118571D01*
X166169285Y-85061428D01*
X166397857Y-85175714D01*
X166512142Y-85118571D01*
X166569285Y-85061428D01*
X166912142Y-86090000D02*
X166969285Y-86032857D01*
X167083571Y-85861428D01*
X167140714Y-85747142D01*
X167197857Y-85575714D01*
X167255000Y-85290000D01*
X167255000Y-85061428D01*
X167197857Y-84775714D01*
X167140714Y-84604285D01*
X167083571Y-84490000D01*
X166969285Y-84318571D01*
X166912142Y-84261428D01*
D12*
X148214285Y-91181904D02*
X148452380Y-91300952D01*
X148928571Y-91300952D01*
X149166666Y-91181904D01*
X149285714Y-90943809D01*
X149285714Y-90824761D01*
X149166666Y-90586666D01*
X148928571Y-90467619D01*
X148571428Y-90467619D01*
X148333333Y-90348571D01*
X148214285Y-90110476D01*
X148214285Y-89991428D01*
X148333333Y-89753333D01*
X148571428Y-89634285D01*
X148928571Y-89634285D01*
X149166666Y-89753333D01*
X151428571Y-91300952D02*
X151428571Y-88800952D01*
X151428571Y-91181904D02*
X151190476Y-91300952D01*
X150714285Y-91300952D01*
X150476190Y-91181904D01*
X150357142Y-91062857D01*
X150238095Y-90824761D01*
X150238095Y-90110476D01*
X150357142Y-89872380D01*
X150476190Y-89753333D01*
X150714285Y-89634285D01*
X151190476Y-89634285D01*
X151428571Y-89753333D01*
X153690476Y-89634285D02*
X153690476Y-91300952D01*
X152619047Y-89634285D02*
X152619047Y-90943809D01*
X152738095Y-91181904D01*
X152976190Y-91300952D01*
X153333333Y-91300952D01*
X153571428Y-91181904D01*
X153690476Y-91062857D01*
X154880952Y-91300952D02*
X154880952Y-89634285D01*
X154880952Y-88800952D02*
X154761904Y-88920000D01*
X154880952Y-89039047D01*
X155000000Y-88920000D01*
X154880952Y-88800952D01*
X154880952Y-89039047D01*
X156071428Y-89634285D02*
X156071428Y-91300952D01*
X156071428Y-89872380D02*
X156190476Y-89753333D01*
X156428571Y-89634285D01*
X156785714Y-89634285D01*
X157023809Y-89753333D01*
X157142857Y-89991428D01*
X157142857Y-91300952D01*
X158690476Y-91300952D02*
X158452380Y-91181904D01*
X158333333Y-91062857D01*
X158214285Y-90824761D01*
X158214285Y-90110476D01*
X158333333Y-89872380D01*
X158452380Y-89753333D01*
X158690476Y-89634285D01*
X159047619Y-89634285D01*
X159285714Y-89753333D01*
X159404761Y-89872380D01*
X159523809Y-90110476D01*
X159523809Y-90824761D01*
X159404761Y-91062857D01*
X159285714Y-91181904D01*
X159047619Y-91300952D01*
X158690476Y-91300952D01*
X162499999Y-88800952D02*
X162499999Y-90824761D01*
X162619047Y-91062857D01*
X162738095Y-91181904D01*
X162976190Y-91300952D01*
X163452380Y-91300952D01*
X163690476Y-91181904D01*
X163809523Y-91062857D01*
X163928571Y-90824761D01*
X163928571Y-88800952D01*
X165119047Y-91300952D02*
X165119047Y-88800952D01*
X166547619Y-91300952D01*
X166547619Y-88800952D01*
X168214285Y-88800952D02*
X168690476Y-88800952D01*
X168928571Y-88920000D01*
X169166666Y-89158095D01*
X169285714Y-89634285D01*
X169285714Y-90467619D01*
X169166666Y-90943809D01*
X168928571Y-91181904D01*
X168690476Y-91300952D01*
X168214285Y-91300952D01*
X167976190Y-91181904D01*
X167738095Y-90943809D01*
X167619047Y-90467619D01*
X167619047Y-89634285D01*
X167738095Y-89158095D01*
X167976190Y-88920000D01*
X168214285Y-88800952D01*
D13*
X115330000Y-116885000D02*
X115330000Y-125685000D01*
X119930000Y-125685000D02*
X111430000Y-125685000D01*
X111430000Y-125685000D02*
X111430000Y-116885000D01*
X111430000Y-116885000D02*
X111630000Y-116885000D01*
X125030000Y-123835000D02*
X125030000Y-125685000D01*
X125030000Y-125685000D02*
X124930000Y-125685000D01*
X111530000Y-116885000D02*
X125030000Y-116885000D01*
X125030000Y-116885000D02*
X125030000Y-118735000D01*
X117500000Y-76810000D02*
X117500000Y-76560000D01*
X117500000Y-76560000D02*
X123800000Y-76560000D01*
X123800000Y-76560000D02*
X123800000Y-76810000D01*
X117500000Y-79060000D02*
X117500000Y-78710000D01*
X123800000Y-83210000D02*
X123800000Y-83460000D01*
X123800000Y-83460000D02*
X117500000Y-83460000D01*
X117500000Y-83460000D02*
X117500000Y-83210000D01*
X123800000Y-78710000D02*
X123800000Y-81310000D01*
X117500000Y-81310000D02*
X117500000Y-80960000D01*
X166370000Y-128330000D02*
X179130000Y-128330000D01*
X179130000Y-128330000D02*
X179130000Y-125670000D01*
X179130000Y-125670000D02*
X166370000Y-125670000D01*
X166370000Y-125670000D02*
X166370000Y-128330000D01*
X165100000Y-128330000D02*
X163770000Y-128330000D01*
X163770000Y-128330000D02*
X163770000Y-127000000D01*
X133700000Y-92040000D02*
X133000000Y-92040000D01*
X133000000Y-90840000D02*
X133700000Y-90840000D01*
X129190000Y-90840000D02*
X129890000Y-90840000D01*
X129890000Y-92040000D02*
X129190000Y-92040000D01*
X162845000Y-104810000D02*
X163545000Y-104810000D01*
X163545000Y-106010000D02*
X162845000Y-106010000D01*
X159735000Y-106010000D02*
X159035000Y-106010000D01*
X159035000Y-104810000D02*
X159735000Y-104810000D01*
X154940000Y-77410000D02*
X132020000Y-77410000D01*
X132020000Y-77410000D02*
X132020000Y-80070000D01*
X132020000Y-80070000D02*
X154940000Y-80070000D01*
X154940000Y-80070000D02*
X154940000Y-77410000D01*
X156210000Y-77410000D02*
X157540000Y-77410000D01*
X157540000Y-77410000D02*
X157540000Y-78740000D01*
X176530000Y-77410000D02*
X158690000Y-77410000D01*
X158690000Y-77410000D02*
X158690000Y-80070000D01*
X158690000Y-80070000D02*
X176530000Y-80070000D01*
X176530000Y-80070000D02*
X176530000Y-77410000D01*
X177800000Y-77410000D02*
X179130000Y-77410000D01*
X179130000Y-77410000D02*
X179130000Y-78740000D01*
X140440000Y-86930000D02*
X140440000Y-88330000D01*
X140440000Y-88330000D02*
X143240000Y-88330000D01*
X140440000Y-86930000D02*
X143240000Y-86930000D01*
X170920000Y-92010000D02*
X170920000Y-93410000D01*
X170920000Y-93410000D02*
X173720000Y-93410000D01*
X170920000Y-92010000D02*
X173720000Y-92010000D01*
X143510000Y-128330000D02*
X161350000Y-128330000D01*
X161350000Y-128330000D02*
X161350000Y-125670000D01*
X161350000Y-125670000D02*
X143510000Y-125670000D01*
X143510000Y-125670000D02*
X143510000Y-128330000D01*
X142240000Y-128330000D02*
X140910000Y-128330000D01*
X140910000Y-128330000D02*
X140910000Y-127000000D01*
X151530000Y-114750000D02*
X150730000Y-114750000D01*
X151530000Y-111310000D02*
X150730000Y-111310000D01*
X142640000Y-92525000D02*
X141840000Y-92525000D01*
X142640000Y-89085000D02*
X141840000Y-89085000D01*
X140440000Y-95820000D02*
X140440000Y-97220000D01*
X140440000Y-97220000D02*
X143240000Y-97220000D01*
X140440000Y-95820000D02*
X143240000Y-95820000D01*
X140440000Y-93280000D02*
X140440000Y-94680000D01*
X140440000Y-94680000D02*
X143240000Y-94680000D01*
X140440000Y-93280000D02*
X143240000Y-93280000D01*
X120010000Y-107715000D02*
X120010000Y-108975000D01*
X120010000Y-114535000D02*
X120010000Y-113275000D01*
X123770000Y-107715000D02*
X120010000Y-107715000D01*
X126020000Y-114535000D02*
X120010000Y-114535000D01*
X133980000Y-107715000D02*
X133980000Y-108975000D01*
X133980000Y-114535000D02*
X133980000Y-113275000D01*
X137740000Y-107715000D02*
X133980000Y-107715000D01*
X139990000Y-114535000D02*
X133980000Y-114535000D01*
D11*
X138425000Y-94445000D02*
X138400000Y-94445000D01*
X138425000Y-98595000D02*
X138320000Y-98595000D01*
X128275000Y-98595000D02*
X128380000Y-98595000D01*
X128275000Y-94445000D02*
X128380000Y-94445000D01*
X138425000Y-94445000D02*
X138425000Y-98595000D01*
X128275000Y-94445000D02*
X128275000Y-98595000D01*
X138400000Y-94445000D02*
X138400000Y-93070000D01*
X165285000Y-108135000D02*
X165285000Y-108360000D01*
X172535000Y-108135000D02*
X172535000Y-108435000D01*
X172535000Y-115385000D02*
X172535000Y-115085000D01*
X165285000Y-115385000D02*
X165285000Y-115085000D01*
X165285000Y-108135000D02*
X165585000Y-108135000D01*
X165285000Y-115385000D02*
X165585000Y-115385000D01*
X172535000Y-115385000D02*
X172235000Y-115385000D01*
X172535000Y-108135000D02*
X172235000Y-108135000D01*
X165285000Y-108360000D02*
X164060000Y-108360000D01*
X149055000Y-104105000D02*
X149055000Y-104155000D01*
X153205000Y-104105000D02*
X153205000Y-104250000D01*
X153205000Y-109255000D02*
X153205000Y-109110000D01*
X149055000Y-109255000D02*
X149055000Y-109110000D01*
X149055000Y-104105000D02*
X153205000Y-104105000D01*
X149055000Y-109255000D02*
X153205000Y-109255000D01*
X149055000Y-104155000D02*
X147655000Y-104155000D01*
D13*
X143450000Y-115630000D02*
X146110000Y-115630000D01*
X143450000Y-110490000D02*
X143450000Y-115630000D01*
X146110000Y-110490000D02*
X146110000Y-115630000D01*
X143450000Y-110490000D02*
X146110000Y-110490000D01*
X143450000Y-109220000D02*
X143450000Y-107890000D01*
X143450000Y-107890000D02*
X144780000Y-107890000D01*
X116460000Y-85625000D02*
X107820000Y-85625000D01*
X124840000Y-85625000D02*
X119760000Y-85625000D01*
X116460000Y-97825000D02*
X107820000Y-97825000D01*
X124840000Y-97825000D02*
X119760000Y-97825000D01*
X107820000Y-97825000D02*
X107820000Y-85625000D01*
X124840000Y-85625000D02*
X124840000Y-97825000D01*
X139290000Y-128015000D02*
X139290000Y-124715000D01*
X139290000Y-124715000D02*
X133890000Y-124715000D01*
X139290000Y-128015000D02*
X133890000Y-128015000D01*
X136400000Y-123315000D02*
X138580000Y-123315000D01*
X143000000Y-123315000D02*
X140820000Y-123315000D01*
X137160000Y-116715000D02*
X138580000Y-116715000D01*
X142240000Y-116715000D02*
X140820000Y-116715000D01*
X136400000Y-123315000D02*
X136400000Y-117475000D01*
X136400000Y-117475000D02*
X137160000Y-116715000D01*
X142240000Y-116715000D02*
X143000000Y-117475000D01*
X143000000Y-117475000D02*
X143000000Y-123315000D01*
X128780000Y-123315000D02*
X130960000Y-123315000D01*
X135380000Y-123315000D02*
X133200000Y-123315000D01*
X129540000Y-116715000D02*
X130960000Y-116715000D01*
X134620000Y-116715000D02*
X133200000Y-116715000D01*
X128780000Y-123315000D02*
X128780000Y-117475000D01*
X128780000Y-117475000D02*
X129540000Y-116715000D01*
X134620000Y-116715000D02*
X135380000Y-117475000D01*
X135380000Y-117475000D02*
X135380000Y-123315000D01*
X130050000Y-85105000D02*
X136450000Y-85105000D01*
X130050000Y-90155000D02*
X136450000Y-90155000D01*
X130050000Y-90155000D02*
G75*
G02X130050000Y-85105000I0J2525000D01*
G01*
X136450000Y-90155000D02*
G75*
G03X136450000Y-85105000I0J2525000D01*
G01*
X157990000Y-99075000D02*
X164390000Y-99075000D01*
X157990000Y-104125000D02*
X164390000Y-104125000D01*
X157990000Y-104125000D02*
G75*
G02X157990000Y-99075000I0J2525000D01*
G01*
X164390000Y-104125000D02*
G75*
G03X164390000Y-99075000I0J2525000D01*
G01*
X123690000Y-104560000D02*
X122690000Y-104560000D01*
X122690000Y-106260000D02*
X123690000Y-106260000D01*
X161790000Y-113450000D02*
X160790000Y-113450000D01*
X160790000Y-115150000D02*
X161790000Y-115150000D01*
X119990000Y-104700000D02*
X119990000Y-101240000D01*
X116230000Y-104700000D02*
X116230000Y-101240000D01*
X151530000Y-102685000D02*
X150730000Y-102685000D01*
X151530000Y-99245000D02*
X150730000Y-99245000D01*
X142590000Y-99025000D02*
X141890000Y-99025000D01*
X141890000Y-97825000D02*
X142590000Y-97825000D01*
X136240000Y-106645000D02*
X135540000Y-106645000D01*
X135540000Y-105445000D02*
X136240000Y-105445000D01*
X127920000Y-113700000D02*
X128620000Y-113700000D01*
X128620000Y-114900000D02*
X127920000Y-114900000D01*
X142590000Y-100930000D02*
X141890000Y-100930000D01*
X141890000Y-99730000D02*
X142590000Y-99730000D01*
X161640000Y-112360000D02*
X160940000Y-112360000D01*
X160940000Y-111160000D02*
X161640000Y-111160000D01*
X159090000Y-107525000D02*
X159090000Y-109645000D01*
X162290000Y-107525000D02*
X159090000Y-107525000D01*
X159090000Y-109645000D02*
X162290000Y-109645000D01*
X122430000Y-100020000D02*
X122430000Y-100950000D01*
X122430000Y-103180000D02*
X122430000Y-102250000D01*
X122430000Y-103180000D02*
X124590000Y-103180000D01*
X122430000Y-100020000D02*
X123890000Y-100020000D01*
X138490000Y-104200000D02*
X138490000Y-101540000D01*
X130810000Y-104200000D02*
X138490000Y-104200000D01*
X130810000Y-101540000D02*
X138490000Y-101540000D01*
X130810000Y-104200000D02*
X130810000Y-101540000D01*
X129540000Y-104200000D02*
X128210000Y-104200000D01*
X128210000Y-104200000D02*
X128210000Y-102870000D01*
X143570000Y-104200000D02*
X143570000Y-101540000D01*
X140970000Y-104200000D02*
X143570000Y-104200000D01*
X140970000Y-101540000D02*
X143570000Y-101540000D01*
X140970000Y-104200000D02*
X140970000Y-101540000D01*
X139700000Y-104200000D02*
X138370000Y-104200000D01*
X138370000Y-104200000D02*
X138370000Y-102870000D01*
X176470000Y-108010000D02*
X181670000Y-108010000D01*
X176470000Y-100330000D02*
X176470000Y-108010000D01*
X181670000Y-97730000D02*
X181670000Y-108010000D01*
X176470000Y-100330000D02*
X179070000Y-100330000D01*
X179070000Y-100330000D02*
X179070000Y-97730000D01*
X179070000Y-97730000D02*
X181670000Y-97730000D01*
X176470000Y-99060000D02*
X176470000Y-97730000D01*
X176470000Y-97730000D02*
X177800000Y-97730000D01*
X137510000Y-92040000D02*
X136810000Y-92040000D01*
X136810000Y-90840000D02*
X137510000Y-90840000D01*
D11*
X171535000Y-109135000D02*
X171535000Y-109660000D01*
X166285000Y-114385000D02*
X166285000Y-113860000D01*
X171535000Y-114385000D02*
X171535000Y-113860000D01*
X166285000Y-109135000D02*
X166810000Y-109135000D01*
X166285000Y-114385000D02*
X166810000Y-114385000D01*
X171535000Y-114385000D02*
X171010000Y-114385000D01*
X171535000Y-109135000D02*
X171010000Y-109135000D01*
D13*
X118480000Y-95250000D02*
X118480000Y-94870000D01*
X114430000Y-95250000D02*
X114170000Y-95250000D01*
X118480000Y-95250000D02*
X116710000Y-95250000D01*
X118480000Y-87630000D02*
X118480000Y-88010000D01*
X116710000Y-87630000D02*
X118480000Y-87630000D01*
X114170000Y-87630000D02*
X114430000Y-87630000D01*
D11*
X116030476Y-117562380D02*
X116697142Y-118562380D01*
X116697142Y-117562380D02*
X116030476Y-118562380D01*
X117601904Y-118562380D02*
X117030476Y-118562380D01*
X117316190Y-118562380D02*
X117316190Y-117562380D01*
X117220952Y-117705238D01*
X117125714Y-117800476D01*
X117030476Y-117848095D01*
X118721428Y-80462380D02*
X118388095Y-79986190D01*
X118150000Y-80462380D02*
X118150000Y-79462380D01*
X118530952Y-79462380D01*
X118626190Y-79510000D01*
X118673809Y-79557619D01*
X118721428Y-79652857D01*
X118721428Y-79795714D01*
X118673809Y-79890952D01*
X118626190Y-79938571D01*
X118530952Y-79986190D01*
X118150000Y-79986190D01*
X119150000Y-79938571D02*
X119483333Y-79938571D01*
X119626190Y-80462380D02*
X119150000Y-80462380D01*
X119150000Y-79462380D01*
X119626190Y-79462380D01*
X120007142Y-80414761D02*
X120150000Y-80462380D01*
X120388095Y-80462380D01*
X120483333Y-80414761D01*
X120530952Y-80367142D01*
X120578571Y-80271904D01*
X120578571Y-80176666D01*
X120530952Y-80081428D01*
X120483333Y-80033809D01*
X120388095Y-79986190D01*
X120197619Y-79938571D01*
X120102380Y-79890952D01*
X120054761Y-79843333D01*
X120007142Y-79748095D01*
X120007142Y-79652857D01*
X120054761Y-79557619D01*
X120102380Y-79510000D01*
X120197619Y-79462380D01*
X120435714Y-79462380D01*
X120578571Y-79510000D01*
X121007142Y-79938571D02*
X121340476Y-79938571D01*
X121483333Y-80462380D02*
X121007142Y-80462380D01*
X121007142Y-79462380D01*
X121483333Y-79462380D01*
X121769047Y-79462380D02*
X122340476Y-79462380D01*
X122054761Y-80462380D02*
X122054761Y-79462380D01*
X123197619Y-80462380D02*
X122626190Y-80462380D01*
X122911904Y-80462380D02*
X122911904Y-79462380D01*
X122816666Y-79605238D01*
X122721428Y-79700476D01*
X122626190Y-79748095D01*
X121158095Y-110577380D02*
X121158095Y-111386904D01*
X121205714Y-111482142D01*
X121253333Y-111529761D01*
X121348571Y-111577380D01*
X121539047Y-111577380D01*
X121634285Y-111529761D01*
X121681904Y-111482142D01*
X121729523Y-111386904D01*
X121729523Y-110577380D01*
X122729523Y-111577380D02*
X122158095Y-111577380D01*
X122443809Y-111577380D02*
X122443809Y-110577380D01*
X122348571Y-110720238D01*
X122253333Y-110815476D01*
X122158095Y-110863095D01*
X135128095Y-110577380D02*
X135128095Y-111386904D01*
X135175714Y-111482142D01*
X135223333Y-111529761D01*
X135318571Y-111577380D01*
X135509047Y-111577380D01*
X135604285Y-111529761D01*
X135651904Y-111482142D01*
X135699523Y-111386904D01*
X135699523Y-110577380D01*
X136128095Y-110672619D02*
X136175714Y-110625000D01*
X136270952Y-110577380D01*
X136509047Y-110577380D01*
X136604285Y-110625000D01*
X136651904Y-110672619D01*
X136699523Y-110767857D01*
X136699523Y-110863095D01*
X136651904Y-111005952D01*
X136080476Y-111577380D01*
X136699523Y-111577380D01*
X132588095Y-95972380D02*
X132588095Y-96781904D01*
X132635714Y-96877142D01*
X132683333Y-96924761D01*
X132778571Y-96972380D01*
X132969047Y-96972380D01*
X133064285Y-96924761D01*
X133111904Y-96877142D01*
X133159523Y-96781904D01*
X133159523Y-95972380D01*
X133540476Y-95972380D02*
X134159523Y-95972380D01*
X133826190Y-96353333D01*
X133969047Y-96353333D01*
X134064285Y-96400952D01*
X134111904Y-96448571D01*
X134159523Y-96543809D01*
X134159523Y-96781904D01*
X134111904Y-96877142D01*
X134064285Y-96924761D01*
X133969047Y-96972380D01*
X133683333Y-96972380D01*
X133588095Y-96924761D01*
X133540476Y-96877142D01*
X150368095Y-106132380D02*
X150368095Y-106941904D01*
X150415714Y-107037142D01*
X150463333Y-107084761D01*
X150558571Y-107132380D01*
X150749047Y-107132380D01*
X150844285Y-107084761D01*
X150891904Y-107037142D01*
X150939523Y-106941904D01*
X150939523Y-106132380D01*
X151891904Y-106132380D02*
X151415714Y-106132380D01*
X151368095Y-106608571D01*
X151415714Y-106560952D01*
X151510952Y-106513333D01*
X151749047Y-106513333D01*
X151844285Y-106560952D01*
X151891904Y-106608571D01*
X151939523Y-106703809D01*
X151939523Y-106941904D01*
X151891904Y-107037142D01*
X151844285Y-107084761D01*
X151749047Y-107132380D01*
X151510952Y-107132380D01*
X151415714Y-107084761D01*
X151368095Y-107037142D01*
X121745476Y-86447380D02*
X122412142Y-87447380D01*
X122412142Y-86447380D02*
X121745476Y-87447380D01*
X122745476Y-86542619D02*
X122793095Y-86495000D01*
X122888333Y-86447380D01*
X123126428Y-86447380D01*
X123221666Y-86495000D01*
X123269285Y-86542619D01*
X123316904Y-86637857D01*
X123316904Y-86733095D01*
X123269285Y-86875952D01*
X122697857Y-87447380D01*
X123316904Y-87447380D01*
X138247380Y-121253095D02*
X137247380Y-121253095D01*
X137247380Y-120872142D01*
X137295000Y-120776904D01*
X137342619Y-120729285D01*
X137437857Y-120681666D01*
X137580714Y-120681666D01*
X137675952Y-120729285D01*
X137723571Y-120776904D01*
X137771190Y-120872142D01*
X137771190Y-121253095D01*
X138152142Y-119681666D02*
X138199761Y-119729285D01*
X138247380Y-119872142D01*
X138247380Y-119967380D01*
X138199761Y-120110238D01*
X138104523Y-120205476D01*
X138009285Y-120253095D01*
X137818809Y-120300714D01*
X137675952Y-120300714D01*
X137485476Y-120253095D01*
X137390238Y-120205476D01*
X137295000Y-120110238D01*
X137247380Y-119967380D01*
X137247380Y-119872142D01*
X137295000Y-119729285D01*
X137342619Y-119681666D01*
X138247380Y-118729285D02*
X138247380Y-119300714D01*
X138247380Y-119015000D02*
X137247380Y-119015000D01*
X137390238Y-119110238D01*
X137485476Y-119205476D01*
X137533095Y-119300714D01*
X136761428Y-116115952D02*
X136761428Y-115354047D01*
X137142380Y-115735000D02*
X136380476Y-115735000D01*
X130627380Y-121253095D02*
X129627380Y-121253095D01*
X129627380Y-120872142D01*
X129675000Y-120776904D01*
X129722619Y-120729285D01*
X129817857Y-120681666D01*
X129960714Y-120681666D01*
X130055952Y-120729285D01*
X130103571Y-120776904D01*
X130151190Y-120872142D01*
X130151190Y-121253095D01*
X130532142Y-119681666D02*
X130579761Y-119729285D01*
X130627380Y-119872142D01*
X130627380Y-119967380D01*
X130579761Y-120110238D01*
X130484523Y-120205476D01*
X130389285Y-120253095D01*
X130198809Y-120300714D01*
X130055952Y-120300714D01*
X129865476Y-120253095D01*
X129770238Y-120205476D01*
X129675000Y-120110238D01*
X129627380Y-119967380D01*
X129627380Y-119872142D01*
X129675000Y-119729285D01*
X129722619Y-119681666D01*
X129722619Y-119300714D02*
X129675000Y-119253095D01*
X129627380Y-119157857D01*
X129627380Y-118919761D01*
X129675000Y-118824523D01*
X129722619Y-118776904D01*
X129817857Y-118729285D01*
X129913095Y-118729285D01*
X130055952Y-118776904D01*
X130627380Y-119348333D01*
X130627380Y-118729285D01*
X129141428Y-116115952D02*
X129141428Y-115354047D01*
X129522380Y-115735000D02*
X128760476Y-115735000D01*
X132873809Y-87606190D02*
X132873809Y-88082380D01*
X132540476Y-87082380D02*
X132873809Y-87606190D01*
X133207142Y-87082380D01*
X134064285Y-88082380D02*
X133492857Y-88082380D01*
X133778571Y-88082380D02*
X133778571Y-87082380D01*
X133683333Y-87225238D01*
X133588095Y-87320476D01*
X133492857Y-87368095D01*
X160613809Y-101576190D02*
X160613809Y-102052380D01*
X160280476Y-101052380D02*
X160613809Y-101576190D01*
X160947142Y-101052380D01*
X161232857Y-101147619D02*
X161280476Y-101100000D01*
X161375714Y-101052380D01*
X161613809Y-101052380D01*
X161709047Y-101100000D01*
X161756666Y-101147619D01*
X161804285Y-101242857D01*
X161804285Y-101338095D01*
X161756666Y-101480952D01*
X161185238Y-102052380D01*
X161804285Y-102052380D01*
X117776666Y-102798571D02*
X117443333Y-102798571D01*
X117443333Y-103322380D02*
X117443333Y-102322380D01*
X117919523Y-102322380D01*
X118824285Y-103322380D02*
X118252857Y-103322380D01*
X118538571Y-103322380D02*
X118538571Y-102322380D01*
X118443333Y-102465238D01*
X118348095Y-102560476D01*
X118252857Y-102608095D01*
X121745476Y-88098380D02*
X122412142Y-89098380D01*
X122412142Y-88098380D02*
X121745476Y-89098380D01*
X122697857Y-88098380D02*
X123316904Y-88098380D01*
X122983571Y-88479333D01*
X123126428Y-88479333D01*
X123221666Y-88526952D01*
X123269285Y-88574571D01*
X123316904Y-88669809D01*
X123316904Y-88907904D01*
X123269285Y-89003142D01*
X123221666Y-89050761D01*
X123126428Y-89098380D01*
X122840714Y-89098380D01*
X122745476Y-89050761D01*
X122697857Y-89003142D01*
D14*
G36*
X168402000Y-93673394D02*
G01*
X168402000Y-92710000D01*
X168399560Y-92685224D01*
X168392333Y-92661399D01*
X168380597Y-92639443D01*
X168364803Y-92620197D01*
X168345557Y-92604403D01*
X168323601Y-92592667D01*
X168299776Y-92585440D01*
X168275000Y-92583000D01*
X168250224Y-92585440D01*
X168226399Y-92592667D01*
X168204443Y-92604403D01*
X168185197Y-92620197D01*
X167132000Y-93673394D01*
X167132000Y-92710000D01*
X167129560Y-92685224D01*
X167122333Y-92661399D01*
X167110597Y-92639443D01*
X167094803Y-92620197D01*
X167075557Y-92604403D01*
X167053601Y-92592667D01*
X167029776Y-92585440D01*
X167005000Y-92583000D01*
X166980224Y-92585440D01*
X166956399Y-92592667D01*
X166934443Y-92604403D01*
X166915197Y-92620197D01*
X165862000Y-93673394D01*
X165862000Y-92710000D01*
X165859560Y-92685224D01*
X165852333Y-92661399D01*
X165840597Y-92639443D01*
X165824803Y-92620197D01*
X165805557Y-92604403D01*
X165783601Y-92592667D01*
X165759776Y-92585440D01*
X165735000Y-92583000D01*
X165710224Y-92585440D01*
X165686399Y-92592667D01*
X165664443Y-92604403D01*
X165645197Y-92620197D01*
X164592000Y-93673394D01*
X164592000Y-92710000D01*
X164589560Y-92685224D01*
X164582333Y-92661399D01*
X164570597Y-92639443D01*
X164554803Y-92620197D01*
X164535557Y-92604403D01*
X164513601Y-92592667D01*
X164489776Y-92585440D01*
X164465000Y-92583000D01*
X164440224Y-92585440D01*
X164416399Y-92592667D01*
X164394443Y-92604403D01*
X164375197Y-92620197D01*
X163322000Y-93673394D01*
X163322000Y-92710000D01*
X163319560Y-92685224D01*
X163312333Y-92661399D01*
X163300597Y-92639443D01*
X163284803Y-92620197D01*
X163265557Y-92604403D01*
X163243601Y-92592667D01*
X163219776Y-92585440D01*
X163195000Y-92583000D01*
X163170224Y-92585440D01*
X163146399Y-92592667D01*
X163124443Y-92604403D01*
X163105197Y-92620197D01*
X162052000Y-93673394D01*
X162052000Y-92710000D01*
X162049560Y-92685224D01*
X162042333Y-92661399D01*
X162030597Y-92639443D01*
X162014803Y-92620197D01*
X161995557Y-92604403D01*
X161973601Y-92592667D01*
X161949776Y-92585440D01*
X161925000Y-92583000D01*
X161900224Y-92585440D01*
X161876399Y-92592667D01*
X161854443Y-92604403D01*
X161835197Y-92620197D01*
X160782000Y-93673394D01*
X160782000Y-92710000D01*
X160779560Y-92685224D01*
X160772333Y-92661399D01*
X160760597Y-92639443D01*
X160744803Y-92620197D01*
X160725557Y-92604403D01*
X160703601Y-92592667D01*
X160679776Y-92585440D01*
X160655000Y-92583000D01*
X160630224Y-92585440D01*
X160606399Y-92592667D01*
X160584443Y-92604403D01*
X160565197Y-92620197D01*
X159512000Y-93673394D01*
X159512000Y-92710000D01*
X159509560Y-92685224D01*
X159502333Y-92661399D01*
X159490597Y-92639443D01*
X159474803Y-92620197D01*
X159455557Y-92604403D01*
X159433601Y-92592667D01*
X159409776Y-92585440D01*
X159385000Y-92583000D01*
X159360224Y-92585440D01*
X159336399Y-92592667D01*
X159314443Y-92604403D01*
X159295197Y-92620197D01*
X158242000Y-93673394D01*
X158242000Y-92710000D01*
X158239560Y-92685224D01*
X158232333Y-92661399D01*
X158220597Y-92639443D01*
X158204803Y-92620197D01*
X158185557Y-92604403D01*
X158163601Y-92592667D01*
X158139776Y-92585440D01*
X158115000Y-92583000D01*
X158090224Y-92585440D01*
X158066399Y-92592667D01*
X158044443Y-92604403D01*
X158025197Y-92620197D01*
X156972000Y-93673394D01*
X156972000Y-92710000D01*
X156969560Y-92685224D01*
X156962333Y-92661399D01*
X156950597Y-92639443D01*
X156934803Y-92620197D01*
X156915557Y-92604403D01*
X156893601Y-92592667D01*
X156869776Y-92585440D01*
X156845000Y-92583000D01*
X156820224Y-92585440D01*
X156796399Y-92592667D01*
X156774443Y-92604403D01*
X156755197Y-92620197D01*
X155702000Y-93673394D01*
X155702000Y-92710000D01*
X155699560Y-92685224D01*
X155692333Y-92661399D01*
X155680597Y-92639443D01*
X155664803Y-92620197D01*
X155645557Y-92604403D01*
X155623601Y-92592667D01*
X155599776Y-92585440D01*
X155575000Y-92583000D01*
X155550224Y-92585440D01*
X155526399Y-92592667D01*
X155504443Y-92604403D01*
X155485197Y-92620197D01*
X154432000Y-93673394D01*
X154432000Y-92710000D01*
X154429560Y-92685224D01*
X154422333Y-92661399D01*
X154410597Y-92639443D01*
X154394803Y-92620197D01*
X154375557Y-92604403D01*
X154353601Y-92592667D01*
X154329776Y-92585440D01*
X154305000Y-92583000D01*
X154280224Y-92585440D01*
X154256399Y-92592667D01*
X154234443Y-92604403D01*
X154215197Y-92620197D01*
X153162000Y-93673394D01*
X153162000Y-92710000D01*
X153159560Y-92685224D01*
X153152333Y-92661399D01*
X153140597Y-92639443D01*
X153124803Y-92620197D01*
X153105557Y-92604403D01*
X153083601Y-92592667D01*
X153059776Y-92585440D01*
X153035000Y-92583000D01*
X153010224Y-92585440D01*
X152986399Y-92592667D01*
X152964443Y-92604403D01*
X152945197Y-92620197D01*
X151892000Y-93673394D01*
X151892000Y-92710000D01*
X151889560Y-92685224D01*
X151882333Y-92661399D01*
X151870597Y-92639443D01*
X151854803Y-92620197D01*
X151835557Y-92604403D01*
X151813601Y-92592667D01*
X151789776Y-92585440D01*
X151765000Y-92583000D01*
X151740224Y-92585440D01*
X151716399Y-92592667D01*
X151694443Y-92604403D01*
X151675197Y-92620197D01*
X150622000Y-93673394D01*
X150622000Y-92710000D01*
X150619560Y-92685224D01*
X150612333Y-92661399D01*
X150600597Y-92639443D01*
X150584803Y-92620197D01*
X150565557Y-92604403D01*
X150543601Y-92592667D01*
X150519776Y-92585440D01*
X150495000Y-92583000D01*
X150470224Y-92585440D01*
X150446399Y-92592667D01*
X150424443Y-92604403D01*
X150405197Y-92620197D01*
X149352000Y-93673394D01*
X149352000Y-92710000D01*
X149349560Y-92685224D01*
X149342333Y-92661399D01*
X149330597Y-92639443D01*
X149314803Y-92620197D01*
X149295557Y-92604403D01*
X149273601Y-92592667D01*
X149249776Y-92585440D01*
X149225000Y-92583000D01*
X149200224Y-92585440D01*
X149176399Y-92592667D01*
X149154443Y-92604403D01*
X149135197Y-92620197D01*
X148082000Y-93673394D01*
X148082000Y-92710000D01*
X148079560Y-92685224D01*
X148072333Y-92661399D01*
X148060597Y-92639443D01*
X148044803Y-92620197D01*
X148025557Y-92604403D01*
X148003601Y-92592667D01*
X147979776Y-92585440D01*
X147955000Y-92583000D01*
X147930224Y-92585440D01*
X147906399Y-92592667D01*
X147884443Y-92604403D01*
X147865197Y-92620197D01*
X147447000Y-93038394D01*
X147447000Y-92202000D01*
X169873394Y-92202000D01*
X168402000Y-93673394D01*
G37*
X168402000Y-93673394D02*
X168402000Y-92710000D01*
X168399560Y-92685224D01*
X168392333Y-92661399D01*
X168380597Y-92639443D01*
X168364803Y-92620197D01*
X168345557Y-92604403D01*
X168323601Y-92592667D01*
X168299776Y-92585440D01*
X168275000Y-92583000D01*
X168250224Y-92585440D01*
X168226399Y-92592667D01*
X168204443Y-92604403D01*
X168185197Y-92620197D01*
X167132000Y-93673394D01*
X167132000Y-92710000D01*
X167129560Y-92685224D01*
X167122333Y-92661399D01*
X167110597Y-92639443D01*
X167094803Y-92620197D01*
X167075557Y-92604403D01*
X167053601Y-92592667D01*
X167029776Y-92585440D01*
X167005000Y-92583000D01*
X166980224Y-92585440D01*
X166956399Y-92592667D01*
X166934443Y-92604403D01*
X166915197Y-92620197D01*
X165862000Y-93673394D01*
X165862000Y-92710000D01*
X165859560Y-92685224D01*
X165852333Y-92661399D01*
X165840597Y-92639443D01*
X165824803Y-92620197D01*
X165805557Y-92604403D01*
X165783601Y-92592667D01*
X165759776Y-92585440D01*
X165735000Y-92583000D01*
X165710224Y-92585440D01*
X165686399Y-92592667D01*
X165664443Y-92604403D01*
X165645197Y-92620197D01*
X164592000Y-93673394D01*
X164592000Y-92710000D01*
X164589560Y-92685224D01*
X164582333Y-92661399D01*
X164570597Y-92639443D01*
X164554803Y-92620197D01*
X164535557Y-92604403D01*
X164513601Y-92592667D01*
X164489776Y-92585440D01*
X164465000Y-92583000D01*
X164440224Y-92585440D01*
X164416399Y-92592667D01*
X164394443Y-92604403D01*
X164375197Y-92620197D01*
X163322000Y-93673394D01*
X163322000Y-92710000D01*
X163319560Y-92685224D01*
X163312333Y-92661399D01*
X163300597Y-92639443D01*
X163284803Y-92620197D01*
X163265557Y-92604403D01*
X163243601Y-92592667D01*
X163219776Y-92585440D01*
X163195000Y-92583000D01*
X163170224Y-92585440D01*
X163146399Y-92592667D01*
X163124443Y-92604403D01*
X163105197Y-92620197D01*
X162052000Y-93673394D01*
X162052000Y-92710000D01*
X162049560Y-92685224D01*
X162042333Y-92661399D01*
X162030597Y-92639443D01*
X162014803Y-92620197D01*
X161995557Y-92604403D01*
X161973601Y-92592667D01*
X161949776Y-92585440D01*
X161925000Y-92583000D01*
X161900224Y-92585440D01*
X161876399Y-92592667D01*
X161854443Y-92604403D01*
X161835197Y-92620197D01*
X160782000Y-93673394D01*
X160782000Y-92710000D01*
X160779560Y-92685224D01*
X160772333Y-92661399D01*
X160760597Y-92639443D01*
X160744803Y-92620197D01*
X160725557Y-92604403D01*
X160703601Y-92592667D01*
X160679776Y-92585440D01*
X160655000Y-92583000D01*
X160630224Y-92585440D01*
X160606399Y-92592667D01*
X160584443Y-92604403D01*
X160565197Y-92620197D01*
X159512000Y-93673394D01*
X159512000Y-92710000D01*
X159509560Y-92685224D01*
X159502333Y-92661399D01*
X159490597Y-92639443D01*
X159474803Y-92620197D01*
X159455557Y-92604403D01*
X159433601Y-92592667D01*
X159409776Y-92585440D01*
X159385000Y-92583000D01*
X159360224Y-92585440D01*
X159336399Y-92592667D01*
X159314443Y-92604403D01*
X159295197Y-92620197D01*
X158242000Y-93673394D01*
X158242000Y-92710000D01*
X158239560Y-92685224D01*
X158232333Y-92661399D01*
X158220597Y-92639443D01*
X158204803Y-92620197D01*
X158185557Y-92604403D01*
X158163601Y-92592667D01*
X158139776Y-92585440D01*
X158115000Y-92583000D01*
X158090224Y-92585440D01*
X158066399Y-92592667D01*
X158044443Y-92604403D01*
X158025197Y-92620197D01*
X156972000Y-93673394D01*
X156972000Y-92710000D01*
X156969560Y-92685224D01*
X156962333Y-92661399D01*
X156950597Y-92639443D01*
X156934803Y-92620197D01*
X156915557Y-92604403D01*
X156893601Y-92592667D01*
X156869776Y-92585440D01*
X156845000Y-92583000D01*
X156820224Y-92585440D01*
X156796399Y-92592667D01*
X156774443Y-92604403D01*
X156755197Y-92620197D01*
X155702000Y-93673394D01*
X155702000Y-92710000D01*
X155699560Y-92685224D01*
X155692333Y-92661399D01*
X155680597Y-92639443D01*
X155664803Y-92620197D01*
X155645557Y-92604403D01*
X155623601Y-92592667D01*
X155599776Y-92585440D01*
X155575000Y-92583000D01*
X155550224Y-92585440D01*
X155526399Y-92592667D01*
X155504443Y-92604403D01*
X155485197Y-92620197D01*
X154432000Y-93673394D01*
X154432000Y-92710000D01*
X154429560Y-92685224D01*
X154422333Y-92661399D01*
X154410597Y-92639443D01*
X154394803Y-92620197D01*
X154375557Y-92604403D01*
X154353601Y-92592667D01*
X154329776Y-92585440D01*
X154305000Y-92583000D01*
X154280224Y-92585440D01*
X154256399Y-92592667D01*
X154234443Y-92604403D01*
X154215197Y-92620197D01*
X153162000Y-93673394D01*
X153162000Y-92710000D01*
X153159560Y-92685224D01*
X153152333Y-92661399D01*
X153140597Y-92639443D01*
X153124803Y-92620197D01*
X153105557Y-92604403D01*
X153083601Y-92592667D01*
X153059776Y-92585440D01*
X153035000Y-92583000D01*
X153010224Y-92585440D01*
X152986399Y-92592667D01*
X152964443Y-92604403D01*
X152945197Y-92620197D01*
X151892000Y-93673394D01*
X151892000Y-92710000D01*
X151889560Y-92685224D01*
X151882333Y-92661399D01*
X151870597Y-92639443D01*
X151854803Y-92620197D01*
X151835557Y-92604403D01*
X151813601Y-92592667D01*
X151789776Y-92585440D01*
X151765000Y-92583000D01*
X151740224Y-92585440D01*
X151716399Y-92592667D01*
X151694443Y-92604403D01*
X151675197Y-92620197D01*
X150622000Y-93673394D01*
X150622000Y-92710000D01*
X150619560Y-92685224D01*
X150612333Y-92661399D01*
X150600597Y-92639443D01*
X150584803Y-92620197D01*
X150565557Y-92604403D01*
X150543601Y-92592667D01*
X150519776Y-92585440D01*
X150495000Y-92583000D01*
X150470224Y-92585440D01*
X150446399Y-92592667D01*
X150424443Y-92604403D01*
X150405197Y-92620197D01*
X149352000Y-93673394D01*
X149352000Y-92710000D01*
X149349560Y-92685224D01*
X149342333Y-92661399D01*
X149330597Y-92639443D01*
X149314803Y-92620197D01*
X149295557Y-92604403D01*
X149273601Y-92592667D01*
X149249776Y-92585440D01*
X149225000Y-92583000D01*
X149200224Y-92585440D01*
X149176399Y-92592667D01*
X149154443Y-92604403D01*
X149135197Y-92620197D01*
X148082000Y-93673394D01*
X148082000Y-92710000D01*
X148079560Y-92685224D01*
X148072333Y-92661399D01*
X148060597Y-92639443D01*
X148044803Y-92620197D01*
X148025557Y-92604403D01*
X148003601Y-92592667D01*
X147979776Y-92585440D01*
X147955000Y-92583000D01*
X147930224Y-92585440D01*
X147906399Y-92592667D01*
X147884443Y-92604403D01*
X147865197Y-92620197D01*
X147447000Y-93038394D01*
X147447000Y-92202000D01*
X169873394Y-92202000D01*
X168402000Y-93673394D01*
M02*
