%FSLAX45Y45*%
G04 Gerber Fmt 4.5, Leading zero omitted, Abs format (unit mm)*
G04 Created by KiCad (PCBNEW 5.1.5+dfsg1-2build2) date 2020-11-19 08:55:22*
%MOMM*%
%LPD*%
G04 APERTURE LIST*
%TA.AperFunction,Profile*%
%ADD10C,0.150000*%
%TD*%
%ADD11C,0.200000*%
%ADD12C,0.300000*%
G04 APERTURE END LIST*
D10*
X17970500Y-12954000D02*
G75*
G03X18034000Y-12890500I0J63500D01*
G01*
X11430000Y-12890500D02*
G75*
G03X11493500Y-12954000I63500J0D01*
G01*
X11493500Y-7620000D02*
G75*
G03X11430000Y-7683500I0J-63500D01*
G01*
X17907000Y-7620000D02*
X11493500Y-7620000D01*
X18034000Y-7747000D02*
X17907000Y-7620000D01*
X18034000Y-8890000D02*
X18034000Y-7747000D01*
X18288000Y-9144000D02*
X18034000Y-8890000D01*
X18288000Y-12446000D02*
X18288000Y-9144000D01*
X18034000Y-12700000D02*
X18288000Y-12446000D01*
X18034000Y-12890500D02*
X18034000Y-12700000D01*
X11493500Y-12954000D02*
X17970500Y-12954000D01*
X11430000Y-7683500D02*
X11430000Y-12890500D01*
D11*
X11600500Y-10775000D02*
X11640500Y-10815000D01*
X11640500Y-10775000D02*
X11600500Y-10815000D01*
X11600500Y-11092500D02*
X11640500Y-11132500D01*
X11640500Y-11092500D02*
X11600500Y-11132500D01*
X11600500Y-11410000D02*
X11640500Y-11450000D01*
X11640500Y-11410000D02*
X11600500Y-11450000D01*
X11854500Y-7790500D02*
X11894500Y-7830500D01*
X11894500Y-7790500D02*
X11854500Y-7830500D01*
X11854500Y-10775000D02*
X11894500Y-10815000D01*
X11894500Y-10775000D02*
X11854500Y-10815000D01*
X11854500Y-11410000D02*
X11894500Y-11450000D01*
X11894500Y-11410000D02*
X11854500Y-11450000D01*
X11921451Y-9056311D02*
X11961451Y-9096311D01*
X11961451Y-9056311D02*
X11921451Y-9096311D01*
X11981500Y-8806500D02*
X12021500Y-8846500D01*
X12021500Y-8806500D02*
X11981500Y-8846500D01*
X12108500Y-11092500D02*
X12148500Y-11132500D01*
X12148500Y-11092500D02*
X12108500Y-11132500D01*
X12108500Y-11410000D02*
X12148500Y-11450000D01*
X12148500Y-11410000D02*
X12108500Y-11450000D01*
X12172000Y-10648000D02*
X12212000Y-10688000D01*
X12212000Y-10648000D02*
X12172000Y-10688000D01*
X12235500Y-10267000D02*
X12275500Y-10307000D01*
X12275500Y-10267000D02*
X12235500Y-10307000D01*
X12553000Y-10394000D02*
X12593000Y-10434000D01*
X12593000Y-10394000D02*
X12553000Y-10434000D01*
X12616500Y-8425500D02*
X12656500Y-8465500D01*
X12656500Y-8425500D02*
X12616500Y-8465500D01*
X12616500Y-9124000D02*
X12656500Y-9164000D01*
X12656500Y-9124000D02*
X12616500Y-9164000D01*
X12616500Y-9632000D02*
X12656500Y-9672000D01*
X12656500Y-9632000D02*
X12616500Y-9672000D01*
X12616500Y-10711500D02*
X12656500Y-10751500D01*
X12656500Y-10711500D02*
X12616500Y-10751500D01*
X12997500Y-10775000D02*
X13037500Y-10815000D01*
X13037500Y-10775000D02*
X12997500Y-10815000D01*
X12997500Y-11092500D02*
X13037500Y-11132500D01*
X13037500Y-11092500D02*
X12997500Y-11132500D01*
X13124500Y-9759000D02*
X13164500Y-9799000D01*
X13164500Y-9759000D02*
X13124500Y-9799000D01*
X13251500Y-10775000D02*
X13291500Y-10815000D01*
X13291500Y-10775000D02*
X13251500Y-10815000D01*
X13251500Y-11410000D02*
X13291500Y-11450000D01*
X13291500Y-11410000D02*
X13251500Y-11450000D01*
X13376411Y-11794137D02*
X13416411Y-11834137D01*
X13416411Y-11794137D02*
X13376411Y-11834137D01*
X13505500Y-9505000D02*
X13545500Y-9545000D01*
X13545500Y-9505000D02*
X13505500Y-9545000D01*
X13505500Y-10775000D02*
X13545500Y-10815000D01*
X13545500Y-10775000D02*
X13505500Y-10815000D01*
X13505500Y-11092500D02*
X13545500Y-11132500D01*
X13545500Y-11092500D02*
X13505500Y-11132500D01*
X13505500Y-11410000D02*
X13545500Y-11450000D01*
X13545500Y-11410000D02*
X13505500Y-11450000D01*
X13569000Y-12362500D02*
X13609000Y-12402500D01*
X13609000Y-12362500D02*
X13569000Y-12402500D01*
X13632500Y-9505000D02*
X13672500Y-9545000D01*
X13672500Y-9505000D02*
X13632500Y-9545000D01*
X13949605Y-9251026D02*
X13989605Y-9291026D01*
X13989605Y-9251026D02*
X13949605Y-9291026D01*
X14203385Y-9504806D02*
X14243385Y-9544806D01*
X14243385Y-9504806D02*
X14203385Y-9544806D01*
X14203913Y-9251803D02*
X14243913Y-9291803D01*
X14243913Y-9251803D02*
X14203913Y-9291803D01*
X14268692Y-11536307D02*
X14308692Y-11576307D01*
X14308692Y-11536307D02*
X14268692Y-11576307D01*
X14394500Y-12235500D02*
X14434500Y-12275500D01*
X14434500Y-12235500D02*
X14394500Y-12275500D01*
X14585000Y-9886000D02*
X14625000Y-9926000D01*
X14625000Y-9886000D02*
X14585000Y-9926000D01*
X14646821Y-8873121D02*
X14686821Y-8913121D01*
X14686821Y-8873121D02*
X14646821Y-8913121D01*
X14648500Y-10711500D02*
X14688500Y-10751500D01*
X14688500Y-10711500D02*
X14648500Y-10751500D01*
X14648500Y-11791000D02*
X14688500Y-11831000D01*
X14688500Y-11791000D02*
X14648500Y-11831000D01*
X14649221Y-10457638D02*
X14689221Y-10497638D01*
X14689221Y-10457638D02*
X14649221Y-10497638D01*
X14649221Y-12108468D02*
X14689221Y-12148468D01*
X14689221Y-12108468D02*
X14649221Y-12148468D01*
X14711055Y-10015063D02*
X14751055Y-10055063D01*
X14751055Y-10015063D02*
X14711055Y-10055063D01*
X14839524Y-10964302D02*
X14879524Y-11004302D01*
X14879524Y-10964302D02*
X14839524Y-11004302D01*
X14866500Y-11346500D02*
X14906500Y-11386500D01*
X14906500Y-11346500D02*
X14866500Y-11386500D01*
X14902500Y-8743000D02*
X14942500Y-8783000D01*
X14942500Y-8743000D02*
X14902500Y-8783000D01*
X14902500Y-9822500D02*
X14942500Y-9862500D01*
X14942500Y-9822500D02*
X14902500Y-9862500D01*
X15029500Y-11092500D02*
X15069500Y-11132500D01*
X15069500Y-11092500D02*
X15029500Y-11132500D01*
X15093000Y-9822500D02*
X15133000Y-9862500D01*
X15133000Y-9822500D02*
X15093000Y-9862500D01*
X15153557Y-10329097D02*
X15193557Y-10369097D01*
X15193557Y-10329097D02*
X15153557Y-10369097D01*
X15400500Y-9886000D02*
X15440500Y-9926000D01*
X15440500Y-9886000D02*
X15400500Y-9926000D01*
X15474000Y-9505000D02*
X15514000Y-9545000D01*
X15514000Y-9505000D02*
X15474000Y-9545000D01*
X15537500Y-11219500D02*
X15577500Y-11259500D01*
X15577500Y-11219500D02*
X15537500Y-11259500D01*
X15537500Y-11600500D02*
X15577500Y-11640500D01*
X15577500Y-11600500D02*
X15537500Y-11640500D01*
X15728000Y-10775000D02*
X15768000Y-10815000D01*
X15768000Y-10775000D02*
X15728000Y-10815000D01*
X15918500Y-9949500D02*
X15958500Y-9989500D01*
X15958500Y-9949500D02*
X15918500Y-9989500D01*
X15979697Y-9508401D02*
X16019697Y-9548401D01*
X16019697Y-9508401D02*
X15979697Y-9548401D01*
X16108635Y-9508401D02*
X16148635Y-9548401D01*
X16148635Y-9508401D02*
X16108635Y-9548401D01*
X16109000Y-9822500D02*
X16149000Y-9862500D01*
X16149000Y-9822500D02*
X16109000Y-9862500D01*
X16109934Y-9950829D02*
X16149934Y-9990829D01*
X16149934Y-9950829D02*
X16109934Y-9990829D01*
X16237573Y-9508401D02*
X16277573Y-9548401D01*
X16277573Y-9508401D02*
X16237573Y-9548401D01*
X16289897Y-11148965D02*
X16329897Y-11188965D01*
X16329897Y-11148965D02*
X16289897Y-11188965D01*
X16361428Y-10649600D02*
X16401428Y-10689600D01*
X16401428Y-10649600D02*
X16361428Y-10689600D01*
X16363000Y-11854500D02*
X16403000Y-11894500D01*
X16403000Y-11854500D02*
X16363000Y-11894500D01*
X16363000Y-11981500D02*
X16403000Y-12021500D01*
X16403000Y-11981500D02*
X16363000Y-12021500D01*
X16363000Y-12108500D02*
X16403000Y-12148500D01*
X16403000Y-12108500D02*
X16363000Y-12148500D01*
X16366511Y-9508401D02*
X16406511Y-9548401D01*
X16406511Y-9508401D02*
X16366511Y-9548401D01*
X16490000Y-11600500D02*
X16530000Y-11640500D01*
X16530000Y-11600500D02*
X16490000Y-11640500D01*
X16570000Y-10896687D02*
X16610000Y-10936687D01*
X16610000Y-10896687D02*
X16570000Y-10936687D01*
X16617224Y-9121588D02*
X16657224Y-9161588D01*
X16657224Y-9121588D02*
X16617224Y-9161588D01*
X16681693Y-8999813D02*
X16721693Y-9039813D01*
X16721693Y-8999813D02*
X16681693Y-9039813D01*
X16744000Y-11156000D02*
X16784000Y-11196000D01*
X16784000Y-11156000D02*
X16744000Y-11196000D01*
X16867936Y-8233349D02*
X16907936Y-8273349D01*
X16907936Y-8233349D02*
X16867936Y-8273349D01*
X16867936Y-8362287D02*
X16907936Y-8402287D01*
X16907936Y-8362287D02*
X16867936Y-8402287D01*
X16998000Y-11156000D02*
X17038000Y-11196000D01*
X17038000Y-11156000D02*
X16998000Y-11196000D01*
X17061343Y-8491225D02*
X17101343Y-8531225D01*
X17101343Y-8491225D02*
X17061343Y-8531225D01*
X17061500Y-11854500D02*
X17101500Y-11894500D01*
X17101500Y-11854500D02*
X17061500Y-11894500D01*
X17123919Y-8235242D02*
X17163919Y-8275242D01*
X17163919Y-8235242D02*
X17123919Y-8275242D01*
X17125753Y-12173455D02*
X17165753Y-12213455D01*
X17165753Y-12173455D02*
X17125753Y-12213455D01*
X17125753Y-12278456D02*
X17165753Y-12318456D01*
X17165753Y-12278456D02*
X17125753Y-12318456D01*
X17188500Y-11727500D02*
X17228500Y-11767500D01*
X17228500Y-11727500D02*
X17188500Y-11767500D01*
X17190281Y-8491225D02*
X17230281Y-8531225D01*
X17230281Y-8491225D02*
X17190281Y-8531225D01*
X17252000Y-10775000D02*
X17292000Y-10815000D01*
X17292000Y-10775000D02*
X17252000Y-10815000D01*
X17377441Y-12498837D02*
X17417441Y-12538837D01*
X17417441Y-12498837D02*
X17377441Y-12538837D01*
X17379000Y-8235000D02*
X17419000Y-8275000D01*
X17419000Y-8235000D02*
X17379000Y-8275000D01*
X17379000Y-12172000D02*
X17419000Y-12212000D01*
X17419000Y-12172000D02*
X17379000Y-12212000D01*
X17442500Y-9695500D02*
X17482500Y-9735500D01*
X17482500Y-9695500D02*
X17442500Y-9735500D01*
X17442500Y-11092500D02*
X17482500Y-11132500D01*
X17482500Y-11092500D02*
X17442500Y-11132500D01*
X17505463Y-8999813D02*
X17545463Y-9039813D01*
X17545463Y-8999813D02*
X17505463Y-9039813D01*
X17505463Y-9121588D02*
X17545463Y-9161588D01*
X17545463Y-9121588D02*
X17505463Y-9161588D01*
X17506000Y-9251000D02*
X17546000Y-9291000D01*
X17546000Y-9251000D02*
X17506000Y-9291000D01*
X17569500Y-11092500D02*
X17609500Y-11132500D01*
X17609500Y-11092500D02*
X17569500Y-11132500D01*
X17696500Y-11219500D02*
X17736500Y-11259500D01*
X17736500Y-11219500D02*
X17696500Y-11259500D01*
X17887000Y-8997000D02*
X17927000Y-9037000D01*
X17927000Y-8997000D02*
X17887000Y-9037000D01*
X18077500Y-11473500D02*
X18117500Y-11513500D01*
X18117500Y-11473500D02*
X18077500Y-11513500D01*
X13121000Y-8763000D02*
G75*
G03X13121000Y-8763000I-40000J0D01*
G01*
X13609000Y-8763000D02*
G75*
G03X13609000Y-8763000I-40000J0D01*
G01*
X15915000Y-10160000D02*
G75*
G03X15915000Y-10160000I-40000J0D01*
G01*
X16403000Y-10160000D02*
G75*
G03X16403000Y-10160000I-40000J0D01*
G01*
X12081000Y-9005000D02*
X12081000Y-9086000D01*
X12040500Y-9045500D02*
X12121500Y-9045500D01*
X12081000Y-9259000D02*
X12081000Y-9340000D01*
X12040500Y-9299500D02*
X12121500Y-9299500D01*
X12281000Y-9005000D02*
X12281000Y-9086000D01*
X12240500Y-9045500D02*
X12321500Y-9045500D01*
X12281000Y-9259000D02*
X12281000Y-9340000D01*
X12240500Y-9299500D02*
X12321500Y-9299500D01*
X12989356Y-10322356D02*
X12989356Y-10251644D01*
X12918644Y-10251644D01*
X12918644Y-10322356D01*
X12989356Y-10322356D01*
X13243356Y-10322356D02*
X13243356Y-10251644D01*
X13172644Y-10251644D01*
X13172644Y-10322356D01*
X13243356Y-10322356D01*
X13497356Y-10322356D02*
X13497356Y-10251644D01*
X13426644Y-10251644D01*
X13426644Y-10322356D01*
X13497356Y-10322356D01*
X13751356Y-10322356D02*
X13751356Y-10251644D01*
X13680644Y-10251644D01*
X13680644Y-10322356D01*
X13751356Y-10322356D01*
X14005356Y-10322356D02*
X14005356Y-10251644D01*
X13934644Y-10251644D01*
X13934644Y-10322356D01*
X14005356Y-10322356D01*
X14259356Y-10322356D02*
X14259356Y-10251644D01*
X14188644Y-10251644D01*
X14188644Y-10322356D01*
X14259356Y-10322356D01*
X16545356Y-12735356D02*
X16545356Y-12664644D01*
X16474644Y-12664644D01*
X16474644Y-12735356D01*
X16545356Y-12735356D01*
X16799356Y-12735356D02*
X16799356Y-12664644D01*
X16728644Y-12664644D01*
X16728644Y-12735356D01*
X16799356Y-12735356D01*
X17053356Y-12735356D02*
X17053356Y-12664644D01*
X16982644Y-12664644D01*
X16982644Y-12735356D01*
X17053356Y-12735356D01*
X17307356Y-12735356D02*
X17307356Y-12664644D01*
X17236644Y-12664644D01*
X17236644Y-12735356D01*
X17307356Y-12735356D01*
X17561356Y-12735356D02*
X17561356Y-12664644D01*
X17490644Y-12664644D01*
X17490644Y-12735356D01*
X17561356Y-12735356D01*
X17815356Y-12735356D02*
X17815356Y-12664644D01*
X17744644Y-12664644D01*
X17744644Y-12735356D01*
X17815356Y-12735356D01*
X13370356Y-7909356D02*
X13370356Y-7838644D01*
X13299644Y-7838644D01*
X13299644Y-7909356D01*
X13370356Y-7909356D01*
X13624356Y-7909356D02*
X13624356Y-7838644D01*
X13553644Y-7838644D01*
X13553644Y-7909356D01*
X13624356Y-7909356D01*
X13878356Y-7909356D02*
X13878356Y-7838644D01*
X13807644Y-7838644D01*
X13807644Y-7909356D01*
X13878356Y-7909356D01*
X14132356Y-7909356D02*
X14132356Y-7838644D01*
X14061644Y-7838644D01*
X14061644Y-7909356D01*
X14132356Y-7909356D01*
X14386356Y-7909356D02*
X14386356Y-7838644D01*
X14315644Y-7838644D01*
X14315644Y-7909356D01*
X14386356Y-7909356D01*
X14640356Y-7909356D02*
X14640356Y-7838644D01*
X14569644Y-7838644D01*
X14569644Y-7909356D01*
X14640356Y-7909356D01*
X14894356Y-7909356D02*
X14894356Y-7838644D01*
X14823644Y-7838644D01*
X14823644Y-7909356D01*
X14894356Y-7909356D01*
X15148356Y-7909356D02*
X15148356Y-7838644D01*
X15077644Y-7838644D01*
X15077644Y-7909356D01*
X15148356Y-7909356D01*
X15402356Y-7909356D02*
X15402356Y-7838644D01*
X15331644Y-7838644D01*
X15331644Y-7909356D01*
X15402356Y-7909356D01*
X15656356Y-7909356D02*
X15656356Y-7838644D01*
X15585644Y-7838644D01*
X15585644Y-7909356D01*
X15656356Y-7909356D01*
X16037356Y-7909356D02*
X16037356Y-7838644D01*
X15966644Y-7838644D01*
X15966644Y-7909356D01*
X16037356Y-7909356D01*
X16291356Y-7909356D02*
X16291356Y-7838644D01*
X16220644Y-7838644D01*
X16220644Y-7909356D01*
X16291356Y-7909356D01*
X16545356Y-7909356D02*
X16545356Y-7838644D01*
X16474644Y-7838644D01*
X16474644Y-7909356D01*
X16545356Y-7909356D01*
X16799356Y-7909356D02*
X16799356Y-7838644D01*
X16728644Y-7838644D01*
X16728644Y-7909356D01*
X16799356Y-7909356D01*
X17053356Y-7909356D02*
X17053356Y-7838644D01*
X16982644Y-7838644D01*
X16982644Y-7909356D01*
X17053356Y-7909356D01*
X17307356Y-7909356D02*
X17307356Y-7838644D01*
X17236644Y-7838644D01*
X17236644Y-7909356D01*
X17307356Y-7909356D01*
X17561356Y-7909356D02*
X17561356Y-7838644D01*
X17490644Y-7838644D01*
X17490644Y-7909356D01*
X17561356Y-7909356D01*
X17815356Y-7909356D02*
X17815356Y-7838644D01*
X17744644Y-7838644D01*
X17744644Y-7909356D01*
X17815356Y-7909356D01*
X14259356Y-12735356D02*
X14259356Y-12664644D01*
X14188644Y-12664644D01*
X14188644Y-12735356D01*
X14259356Y-12735356D01*
X14513356Y-12735356D02*
X14513356Y-12664644D01*
X14442644Y-12664644D01*
X14442644Y-12735356D01*
X14513356Y-12735356D01*
X14767356Y-12735356D02*
X14767356Y-12664644D01*
X14696644Y-12664644D01*
X14696644Y-12735356D01*
X14767356Y-12735356D01*
X15021356Y-12735356D02*
X15021356Y-12664644D01*
X14950644Y-12664644D01*
X14950644Y-12735356D01*
X15021356Y-12735356D01*
X15275356Y-12735356D02*
X15275356Y-12664644D01*
X15204644Y-12664644D01*
X15204644Y-12735356D01*
X15275356Y-12735356D01*
X15529356Y-12735356D02*
X15529356Y-12664644D01*
X15458644Y-12664644D01*
X15458644Y-12735356D01*
X15529356Y-12735356D01*
X15783356Y-12735356D02*
X15783356Y-12664644D01*
X15712644Y-12664644D01*
X15712644Y-12735356D01*
X15783356Y-12735356D01*
X16037356Y-12735356D02*
X16037356Y-12664644D01*
X15966644Y-12664644D01*
X15966644Y-12735356D01*
X16037356Y-12735356D01*
X14513356Y-10957356D02*
X14513356Y-10886644D01*
X14442644Y-10886644D01*
X14442644Y-10957356D01*
X14513356Y-10957356D01*
X14513356Y-11211356D02*
X14513356Y-11140644D01*
X14442644Y-11140644D01*
X14442644Y-11211356D01*
X14513356Y-11211356D01*
X14513356Y-11465356D02*
X14513356Y-11394644D01*
X14442644Y-11394644D01*
X14442644Y-11465356D01*
X14513356Y-11465356D01*
X17815356Y-9941356D02*
X17815356Y-9870644D01*
X17744644Y-9870644D01*
X17744644Y-9941356D01*
X17815356Y-9941356D01*
X17815356Y-10195356D02*
X17815356Y-10124644D01*
X17744644Y-10124644D01*
X17744644Y-10195356D01*
X17815356Y-10195356D01*
X17815356Y-10449356D02*
X17815356Y-10378644D01*
X17744644Y-10378644D01*
X17744644Y-10449356D01*
X17815356Y-10449356D01*
X17815356Y-10703356D02*
X17815356Y-10632644D01*
X17744644Y-10632644D01*
X17744644Y-10703356D01*
X17815356Y-10703356D01*
X18069356Y-9941356D02*
X18069356Y-9870644D01*
X17998644Y-9870644D01*
X17998644Y-9941356D01*
X18069356Y-9941356D01*
X18069356Y-10195356D02*
X18069356Y-10124644D01*
X17998644Y-10124644D01*
X17998644Y-10195356D01*
X18069356Y-10195356D01*
X18069356Y-10449356D02*
X18069356Y-10378644D01*
X17998644Y-10378644D01*
X17998644Y-10449356D01*
X18069356Y-10449356D01*
X18069356Y-10703356D02*
X18069356Y-10632644D01*
X17998644Y-10632644D01*
X17998644Y-10703356D01*
X18069356Y-10703356D01*
X11938000Y-12179500D02*
X11989000Y-12128500D01*
X11938000Y-12077500D01*
X11887000Y-12128500D01*
X11938000Y-12179500D01*
X11897000Y-12052500D02*
X11897000Y-12204500D01*
X11979000Y-12052500D02*
X11979000Y-12204500D01*
X11897000Y-12204500D02*
G75*
G03X11979000Y-12204500I41000J0D01*
G01*
X11979000Y-12052500D02*
G75*
G03X11897000Y-12052500I-41000J0D01*
G01*
X12243000Y-12687500D02*
X12294000Y-12636500D01*
X12243000Y-12585500D01*
X12192000Y-12636500D01*
X12243000Y-12687500D01*
X12167000Y-12677500D02*
X12319000Y-12677500D01*
X12167000Y-12595500D02*
X12319000Y-12595500D01*
X12319000Y-12677500D02*
G75*
G03X12319000Y-12595500I0J41000D01*
G01*
X12167000Y-12595500D02*
G75*
G03X12167000Y-12677500I0J-41000D01*
G01*
X12548000Y-12179500D02*
X12599000Y-12128500D01*
X12548000Y-12077500D01*
X12497000Y-12128500D01*
X12548000Y-12179500D01*
X12507000Y-12052500D02*
X12507000Y-12204500D01*
X12589000Y-12052500D02*
X12589000Y-12204500D01*
X12507000Y-12204500D02*
G75*
G03X12589000Y-12204500I41000J0D01*
G01*
X12589000Y-12052500D02*
G75*
G03X12507000Y-12052500I-41000J0D01*
G01*
X11696000Y-8457500D02*
X11926000Y-8687500D01*
X11926000Y-8457500D02*
X11696000Y-8687500D01*
X11926000Y-8572500D02*
G75*
G03X11926000Y-8572500I-115000J0D01*
G01*
X11696000Y-9657500D02*
X11926000Y-9887500D01*
X11926000Y-9657500D02*
X11696000Y-9887500D01*
X11926000Y-9772500D02*
G75*
G03X11926000Y-9772500I-115000J0D01*
G01*
D12*
X11708928Y-13427214D02*
X11708928Y-13127214D01*
X11780357Y-13127214D01*
X11823214Y-13141500D01*
X11851786Y-13170071D01*
X11866071Y-13198643D01*
X11880357Y-13255786D01*
X11880357Y-13298643D01*
X11866071Y-13355786D01*
X11851786Y-13384357D01*
X11823214Y-13412929D01*
X11780357Y-13427214D01*
X11708928Y-13427214D01*
X12008928Y-13427214D02*
X12008928Y-13227214D01*
X12008928Y-13284357D02*
X12023214Y-13255786D01*
X12037500Y-13241500D01*
X12066071Y-13227214D01*
X12094643Y-13227214D01*
X12194643Y-13427214D02*
X12194643Y-13227214D01*
X12194643Y-13127214D02*
X12180357Y-13141500D01*
X12194643Y-13155786D01*
X12208928Y-13141500D01*
X12194643Y-13127214D01*
X12194643Y-13155786D01*
X12380357Y-13427214D02*
X12351786Y-13412929D01*
X12337500Y-13384357D01*
X12337500Y-13127214D01*
X12537500Y-13427214D02*
X12508928Y-13412929D01*
X12494643Y-13384357D01*
X12494643Y-13127214D01*
X12880357Y-13427214D02*
X12880357Y-13127214D01*
X12980357Y-13341500D01*
X13080357Y-13127214D01*
X13080357Y-13427214D01*
X13351786Y-13427214D02*
X13351786Y-13270071D01*
X13337500Y-13241500D01*
X13308928Y-13227214D01*
X13251786Y-13227214D01*
X13223214Y-13241500D01*
X13351786Y-13412929D02*
X13323214Y-13427214D01*
X13251786Y-13427214D01*
X13223214Y-13412929D01*
X13208928Y-13384357D01*
X13208928Y-13355786D01*
X13223214Y-13327214D01*
X13251786Y-13312929D01*
X13323214Y-13312929D01*
X13351786Y-13298643D01*
X13494643Y-13227214D02*
X13494643Y-13527214D01*
X13494643Y-13241500D02*
X13523214Y-13227214D01*
X13580357Y-13227214D01*
X13608928Y-13241500D01*
X13623214Y-13255786D01*
X13637500Y-13284357D01*
X13637500Y-13370071D01*
X13623214Y-13398643D01*
X13608928Y-13412929D01*
X13580357Y-13427214D01*
X13523214Y-13427214D01*
X13494643Y-13412929D01*
X13766071Y-13398643D02*
X13780357Y-13412929D01*
X13766071Y-13427214D01*
X13751786Y-13412929D01*
X13766071Y-13398643D01*
X13766071Y-13427214D01*
X13766071Y-13241500D02*
X13780357Y-13255786D01*
X13766071Y-13270071D01*
X13751786Y-13255786D01*
X13766071Y-13241500D01*
X13766071Y-13270071D01*
X11382500Y-13901500D02*
X11422500Y-13941500D01*
X11422500Y-13901500D02*
X11382500Y-13941500D01*
X11766071Y-13757214D02*
X11794643Y-13757214D01*
X11823214Y-13771500D01*
X11837500Y-13785786D01*
X11851786Y-13814357D01*
X11866071Y-13871500D01*
X11866071Y-13942929D01*
X11851786Y-14000071D01*
X11837500Y-14028643D01*
X11823214Y-14042929D01*
X11794643Y-14057214D01*
X11766071Y-14057214D01*
X11737500Y-14042929D01*
X11723214Y-14028643D01*
X11708928Y-14000071D01*
X11694643Y-13942929D01*
X11694643Y-13871500D01*
X11708928Y-13814357D01*
X11723214Y-13785786D01*
X11737500Y-13771500D01*
X11766071Y-13757214D01*
X11994643Y-14028643D02*
X12008928Y-14042929D01*
X11994643Y-14057214D01*
X11980357Y-14042929D01*
X11994643Y-14028643D01*
X11994643Y-14057214D01*
X12266071Y-13857214D02*
X12266071Y-14057214D01*
X12194643Y-13742929D02*
X12123214Y-13957214D01*
X12308928Y-13957214D01*
X12480357Y-13757214D02*
X12508928Y-13757214D01*
X12537500Y-13771500D01*
X12551786Y-13785786D01*
X12566071Y-13814357D01*
X12580357Y-13871500D01*
X12580357Y-13942929D01*
X12566071Y-14000071D01*
X12551786Y-14028643D01*
X12537500Y-14042929D01*
X12508928Y-14057214D01*
X12480357Y-14057214D01*
X12451786Y-14042929D01*
X12437500Y-14028643D01*
X12423214Y-14000071D01*
X12408928Y-13942929D01*
X12408928Y-13871500D01*
X12423214Y-13814357D01*
X12437500Y-13785786D01*
X12451786Y-13771500D01*
X12480357Y-13757214D01*
X12708928Y-14057214D02*
X12708928Y-13857214D01*
X12708928Y-13885786D02*
X12723214Y-13871500D01*
X12751786Y-13857214D01*
X12794643Y-13857214D01*
X12823214Y-13871500D01*
X12837500Y-13900071D01*
X12837500Y-14057214D01*
X12837500Y-13900071D02*
X12851786Y-13871500D01*
X12880357Y-13857214D01*
X12923214Y-13857214D01*
X12951786Y-13871500D01*
X12966071Y-13900071D01*
X12966071Y-14057214D01*
X13108928Y-14057214D02*
X13108928Y-13857214D01*
X13108928Y-13885786D02*
X13123214Y-13871500D01*
X13151786Y-13857214D01*
X13194643Y-13857214D01*
X13223214Y-13871500D01*
X13237500Y-13900071D01*
X13237500Y-14057214D01*
X13237500Y-13900071D02*
X13251786Y-13871500D01*
X13280357Y-13857214D01*
X13323214Y-13857214D01*
X13351786Y-13871500D01*
X13366071Y-13900071D01*
X13366071Y-14057214D01*
X13951786Y-13742929D02*
X13694643Y-14128643D01*
X14337500Y-13757214D02*
X14366071Y-13757214D01*
X14394643Y-13771500D01*
X14408928Y-13785786D01*
X14423214Y-13814357D01*
X14437500Y-13871500D01*
X14437500Y-13942929D01*
X14423214Y-14000071D01*
X14408928Y-14028643D01*
X14394643Y-14042929D01*
X14366071Y-14057214D01*
X14337500Y-14057214D01*
X14308928Y-14042929D01*
X14294643Y-14028643D01*
X14280357Y-14000071D01*
X14266071Y-13942929D01*
X14266071Y-13871500D01*
X14280357Y-13814357D01*
X14294643Y-13785786D01*
X14308928Y-13771500D01*
X14337500Y-13757214D01*
X14566071Y-14028643D02*
X14580357Y-14042929D01*
X14566071Y-14057214D01*
X14551786Y-14042929D01*
X14566071Y-14028643D01*
X14566071Y-14057214D01*
X14766071Y-13757214D02*
X14794643Y-13757214D01*
X14823214Y-13771500D01*
X14837500Y-13785786D01*
X14851786Y-13814357D01*
X14866071Y-13871500D01*
X14866071Y-13942929D01*
X14851786Y-14000071D01*
X14837500Y-14028643D01*
X14823214Y-14042929D01*
X14794643Y-14057214D01*
X14766071Y-14057214D01*
X14737500Y-14042929D01*
X14723214Y-14028643D01*
X14708928Y-14000071D01*
X14694643Y-13942929D01*
X14694643Y-13871500D01*
X14708928Y-13814357D01*
X14723214Y-13785786D01*
X14737500Y-13771500D01*
X14766071Y-13757214D01*
X15151786Y-14057214D02*
X14980357Y-14057214D01*
X15066071Y-14057214D02*
X15066071Y-13757214D01*
X15037500Y-13800071D01*
X15008928Y-13828643D01*
X14980357Y-13842929D01*
X15408928Y-13757214D02*
X15351786Y-13757214D01*
X15323214Y-13771500D01*
X15308928Y-13785786D01*
X15280357Y-13828643D01*
X15266071Y-13885786D01*
X15266071Y-14000071D01*
X15280357Y-14028643D01*
X15294643Y-14042929D01*
X15323214Y-14057214D01*
X15380357Y-14057214D01*
X15408928Y-14042929D01*
X15423214Y-14028643D01*
X15437500Y-14000071D01*
X15437500Y-13928643D01*
X15423214Y-13900071D01*
X15408928Y-13885786D01*
X15380357Y-13871500D01*
X15323214Y-13871500D01*
X15294643Y-13885786D01*
X15280357Y-13900071D01*
X15266071Y-13928643D01*
X15551786Y-13757214D02*
X15551786Y-13814357D01*
X15666071Y-13757214D02*
X15666071Y-13814357D01*
X16108928Y-14171500D02*
X16094643Y-14157214D01*
X16066071Y-14114357D01*
X16051786Y-14085786D01*
X16037500Y-14042929D01*
X16023214Y-13971500D01*
X16023214Y-13914357D01*
X16037500Y-13842929D01*
X16051786Y-13800071D01*
X16066071Y-13771500D01*
X16094643Y-13728643D01*
X16108928Y-13714357D01*
X16237500Y-14057214D02*
X16294643Y-14057214D01*
X16323214Y-14042929D01*
X16337500Y-14028643D01*
X16366071Y-13985786D01*
X16380357Y-13928643D01*
X16380357Y-13814357D01*
X16366071Y-13785786D01*
X16351786Y-13771500D01*
X16323214Y-13757214D01*
X16266071Y-13757214D01*
X16237500Y-13771500D01*
X16223214Y-13785786D01*
X16208928Y-13814357D01*
X16208928Y-13885786D01*
X16223214Y-13914357D01*
X16237500Y-13928643D01*
X16266071Y-13942929D01*
X16323214Y-13942929D01*
X16351786Y-13928643D01*
X16366071Y-13914357D01*
X16380357Y-13885786D01*
X16480357Y-13757214D02*
X16666071Y-13757214D01*
X16566071Y-13871500D01*
X16608928Y-13871500D01*
X16637500Y-13885786D01*
X16651786Y-13900071D01*
X16666071Y-13928643D01*
X16666071Y-14000071D01*
X16651786Y-14028643D01*
X16637500Y-14042929D01*
X16608928Y-14057214D01*
X16523214Y-14057214D01*
X16494643Y-14042929D01*
X16480357Y-14028643D01*
X17023214Y-14057214D02*
X17023214Y-13757214D01*
X17151786Y-14057214D02*
X17151786Y-13900071D01*
X17137500Y-13871500D01*
X17108928Y-13857214D01*
X17066071Y-13857214D01*
X17037500Y-13871500D01*
X17023214Y-13885786D01*
X17337500Y-14057214D02*
X17308928Y-14042929D01*
X17294643Y-14028643D01*
X17280357Y-14000071D01*
X17280357Y-13914357D01*
X17294643Y-13885786D01*
X17308928Y-13871500D01*
X17337500Y-13857214D01*
X17380357Y-13857214D01*
X17408928Y-13871500D01*
X17423214Y-13885786D01*
X17437500Y-13914357D01*
X17437500Y-14000071D01*
X17423214Y-14028643D01*
X17408928Y-14042929D01*
X17380357Y-14057214D01*
X17337500Y-14057214D01*
X17608928Y-14057214D02*
X17580357Y-14042929D01*
X17566071Y-14014357D01*
X17566071Y-13757214D01*
X17837500Y-14042929D02*
X17808928Y-14057214D01*
X17751786Y-14057214D01*
X17723214Y-14042929D01*
X17708928Y-14014357D01*
X17708928Y-13900071D01*
X17723214Y-13871500D01*
X17751786Y-13857214D01*
X17808928Y-13857214D01*
X17837500Y-13871500D01*
X17851786Y-13900071D01*
X17851786Y-13928643D01*
X17708928Y-13957214D01*
X17966071Y-14042929D02*
X17994643Y-14057214D01*
X18051786Y-14057214D01*
X18080357Y-14042929D01*
X18094643Y-14014357D01*
X18094643Y-14000071D01*
X18080357Y-13971500D01*
X18051786Y-13957214D01*
X18008928Y-13957214D01*
X17980357Y-13942929D01*
X17966071Y-13914357D01*
X17966071Y-13900071D01*
X17980357Y-13871500D01*
X18008928Y-13857214D01*
X18051786Y-13857214D01*
X18080357Y-13871500D01*
X18194643Y-14171500D02*
X18208928Y-14157214D01*
X18237500Y-14114357D01*
X18251786Y-14085786D01*
X18266071Y-14042929D01*
X18280357Y-13971500D01*
X18280357Y-13914357D01*
X18266071Y-13842929D01*
X18251786Y-13800071D01*
X18237500Y-13771500D01*
X18208928Y-13728643D01*
X18194643Y-13714357D01*
X11422500Y-14317500D02*
G75*
G03X11422500Y-14317500I-40000J0D01*
G01*
X11766071Y-14153214D02*
X11794643Y-14153214D01*
X11823214Y-14167500D01*
X11837500Y-14181786D01*
X11851786Y-14210357D01*
X11866071Y-14267500D01*
X11866071Y-14338929D01*
X11851786Y-14396071D01*
X11837500Y-14424643D01*
X11823214Y-14438929D01*
X11794643Y-14453214D01*
X11766071Y-14453214D01*
X11737500Y-14438929D01*
X11723214Y-14424643D01*
X11708928Y-14396071D01*
X11694643Y-14338929D01*
X11694643Y-14267500D01*
X11708928Y-14210357D01*
X11723214Y-14181786D01*
X11737500Y-14167500D01*
X11766071Y-14153214D01*
X11994643Y-14424643D02*
X12008928Y-14438929D01*
X11994643Y-14453214D01*
X11980357Y-14438929D01*
X11994643Y-14424643D01*
X11994643Y-14453214D01*
X12180357Y-14281786D02*
X12151786Y-14267500D01*
X12137500Y-14253214D01*
X12123214Y-14224643D01*
X12123214Y-14210357D01*
X12137500Y-14181786D01*
X12151786Y-14167500D01*
X12180357Y-14153214D01*
X12237500Y-14153214D01*
X12266071Y-14167500D01*
X12280357Y-14181786D01*
X12294643Y-14210357D01*
X12294643Y-14224643D01*
X12280357Y-14253214D01*
X12266071Y-14267500D01*
X12237500Y-14281786D01*
X12180357Y-14281786D01*
X12151786Y-14296071D01*
X12137500Y-14310357D01*
X12123214Y-14338929D01*
X12123214Y-14396071D01*
X12137500Y-14424643D01*
X12151786Y-14438929D01*
X12180357Y-14453214D01*
X12237500Y-14453214D01*
X12266071Y-14438929D01*
X12280357Y-14424643D01*
X12294643Y-14396071D01*
X12294643Y-14338929D01*
X12280357Y-14310357D01*
X12266071Y-14296071D01*
X12237500Y-14281786D01*
X12480357Y-14153214D02*
X12508928Y-14153214D01*
X12537500Y-14167500D01*
X12551786Y-14181786D01*
X12566071Y-14210357D01*
X12580357Y-14267500D01*
X12580357Y-14338929D01*
X12566071Y-14396071D01*
X12551786Y-14424643D01*
X12537500Y-14438929D01*
X12508928Y-14453214D01*
X12480357Y-14453214D01*
X12451786Y-14438929D01*
X12437500Y-14424643D01*
X12423214Y-14396071D01*
X12408928Y-14338929D01*
X12408928Y-14267500D01*
X12423214Y-14210357D01*
X12437500Y-14181786D01*
X12451786Y-14167500D01*
X12480357Y-14153214D01*
X12708928Y-14453214D02*
X12708928Y-14253214D01*
X12708928Y-14281786D02*
X12723214Y-14267500D01*
X12751786Y-14253214D01*
X12794643Y-14253214D01*
X12823214Y-14267500D01*
X12837500Y-14296071D01*
X12837500Y-14453214D01*
X12837500Y-14296071D02*
X12851786Y-14267500D01*
X12880357Y-14253214D01*
X12923214Y-14253214D01*
X12951786Y-14267500D01*
X12966071Y-14296071D01*
X12966071Y-14453214D01*
X13108928Y-14453214D02*
X13108928Y-14253214D01*
X13108928Y-14281786D02*
X13123214Y-14267500D01*
X13151786Y-14253214D01*
X13194643Y-14253214D01*
X13223214Y-14267500D01*
X13237500Y-14296071D01*
X13237500Y-14453214D01*
X13237500Y-14296071D02*
X13251786Y-14267500D01*
X13280357Y-14253214D01*
X13323214Y-14253214D01*
X13351786Y-14267500D01*
X13366071Y-14296071D01*
X13366071Y-14453214D01*
X13951786Y-14138929D02*
X13694643Y-14524643D01*
X14337500Y-14153214D02*
X14366071Y-14153214D01*
X14394643Y-14167500D01*
X14408928Y-14181786D01*
X14423214Y-14210357D01*
X14437500Y-14267500D01*
X14437500Y-14338929D01*
X14423214Y-14396071D01*
X14408928Y-14424643D01*
X14394643Y-14438929D01*
X14366071Y-14453214D01*
X14337500Y-14453214D01*
X14308928Y-14438929D01*
X14294643Y-14424643D01*
X14280357Y-14396071D01*
X14266071Y-14338929D01*
X14266071Y-14267500D01*
X14280357Y-14210357D01*
X14294643Y-14181786D01*
X14308928Y-14167500D01*
X14337500Y-14153214D01*
X14566071Y-14424643D02*
X14580357Y-14438929D01*
X14566071Y-14453214D01*
X14551786Y-14438929D01*
X14566071Y-14424643D01*
X14566071Y-14453214D01*
X14766071Y-14153214D02*
X14794643Y-14153214D01*
X14823214Y-14167500D01*
X14837500Y-14181786D01*
X14851786Y-14210357D01*
X14866071Y-14267500D01*
X14866071Y-14338929D01*
X14851786Y-14396071D01*
X14837500Y-14424643D01*
X14823214Y-14438929D01*
X14794643Y-14453214D01*
X14766071Y-14453214D01*
X14737500Y-14438929D01*
X14723214Y-14424643D01*
X14708928Y-14396071D01*
X14694643Y-14338929D01*
X14694643Y-14267500D01*
X14708928Y-14210357D01*
X14723214Y-14181786D01*
X14737500Y-14167500D01*
X14766071Y-14153214D01*
X14966071Y-14153214D02*
X15151786Y-14153214D01*
X15051786Y-14267500D01*
X15094643Y-14267500D01*
X15123214Y-14281786D01*
X15137500Y-14296071D01*
X15151786Y-14324643D01*
X15151786Y-14396071D01*
X15137500Y-14424643D01*
X15123214Y-14438929D01*
X15094643Y-14453214D01*
X15008928Y-14453214D01*
X14980357Y-14438929D01*
X14966071Y-14424643D01*
X15437500Y-14453214D02*
X15266071Y-14453214D01*
X15351786Y-14453214D02*
X15351786Y-14153214D01*
X15323214Y-14196071D01*
X15294643Y-14224643D01*
X15266071Y-14238929D01*
X15551786Y-14153214D02*
X15551786Y-14210357D01*
X15666071Y-14153214D02*
X15666071Y-14210357D01*
X16108928Y-14567500D02*
X16094643Y-14553214D01*
X16066071Y-14510357D01*
X16051786Y-14481786D01*
X16037500Y-14438929D01*
X16023214Y-14367500D01*
X16023214Y-14310357D01*
X16037500Y-14238929D01*
X16051786Y-14196071D01*
X16066071Y-14167500D01*
X16094643Y-14124643D01*
X16108928Y-14110357D01*
X16351786Y-14253214D02*
X16351786Y-14453214D01*
X16280357Y-14138929D02*
X16208928Y-14353214D01*
X16394643Y-14353214D01*
X16737500Y-14453214D02*
X16737500Y-14153214D01*
X16866071Y-14453214D02*
X16866071Y-14296071D01*
X16851786Y-14267500D01*
X16823214Y-14253214D01*
X16780357Y-14253214D01*
X16751786Y-14267500D01*
X16737500Y-14281786D01*
X17051786Y-14453214D02*
X17023214Y-14438929D01*
X17008928Y-14424643D01*
X16994643Y-14396071D01*
X16994643Y-14310357D01*
X17008928Y-14281786D01*
X17023214Y-14267500D01*
X17051786Y-14253214D01*
X17094643Y-14253214D01*
X17123214Y-14267500D01*
X17137500Y-14281786D01*
X17151786Y-14310357D01*
X17151786Y-14396071D01*
X17137500Y-14424643D01*
X17123214Y-14438929D01*
X17094643Y-14453214D01*
X17051786Y-14453214D01*
X17323214Y-14453214D02*
X17294643Y-14438929D01*
X17280357Y-14410357D01*
X17280357Y-14153214D01*
X17551786Y-14438929D02*
X17523214Y-14453214D01*
X17466071Y-14453214D01*
X17437500Y-14438929D01*
X17423214Y-14410357D01*
X17423214Y-14296071D01*
X17437500Y-14267500D01*
X17466071Y-14253214D01*
X17523214Y-14253214D01*
X17551786Y-14267500D01*
X17566071Y-14296071D01*
X17566071Y-14324643D01*
X17423214Y-14353214D01*
X17680357Y-14438929D02*
X17708928Y-14453214D01*
X17766071Y-14453214D01*
X17794643Y-14438929D01*
X17808928Y-14410357D01*
X17808928Y-14396071D01*
X17794643Y-14367500D01*
X17766071Y-14353214D01*
X17723214Y-14353214D01*
X17694643Y-14338929D01*
X17680357Y-14310357D01*
X17680357Y-14296071D01*
X17694643Y-14267500D01*
X17723214Y-14253214D01*
X17766071Y-14253214D01*
X17794643Y-14267500D01*
X17908928Y-14567500D02*
X17923214Y-14553214D01*
X17951786Y-14510357D01*
X17966071Y-14481786D01*
X17980357Y-14438929D01*
X17994643Y-14367500D01*
X17994643Y-14310357D01*
X17980357Y-14238929D01*
X17966071Y-14196071D01*
X17951786Y-14167500D01*
X17923214Y-14124643D01*
X17908928Y-14110357D01*
X11382000Y-14673000D02*
X11382000Y-14754000D01*
X11341500Y-14713500D02*
X11422500Y-14713500D01*
X11766071Y-14549214D02*
X11794643Y-14549214D01*
X11823214Y-14563500D01*
X11837500Y-14577786D01*
X11851786Y-14606357D01*
X11866071Y-14663500D01*
X11866071Y-14734929D01*
X11851786Y-14792071D01*
X11837500Y-14820643D01*
X11823214Y-14834929D01*
X11794643Y-14849214D01*
X11766071Y-14849214D01*
X11737500Y-14834929D01*
X11723214Y-14820643D01*
X11708928Y-14792071D01*
X11694643Y-14734929D01*
X11694643Y-14663500D01*
X11708928Y-14606357D01*
X11723214Y-14577786D01*
X11737500Y-14563500D01*
X11766071Y-14549214D01*
X11994643Y-14820643D02*
X12008928Y-14834929D01*
X11994643Y-14849214D01*
X11980357Y-14834929D01*
X11994643Y-14820643D01*
X11994643Y-14849214D01*
X12180357Y-14677786D02*
X12151786Y-14663500D01*
X12137500Y-14649214D01*
X12123214Y-14620643D01*
X12123214Y-14606357D01*
X12137500Y-14577786D01*
X12151786Y-14563500D01*
X12180357Y-14549214D01*
X12237500Y-14549214D01*
X12266071Y-14563500D01*
X12280357Y-14577786D01*
X12294643Y-14606357D01*
X12294643Y-14620643D01*
X12280357Y-14649214D01*
X12266071Y-14663500D01*
X12237500Y-14677786D01*
X12180357Y-14677786D01*
X12151786Y-14692071D01*
X12137500Y-14706357D01*
X12123214Y-14734929D01*
X12123214Y-14792071D01*
X12137500Y-14820643D01*
X12151786Y-14834929D01*
X12180357Y-14849214D01*
X12237500Y-14849214D01*
X12266071Y-14834929D01*
X12280357Y-14820643D01*
X12294643Y-14792071D01*
X12294643Y-14734929D01*
X12280357Y-14706357D01*
X12266071Y-14692071D01*
X12237500Y-14677786D01*
X12580357Y-14849214D02*
X12408928Y-14849214D01*
X12494643Y-14849214D02*
X12494643Y-14549214D01*
X12466071Y-14592071D01*
X12437500Y-14620643D01*
X12408928Y-14634929D01*
X12708928Y-14849214D02*
X12708928Y-14649214D01*
X12708928Y-14677786D02*
X12723214Y-14663500D01*
X12751786Y-14649214D01*
X12794643Y-14649214D01*
X12823214Y-14663500D01*
X12837500Y-14692071D01*
X12837500Y-14849214D01*
X12837500Y-14692071D02*
X12851786Y-14663500D01*
X12880357Y-14649214D01*
X12923214Y-14649214D01*
X12951786Y-14663500D01*
X12966071Y-14692071D01*
X12966071Y-14849214D01*
X13108928Y-14849214D02*
X13108928Y-14649214D01*
X13108928Y-14677786D02*
X13123214Y-14663500D01*
X13151786Y-14649214D01*
X13194643Y-14649214D01*
X13223214Y-14663500D01*
X13237500Y-14692071D01*
X13237500Y-14849214D01*
X13237500Y-14692071D02*
X13251786Y-14663500D01*
X13280357Y-14649214D01*
X13323214Y-14649214D01*
X13351786Y-14663500D01*
X13366071Y-14692071D01*
X13366071Y-14849214D01*
X13951786Y-14534929D02*
X13694643Y-14920643D01*
X14337500Y-14549214D02*
X14366071Y-14549214D01*
X14394643Y-14563500D01*
X14408928Y-14577786D01*
X14423214Y-14606357D01*
X14437500Y-14663500D01*
X14437500Y-14734929D01*
X14423214Y-14792071D01*
X14408928Y-14820643D01*
X14394643Y-14834929D01*
X14366071Y-14849214D01*
X14337500Y-14849214D01*
X14308928Y-14834929D01*
X14294643Y-14820643D01*
X14280357Y-14792071D01*
X14266071Y-14734929D01*
X14266071Y-14663500D01*
X14280357Y-14606357D01*
X14294643Y-14577786D01*
X14308928Y-14563500D01*
X14337500Y-14549214D01*
X14566071Y-14820643D02*
X14580357Y-14834929D01*
X14566071Y-14849214D01*
X14551786Y-14834929D01*
X14566071Y-14820643D01*
X14566071Y-14849214D01*
X14766071Y-14549214D02*
X14794643Y-14549214D01*
X14823214Y-14563500D01*
X14837500Y-14577786D01*
X14851786Y-14606357D01*
X14866071Y-14663500D01*
X14866071Y-14734929D01*
X14851786Y-14792071D01*
X14837500Y-14820643D01*
X14823214Y-14834929D01*
X14794643Y-14849214D01*
X14766071Y-14849214D01*
X14737500Y-14834929D01*
X14723214Y-14820643D01*
X14708928Y-14792071D01*
X14694643Y-14734929D01*
X14694643Y-14663500D01*
X14708928Y-14606357D01*
X14723214Y-14577786D01*
X14737500Y-14563500D01*
X14766071Y-14549214D01*
X14966071Y-14549214D02*
X15151786Y-14549214D01*
X15051786Y-14663500D01*
X15094643Y-14663500D01*
X15123214Y-14677786D01*
X15137500Y-14692071D01*
X15151786Y-14720643D01*
X15151786Y-14792071D01*
X15137500Y-14820643D01*
X15123214Y-14834929D01*
X15094643Y-14849214D01*
X15008928Y-14849214D01*
X14980357Y-14834929D01*
X14966071Y-14820643D01*
X15266071Y-14577786D02*
X15280357Y-14563500D01*
X15308928Y-14549214D01*
X15380357Y-14549214D01*
X15408928Y-14563500D01*
X15423214Y-14577786D01*
X15437500Y-14606357D01*
X15437500Y-14634929D01*
X15423214Y-14677786D01*
X15251786Y-14849214D01*
X15437500Y-14849214D01*
X15551786Y-14549214D02*
X15551786Y-14606357D01*
X15666071Y-14549214D02*
X15666071Y-14606357D01*
X16108928Y-14963500D02*
X16094643Y-14949214D01*
X16066071Y-14906357D01*
X16051786Y-14877786D01*
X16037500Y-14834929D01*
X16023214Y-14763500D01*
X16023214Y-14706357D01*
X16037500Y-14634929D01*
X16051786Y-14592071D01*
X16066071Y-14563500D01*
X16094643Y-14520643D01*
X16108928Y-14506357D01*
X16351786Y-14649214D02*
X16351786Y-14849214D01*
X16280357Y-14534929D02*
X16208928Y-14749214D01*
X16394643Y-14749214D01*
X16737500Y-14849214D02*
X16737500Y-14549214D01*
X16866071Y-14849214D02*
X16866071Y-14692071D01*
X16851786Y-14663500D01*
X16823214Y-14649214D01*
X16780357Y-14649214D01*
X16751786Y-14663500D01*
X16737500Y-14677786D01*
X17051786Y-14849214D02*
X17023214Y-14834929D01*
X17008928Y-14820643D01*
X16994643Y-14792071D01*
X16994643Y-14706357D01*
X17008928Y-14677786D01*
X17023214Y-14663500D01*
X17051786Y-14649214D01*
X17094643Y-14649214D01*
X17123214Y-14663500D01*
X17137500Y-14677786D01*
X17151786Y-14706357D01*
X17151786Y-14792071D01*
X17137500Y-14820643D01*
X17123214Y-14834929D01*
X17094643Y-14849214D01*
X17051786Y-14849214D01*
X17323214Y-14849214D02*
X17294643Y-14834929D01*
X17280357Y-14806357D01*
X17280357Y-14549214D01*
X17551786Y-14834929D02*
X17523214Y-14849214D01*
X17466071Y-14849214D01*
X17437500Y-14834929D01*
X17423214Y-14806357D01*
X17423214Y-14692071D01*
X17437500Y-14663500D01*
X17466071Y-14649214D01*
X17523214Y-14649214D01*
X17551786Y-14663500D01*
X17566071Y-14692071D01*
X17566071Y-14720643D01*
X17423214Y-14749214D01*
X17680357Y-14834929D02*
X17708928Y-14849214D01*
X17766071Y-14849214D01*
X17794643Y-14834929D01*
X17808928Y-14806357D01*
X17808928Y-14792071D01*
X17794643Y-14763500D01*
X17766071Y-14749214D01*
X17723214Y-14749214D01*
X17694643Y-14734929D01*
X17680357Y-14706357D01*
X17680357Y-14692071D01*
X17694643Y-14663500D01*
X17723214Y-14649214D01*
X17766071Y-14649214D01*
X17794643Y-14663500D01*
X17908928Y-14963500D02*
X17923214Y-14949214D01*
X17951786Y-14906357D01*
X17966071Y-14877786D01*
X17980357Y-14834929D01*
X17994643Y-14763500D01*
X17994643Y-14706357D01*
X17980357Y-14634929D01*
X17966071Y-14592071D01*
X17951786Y-14563500D01*
X17923214Y-14520643D01*
X17908928Y-14506357D01*
X11407856Y-15144856D02*
X11407856Y-15074144D01*
X11337144Y-15074144D01*
X11337144Y-15144856D01*
X11407856Y-15144856D01*
X11866071Y-15245214D02*
X11694643Y-15245214D01*
X11780357Y-15245214D02*
X11780357Y-14945214D01*
X11751786Y-14988071D01*
X11723214Y-15016643D01*
X11694643Y-15030929D01*
X11994643Y-15216643D02*
X12008928Y-15230929D01*
X11994643Y-15245214D01*
X11980357Y-15230929D01*
X11994643Y-15216643D01*
X11994643Y-15245214D01*
X12194643Y-14945214D02*
X12223214Y-14945214D01*
X12251786Y-14959500D01*
X12266071Y-14973786D01*
X12280357Y-15002357D01*
X12294643Y-15059500D01*
X12294643Y-15130929D01*
X12280357Y-15188071D01*
X12266071Y-15216643D01*
X12251786Y-15230929D01*
X12223214Y-15245214D01*
X12194643Y-15245214D01*
X12166071Y-15230929D01*
X12151786Y-15216643D01*
X12137500Y-15188071D01*
X12123214Y-15130929D01*
X12123214Y-15059500D01*
X12137500Y-15002357D01*
X12151786Y-14973786D01*
X12166071Y-14959500D01*
X12194643Y-14945214D01*
X12480357Y-14945214D02*
X12508928Y-14945214D01*
X12537500Y-14959500D01*
X12551786Y-14973786D01*
X12566071Y-15002357D01*
X12580357Y-15059500D01*
X12580357Y-15130929D01*
X12566071Y-15188071D01*
X12551786Y-15216643D01*
X12537500Y-15230929D01*
X12508928Y-15245214D01*
X12480357Y-15245214D01*
X12451786Y-15230929D01*
X12437500Y-15216643D01*
X12423214Y-15188071D01*
X12408928Y-15130929D01*
X12408928Y-15059500D01*
X12423214Y-15002357D01*
X12437500Y-14973786D01*
X12451786Y-14959500D01*
X12480357Y-14945214D01*
X12708928Y-15245214D02*
X12708928Y-15045214D01*
X12708928Y-15073786D02*
X12723214Y-15059500D01*
X12751786Y-15045214D01*
X12794643Y-15045214D01*
X12823214Y-15059500D01*
X12837500Y-15088071D01*
X12837500Y-15245214D01*
X12837500Y-15088071D02*
X12851786Y-15059500D01*
X12880357Y-15045214D01*
X12923214Y-15045214D01*
X12951786Y-15059500D01*
X12966071Y-15088071D01*
X12966071Y-15245214D01*
X13108928Y-15245214D02*
X13108928Y-15045214D01*
X13108928Y-15073786D02*
X13123214Y-15059500D01*
X13151786Y-15045214D01*
X13194643Y-15045214D01*
X13223214Y-15059500D01*
X13237500Y-15088071D01*
X13237500Y-15245214D01*
X13237500Y-15088071D02*
X13251786Y-15059500D01*
X13280357Y-15045214D01*
X13323214Y-15045214D01*
X13351786Y-15059500D01*
X13366071Y-15088071D01*
X13366071Y-15245214D01*
X13951786Y-14930929D02*
X13694643Y-15316643D01*
X14337500Y-14945214D02*
X14366071Y-14945214D01*
X14394643Y-14959500D01*
X14408928Y-14973786D01*
X14423214Y-15002357D01*
X14437500Y-15059500D01*
X14437500Y-15130929D01*
X14423214Y-15188071D01*
X14408928Y-15216643D01*
X14394643Y-15230929D01*
X14366071Y-15245214D01*
X14337500Y-15245214D01*
X14308928Y-15230929D01*
X14294643Y-15216643D01*
X14280357Y-15188071D01*
X14266071Y-15130929D01*
X14266071Y-15059500D01*
X14280357Y-15002357D01*
X14294643Y-14973786D01*
X14308928Y-14959500D01*
X14337500Y-14945214D01*
X14566071Y-15216643D02*
X14580357Y-15230929D01*
X14566071Y-15245214D01*
X14551786Y-15230929D01*
X14566071Y-15216643D01*
X14566071Y-15245214D01*
X14766071Y-14945214D02*
X14794643Y-14945214D01*
X14823214Y-14959500D01*
X14837500Y-14973786D01*
X14851786Y-15002357D01*
X14866071Y-15059500D01*
X14866071Y-15130929D01*
X14851786Y-15188071D01*
X14837500Y-15216643D01*
X14823214Y-15230929D01*
X14794643Y-15245214D01*
X14766071Y-15245214D01*
X14737500Y-15230929D01*
X14723214Y-15216643D01*
X14708928Y-15188071D01*
X14694643Y-15130929D01*
X14694643Y-15059500D01*
X14708928Y-15002357D01*
X14723214Y-14973786D01*
X14737500Y-14959500D01*
X14766071Y-14945214D01*
X14966071Y-14945214D02*
X15151786Y-14945214D01*
X15051786Y-15059500D01*
X15094643Y-15059500D01*
X15123214Y-15073786D01*
X15137500Y-15088071D01*
X15151786Y-15116643D01*
X15151786Y-15188071D01*
X15137500Y-15216643D01*
X15123214Y-15230929D01*
X15094643Y-15245214D01*
X15008928Y-15245214D01*
X14980357Y-15230929D01*
X14966071Y-15216643D01*
X15294643Y-15245214D02*
X15351786Y-15245214D01*
X15380357Y-15230929D01*
X15394643Y-15216643D01*
X15423214Y-15173786D01*
X15437500Y-15116643D01*
X15437500Y-15002357D01*
X15423214Y-14973786D01*
X15408928Y-14959500D01*
X15380357Y-14945214D01*
X15323214Y-14945214D01*
X15294643Y-14959500D01*
X15280357Y-14973786D01*
X15266071Y-15002357D01*
X15266071Y-15073786D01*
X15280357Y-15102357D01*
X15294643Y-15116643D01*
X15323214Y-15130929D01*
X15380357Y-15130929D01*
X15408928Y-15116643D01*
X15423214Y-15102357D01*
X15437500Y-15073786D01*
X15551786Y-14945214D02*
X15551786Y-15002357D01*
X15666071Y-14945214D02*
X15666071Y-15002357D01*
X16108928Y-15359500D02*
X16094643Y-15345214D01*
X16066071Y-15302357D01*
X16051786Y-15273786D01*
X16037500Y-15230929D01*
X16023214Y-15159500D01*
X16023214Y-15102357D01*
X16037500Y-15030929D01*
X16051786Y-14988071D01*
X16066071Y-14959500D01*
X16094643Y-14916643D01*
X16108928Y-14902357D01*
X16351786Y-15045214D02*
X16351786Y-15245214D01*
X16280357Y-14930929D02*
X16208928Y-15145214D01*
X16394643Y-15145214D01*
X16523214Y-15245214D02*
X16580357Y-15245214D01*
X16608928Y-15230929D01*
X16623214Y-15216643D01*
X16651786Y-15173786D01*
X16666071Y-15116643D01*
X16666071Y-15002357D01*
X16651786Y-14973786D01*
X16637500Y-14959500D01*
X16608928Y-14945214D01*
X16551786Y-14945214D01*
X16523214Y-14959500D01*
X16508928Y-14973786D01*
X16494643Y-15002357D01*
X16494643Y-15073786D01*
X16508928Y-15102357D01*
X16523214Y-15116643D01*
X16551786Y-15130929D01*
X16608928Y-15130929D01*
X16637500Y-15116643D01*
X16651786Y-15102357D01*
X16666071Y-15073786D01*
X17023214Y-15245214D02*
X17023214Y-14945214D01*
X17151786Y-15245214D02*
X17151786Y-15088071D01*
X17137500Y-15059500D01*
X17108928Y-15045214D01*
X17066071Y-15045214D01*
X17037500Y-15059500D01*
X17023214Y-15073786D01*
X17337500Y-15245214D02*
X17308928Y-15230929D01*
X17294643Y-15216643D01*
X17280357Y-15188071D01*
X17280357Y-15102357D01*
X17294643Y-15073786D01*
X17308928Y-15059500D01*
X17337500Y-15045214D01*
X17380357Y-15045214D01*
X17408928Y-15059500D01*
X17423214Y-15073786D01*
X17437500Y-15102357D01*
X17437500Y-15188071D01*
X17423214Y-15216643D01*
X17408928Y-15230929D01*
X17380357Y-15245214D01*
X17337500Y-15245214D01*
X17608928Y-15245214D02*
X17580357Y-15230929D01*
X17566071Y-15202357D01*
X17566071Y-14945214D01*
X17837500Y-15230929D02*
X17808928Y-15245214D01*
X17751786Y-15245214D01*
X17723214Y-15230929D01*
X17708928Y-15202357D01*
X17708928Y-15088071D01*
X17723214Y-15059500D01*
X17751786Y-15045214D01*
X17808928Y-15045214D01*
X17837500Y-15059500D01*
X17851786Y-15088071D01*
X17851786Y-15116643D01*
X17708928Y-15145214D01*
X17966071Y-15230929D02*
X17994643Y-15245214D01*
X18051786Y-15245214D01*
X18080357Y-15230929D01*
X18094643Y-15202357D01*
X18094643Y-15188071D01*
X18080357Y-15159500D01*
X18051786Y-15145214D01*
X18008928Y-15145214D01*
X17980357Y-15130929D01*
X17966071Y-15102357D01*
X17966071Y-15088071D01*
X17980357Y-15059500D01*
X18008928Y-15045214D01*
X18051786Y-15045214D01*
X18080357Y-15059500D01*
X18194643Y-15359500D02*
X18208928Y-15345214D01*
X18237500Y-15302357D01*
X18251786Y-15273786D01*
X18266071Y-15230929D01*
X18280357Y-15159500D01*
X18280357Y-15102357D01*
X18266071Y-15030929D01*
X18251786Y-14988071D01*
X18237500Y-14959500D01*
X18208928Y-14916643D01*
X18194643Y-14902357D01*
X11371500Y-15556500D02*
X11422500Y-15505500D01*
X11371500Y-15454500D01*
X11320500Y-15505500D01*
X11371500Y-15556500D01*
X11866071Y-15641214D02*
X11694643Y-15641214D01*
X11780357Y-15641214D02*
X11780357Y-15341214D01*
X11751786Y-15384071D01*
X11723214Y-15412643D01*
X11694643Y-15426929D01*
X11994643Y-15612643D02*
X12008928Y-15626929D01*
X11994643Y-15641214D01*
X11980357Y-15626929D01*
X11994643Y-15612643D01*
X11994643Y-15641214D01*
X12194643Y-15341214D02*
X12223214Y-15341214D01*
X12251786Y-15355500D01*
X12266071Y-15369786D01*
X12280357Y-15398357D01*
X12294643Y-15455500D01*
X12294643Y-15526929D01*
X12280357Y-15584071D01*
X12266071Y-15612643D01*
X12251786Y-15626929D01*
X12223214Y-15641214D01*
X12194643Y-15641214D01*
X12166071Y-15626929D01*
X12151786Y-15612643D01*
X12137500Y-15584071D01*
X12123214Y-15526929D01*
X12123214Y-15455500D01*
X12137500Y-15398357D01*
X12151786Y-15369786D01*
X12166071Y-15355500D01*
X12194643Y-15341214D01*
X12408928Y-15369786D02*
X12423214Y-15355500D01*
X12451786Y-15341214D01*
X12523214Y-15341214D01*
X12551786Y-15355500D01*
X12566071Y-15369786D01*
X12580357Y-15398357D01*
X12580357Y-15426929D01*
X12566071Y-15469786D01*
X12394643Y-15641214D01*
X12580357Y-15641214D01*
X12708928Y-15641214D02*
X12708928Y-15441214D01*
X12708928Y-15469786D02*
X12723214Y-15455500D01*
X12751786Y-15441214D01*
X12794643Y-15441214D01*
X12823214Y-15455500D01*
X12837500Y-15484071D01*
X12837500Y-15641214D01*
X12837500Y-15484071D02*
X12851786Y-15455500D01*
X12880357Y-15441214D01*
X12923214Y-15441214D01*
X12951786Y-15455500D01*
X12966071Y-15484071D01*
X12966071Y-15641214D01*
X13108928Y-15641214D02*
X13108928Y-15441214D01*
X13108928Y-15469786D02*
X13123214Y-15455500D01*
X13151786Y-15441214D01*
X13194643Y-15441214D01*
X13223214Y-15455500D01*
X13237500Y-15484071D01*
X13237500Y-15641214D01*
X13237500Y-15484071D02*
X13251786Y-15455500D01*
X13280357Y-15441214D01*
X13323214Y-15441214D01*
X13351786Y-15455500D01*
X13366071Y-15484071D01*
X13366071Y-15641214D01*
X13951786Y-15326929D02*
X13694643Y-15712643D01*
X14337500Y-15341214D02*
X14366071Y-15341214D01*
X14394643Y-15355500D01*
X14408928Y-15369786D01*
X14423214Y-15398357D01*
X14437500Y-15455500D01*
X14437500Y-15526929D01*
X14423214Y-15584071D01*
X14408928Y-15612643D01*
X14394643Y-15626929D01*
X14366071Y-15641214D01*
X14337500Y-15641214D01*
X14308928Y-15626929D01*
X14294643Y-15612643D01*
X14280357Y-15584071D01*
X14266071Y-15526929D01*
X14266071Y-15455500D01*
X14280357Y-15398357D01*
X14294643Y-15369786D01*
X14308928Y-15355500D01*
X14337500Y-15341214D01*
X14566071Y-15612643D02*
X14580357Y-15626929D01*
X14566071Y-15641214D01*
X14551786Y-15626929D01*
X14566071Y-15612643D01*
X14566071Y-15641214D01*
X14766071Y-15341214D02*
X14794643Y-15341214D01*
X14823214Y-15355500D01*
X14837500Y-15369786D01*
X14851786Y-15398357D01*
X14866071Y-15455500D01*
X14866071Y-15526929D01*
X14851786Y-15584071D01*
X14837500Y-15612643D01*
X14823214Y-15626929D01*
X14794643Y-15641214D01*
X14766071Y-15641214D01*
X14737500Y-15626929D01*
X14723214Y-15612643D01*
X14708928Y-15584071D01*
X14694643Y-15526929D01*
X14694643Y-15455500D01*
X14708928Y-15398357D01*
X14723214Y-15369786D01*
X14737500Y-15355500D01*
X14766071Y-15341214D01*
X15123214Y-15441214D02*
X15123214Y-15641214D01*
X15051786Y-15326929D02*
X14980357Y-15541214D01*
X15166071Y-15541214D01*
X15337500Y-15341214D02*
X15366071Y-15341214D01*
X15394643Y-15355500D01*
X15408928Y-15369786D01*
X15423214Y-15398357D01*
X15437500Y-15455500D01*
X15437500Y-15526929D01*
X15423214Y-15584071D01*
X15408928Y-15612643D01*
X15394643Y-15626929D01*
X15366071Y-15641214D01*
X15337500Y-15641214D01*
X15308928Y-15626929D01*
X15294643Y-15612643D01*
X15280357Y-15584071D01*
X15266071Y-15526929D01*
X15266071Y-15455500D01*
X15280357Y-15398357D01*
X15294643Y-15369786D01*
X15308928Y-15355500D01*
X15337500Y-15341214D01*
X15551786Y-15341214D02*
X15551786Y-15398357D01*
X15666071Y-15341214D02*
X15666071Y-15398357D01*
X16108928Y-15755500D02*
X16094643Y-15741214D01*
X16066071Y-15698357D01*
X16051786Y-15669786D01*
X16037500Y-15626929D01*
X16023214Y-15555500D01*
X16023214Y-15498357D01*
X16037500Y-15426929D01*
X16051786Y-15384071D01*
X16066071Y-15355500D01*
X16094643Y-15312643D01*
X16108928Y-15298357D01*
X16280357Y-15341214D02*
X16308928Y-15341214D01*
X16337500Y-15355500D01*
X16351786Y-15369786D01*
X16366071Y-15398357D01*
X16380357Y-15455500D01*
X16380357Y-15526929D01*
X16366071Y-15584071D01*
X16351786Y-15612643D01*
X16337500Y-15626929D01*
X16308928Y-15641214D01*
X16280357Y-15641214D01*
X16251786Y-15626929D01*
X16237500Y-15612643D01*
X16223214Y-15584071D01*
X16208928Y-15526929D01*
X16208928Y-15455500D01*
X16223214Y-15398357D01*
X16237500Y-15369786D01*
X16251786Y-15355500D01*
X16280357Y-15341214D01*
X16737500Y-15641214D02*
X16737500Y-15341214D01*
X16866071Y-15641214D02*
X16866071Y-15484071D01*
X16851786Y-15455500D01*
X16823214Y-15441214D01*
X16780357Y-15441214D01*
X16751786Y-15455500D01*
X16737500Y-15469786D01*
X17051786Y-15641214D02*
X17023214Y-15626929D01*
X17008928Y-15612643D01*
X16994643Y-15584071D01*
X16994643Y-15498357D01*
X17008928Y-15469786D01*
X17023214Y-15455500D01*
X17051786Y-15441214D01*
X17094643Y-15441214D01*
X17123214Y-15455500D01*
X17137500Y-15469786D01*
X17151786Y-15498357D01*
X17151786Y-15584071D01*
X17137500Y-15612643D01*
X17123214Y-15626929D01*
X17094643Y-15641214D01*
X17051786Y-15641214D01*
X17323214Y-15641214D02*
X17294643Y-15626929D01*
X17280357Y-15598357D01*
X17280357Y-15341214D01*
X17551786Y-15626929D02*
X17523214Y-15641214D01*
X17466071Y-15641214D01*
X17437500Y-15626929D01*
X17423214Y-15598357D01*
X17423214Y-15484071D01*
X17437500Y-15455500D01*
X17466071Y-15441214D01*
X17523214Y-15441214D01*
X17551786Y-15455500D01*
X17566071Y-15484071D01*
X17566071Y-15512643D01*
X17423214Y-15541214D01*
X17680357Y-15626929D02*
X17708928Y-15641214D01*
X17766071Y-15641214D01*
X17794643Y-15626929D01*
X17808928Y-15598357D01*
X17808928Y-15584071D01*
X17794643Y-15555500D01*
X17766071Y-15541214D01*
X17723214Y-15541214D01*
X17694643Y-15526929D01*
X17680357Y-15498357D01*
X17680357Y-15484071D01*
X17694643Y-15455500D01*
X17723214Y-15441214D01*
X17766071Y-15441214D01*
X17794643Y-15455500D01*
X18166071Y-15526929D02*
X18394643Y-15526929D01*
X18280357Y-15641214D02*
X18280357Y-15412643D01*
X18737500Y-15341214D02*
X18923214Y-15341214D01*
X18823214Y-15455500D01*
X18866071Y-15455500D01*
X18894643Y-15469786D01*
X18908928Y-15484071D01*
X18923214Y-15512643D01*
X18923214Y-15584071D01*
X18908928Y-15612643D01*
X18894643Y-15626929D01*
X18866071Y-15641214D01*
X18780357Y-15641214D01*
X18751786Y-15626929D01*
X18737500Y-15612643D01*
X19266071Y-15626929D02*
X19294643Y-15641214D01*
X19351786Y-15641214D01*
X19380357Y-15626929D01*
X19394643Y-15598357D01*
X19394643Y-15584071D01*
X19380357Y-15555500D01*
X19351786Y-15541214D01*
X19308928Y-15541214D01*
X19280357Y-15526929D01*
X19266071Y-15498357D01*
X19266071Y-15484071D01*
X19280357Y-15455500D01*
X19308928Y-15441214D01*
X19351786Y-15441214D01*
X19380357Y-15455500D01*
X19566071Y-15641214D02*
X19537500Y-15626929D01*
X19523214Y-15598357D01*
X19523214Y-15341214D01*
X19723214Y-15641214D02*
X19694643Y-15626929D01*
X19680357Y-15612643D01*
X19666071Y-15584071D01*
X19666071Y-15498357D01*
X19680357Y-15469786D01*
X19694643Y-15455500D01*
X19723214Y-15441214D01*
X19766071Y-15441214D01*
X19794643Y-15455500D01*
X19808928Y-15469786D01*
X19823214Y-15498357D01*
X19823214Y-15584071D01*
X19808928Y-15612643D01*
X19794643Y-15626929D01*
X19766071Y-15641214D01*
X19723214Y-15641214D01*
X19908928Y-15441214D02*
X20023214Y-15441214D01*
X19951786Y-15341214D02*
X19951786Y-15598357D01*
X19966071Y-15626929D01*
X19994643Y-15641214D01*
X20023214Y-15641214D01*
X20108928Y-15626929D02*
X20137500Y-15641214D01*
X20194643Y-15641214D01*
X20223214Y-15626929D01*
X20237500Y-15598357D01*
X20237500Y-15584071D01*
X20223214Y-15555500D01*
X20194643Y-15541214D01*
X20151786Y-15541214D01*
X20123214Y-15526929D01*
X20108928Y-15498357D01*
X20108928Y-15484071D01*
X20123214Y-15455500D01*
X20151786Y-15441214D01*
X20194643Y-15441214D01*
X20223214Y-15455500D01*
X20337500Y-15755500D02*
X20351786Y-15741214D01*
X20380357Y-15698357D01*
X20394643Y-15669786D01*
X20408928Y-15626929D01*
X20423214Y-15555500D01*
X20423214Y-15498357D01*
X20408928Y-15426929D01*
X20394643Y-15384071D01*
X20380357Y-15355500D01*
X20351786Y-15312643D01*
X20337500Y-15298357D01*
X11192500Y-15786500D02*
X11422500Y-16016500D01*
X11422500Y-15786500D02*
X11192500Y-16016500D01*
X11422500Y-15901500D02*
G75*
G03X11422500Y-15901500I-115000J0D01*
G01*
X11694643Y-15765786D02*
X11708928Y-15751500D01*
X11737500Y-15737214D01*
X11808928Y-15737214D01*
X11837500Y-15751500D01*
X11851786Y-15765786D01*
X11866071Y-15794357D01*
X11866071Y-15822929D01*
X11851786Y-15865786D01*
X11680357Y-16037214D01*
X11866071Y-16037214D01*
X11994643Y-16008643D02*
X12008928Y-16022929D01*
X11994643Y-16037214D01*
X11980357Y-16022929D01*
X11994643Y-16008643D01*
X11994643Y-16037214D01*
X12108928Y-15737214D02*
X12294643Y-15737214D01*
X12194643Y-15851500D01*
X12237500Y-15851500D01*
X12266071Y-15865786D01*
X12280357Y-15880071D01*
X12294643Y-15908643D01*
X12294643Y-15980071D01*
X12280357Y-16008643D01*
X12266071Y-16022929D01*
X12237500Y-16037214D01*
X12151786Y-16037214D01*
X12123214Y-16022929D01*
X12108928Y-16008643D01*
X12480357Y-15737214D02*
X12508928Y-15737214D01*
X12537500Y-15751500D01*
X12551786Y-15765786D01*
X12566071Y-15794357D01*
X12580357Y-15851500D01*
X12580357Y-15922929D01*
X12566071Y-15980071D01*
X12551786Y-16008643D01*
X12537500Y-16022929D01*
X12508928Y-16037214D01*
X12480357Y-16037214D01*
X12451786Y-16022929D01*
X12437500Y-16008643D01*
X12423214Y-15980071D01*
X12408928Y-15922929D01*
X12408928Y-15851500D01*
X12423214Y-15794357D01*
X12437500Y-15765786D01*
X12451786Y-15751500D01*
X12480357Y-15737214D01*
X12708928Y-16037214D02*
X12708928Y-15837214D01*
X12708928Y-15865786D02*
X12723214Y-15851500D01*
X12751786Y-15837214D01*
X12794643Y-15837214D01*
X12823214Y-15851500D01*
X12837500Y-15880071D01*
X12837500Y-16037214D01*
X12837500Y-15880071D02*
X12851786Y-15851500D01*
X12880357Y-15837214D01*
X12923214Y-15837214D01*
X12951786Y-15851500D01*
X12966071Y-15880071D01*
X12966071Y-16037214D01*
X13108928Y-16037214D02*
X13108928Y-15837214D01*
X13108928Y-15865786D02*
X13123214Y-15851500D01*
X13151786Y-15837214D01*
X13194643Y-15837214D01*
X13223214Y-15851500D01*
X13237500Y-15880071D01*
X13237500Y-16037214D01*
X13237500Y-15880071D02*
X13251786Y-15851500D01*
X13280357Y-15837214D01*
X13323214Y-15837214D01*
X13351786Y-15851500D01*
X13366071Y-15880071D01*
X13366071Y-16037214D01*
X13951786Y-15722929D02*
X13694643Y-16108643D01*
X14337500Y-15737214D02*
X14366071Y-15737214D01*
X14394643Y-15751500D01*
X14408928Y-15765786D01*
X14423214Y-15794357D01*
X14437500Y-15851500D01*
X14437500Y-15922929D01*
X14423214Y-15980071D01*
X14408928Y-16008643D01*
X14394643Y-16022929D01*
X14366071Y-16037214D01*
X14337500Y-16037214D01*
X14308928Y-16022929D01*
X14294643Y-16008643D01*
X14280357Y-15980071D01*
X14266071Y-15922929D01*
X14266071Y-15851500D01*
X14280357Y-15794357D01*
X14294643Y-15765786D01*
X14308928Y-15751500D01*
X14337500Y-15737214D01*
X14566071Y-16008643D02*
X14580357Y-16022929D01*
X14566071Y-16037214D01*
X14551786Y-16022929D01*
X14566071Y-16008643D01*
X14566071Y-16037214D01*
X14766071Y-15737214D02*
X14794643Y-15737214D01*
X14823214Y-15751500D01*
X14837500Y-15765786D01*
X14851786Y-15794357D01*
X14866071Y-15851500D01*
X14866071Y-15922929D01*
X14851786Y-15980071D01*
X14837500Y-16008643D01*
X14823214Y-16022929D01*
X14794643Y-16037214D01*
X14766071Y-16037214D01*
X14737500Y-16022929D01*
X14723214Y-16008643D01*
X14708928Y-15980071D01*
X14694643Y-15922929D01*
X14694643Y-15851500D01*
X14708928Y-15794357D01*
X14723214Y-15765786D01*
X14737500Y-15751500D01*
X14766071Y-15737214D01*
X15008928Y-16037214D02*
X15066071Y-16037214D01*
X15094643Y-16022929D01*
X15108928Y-16008643D01*
X15137500Y-15965786D01*
X15151786Y-15908643D01*
X15151786Y-15794357D01*
X15137500Y-15765786D01*
X15123214Y-15751500D01*
X15094643Y-15737214D01*
X15037500Y-15737214D01*
X15008928Y-15751500D01*
X14994643Y-15765786D01*
X14980357Y-15794357D01*
X14980357Y-15865786D01*
X14994643Y-15894357D01*
X15008928Y-15908643D01*
X15037500Y-15922929D01*
X15094643Y-15922929D01*
X15123214Y-15908643D01*
X15137500Y-15894357D01*
X15151786Y-15865786D01*
X15437500Y-16037214D02*
X15266071Y-16037214D01*
X15351786Y-16037214D02*
X15351786Y-15737214D01*
X15323214Y-15780071D01*
X15294643Y-15808643D01*
X15266071Y-15822929D01*
X15551786Y-15737214D02*
X15551786Y-15794357D01*
X15666071Y-15737214D02*
X15666071Y-15794357D01*
X16108928Y-16151500D02*
X16094643Y-16137214D01*
X16066071Y-16094357D01*
X16051786Y-16065786D01*
X16037500Y-16022929D01*
X16023214Y-15951500D01*
X16023214Y-15894357D01*
X16037500Y-15822929D01*
X16051786Y-15780071D01*
X16066071Y-15751500D01*
X16094643Y-15708643D01*
X16108928Y-15694357D01*
X16208928Y-15765786D02*
X16223214Y-15751500D01*
X16251786Y-15737214D01*
X16323214Y-15737214D01*
X16351786Y-15751500D01*
X16366071Y-15765786D01*
X16380357Y-15794357D01*
X16380357Y-15822929D01*
X16366071Y-15865786D01*
X16194643Y-16037214D01*
X16380357Y-16037214D01*
X16737500Y-16037214D02*
X16737500Y-15737214D01*
X16866071Y-16037214D02*
X16866071Y-15880071D01*
X16851786Y-15851500D01*
X16823214Y-15837214D01*
X16780357Y-15837214D01*
X16751786Y-15851500D01*
X16737500Y-15865786D01*
X17051786Y-16037214D02*
X17023214Y-16022929D01*
X17008928Y-16008643D01*
X16994643Y-15980071D01*
X16994643Y-15894357D01*
X17008928Y-15865786D01*
X17023214Y-15851500D01*
X17051786Y-15837214D01*
X17094643Y-15837214D01*
X17123214Y-15851500D01*
X17137500Y-15865786D01*
X17151786Y-15894357D01*
X17151786Y-15980071D01*
X17137500Y-16008643D01*
X17123214Y-16022929D01*
X17094643Y-16037214D01*
X17051786Y-16037214D01*
X17323214Y-16037214D02*
X17294643Y-16022929D01*
X17280357Y-15994357D01*
X17280357Y-15737214D01*
X17551786Y-16022929D02*
X17523214Y-16037214D01*
X17466071Y-16037214D01*
X17437500Y-16022929D01*
X17423214Y-15994357D01*
X17423214Y-15880071D01*
X17437500Y-15851500D01*
X17466071Y-15837214D01*
X17523214Y-15837214D01*
X17551786Y-15851500D01*
X17566071Y-15880071D01*
X17566071Y-15908643D01*
X17423214Y-15937214D01*
X17680357Y-16022929D02*
X17708928Y-16037214D01*
X17766071Y-16037214D01*
X17794643Y-16022929D01*
X17808928Y-15994357D01*
X17808928Y-15980071D01*
X17794643Y-15951500D01*
X17766071Y-15937214D01*
X17723214Y-15937214D01*
X17694643Y-15922929D01*
X17680357Y-15894357D01*
X17680357Y-15880071D01*
X17694643Y-15851500D01*
X17723214Y-15837214D01*
X17766071Y-15837214D01*
X17794643Y-15851500D01*
X17908928Y-16151500D02*
X17923214Y-16137214D01*
X17951786Y-16094357D01*
X17966071Y-16065786D01*
X17980357Y-16022929D01*
X17994643Y-15951500D01*
X17994643Y-15894357D01*
X17980357Y-15822929D01*
X17966071Y-15780071D01*
X17951786Y-15751500D01*
X17923214Y-15708643D01*
X17908928Y-15694357D01*
M02*
