M48
; DRILL file {KiCad 5.1.5+dfsg1-2build2} date Thu 19 Nov 2020 08:55:23 AM MST
; FORMAT={-:-/ absolute / inch / decimal}
; #@! TF.CreationDate,2020-11-19T08:55:23-07:00
; #@! TF.GenerationSoftware,Kicad,Pcbnew,5.1.5+dfsg1-2build2
; #@! TF.FileFunction,Plated,1,2,PTH
FMAT,2
INCH
T1C0.0157
T2C0.0315
T3C0.0319
T4C0.0394
T5C0.0402
T6C0.0906
%
G90
G05
T1
X4.575Y-4.25
X4.575Y-4.375
X4.575Y-4.5
X4.675Y-3.075
X4.675Y-4.25
X4.675Y-4.5
X4.7014Y-3.5734
X4.725Y-3.475
X4.775Y-4.375
X4.775Y-4.5
X4.8Y-4.2
X4.825Y-4.05
X4.95Y-4.1
X4.975Y-3.325
X4.975Y-3.6
X4.975Y-3.8
X4.975Y-4.225
X5.125Y-4.25
X5.125Y-4.375
X5.175Y-3.85
X5.225Y-4.25
X5.225Y-4.5
X5.2742Y-4.6512
X5.325Y-3.75
X5.325Y-4.25
X5.325Y-4.375
X5.325Y-4.5
X5.35Y-4.875
X5.375Y-3.75
X5.4998Y-3.65
X5.5998Y-3.7499
X5.6Y-3.6503
X5.6255Y-4.5497
X5.675Y-4.825
X5.75Y-3.9
X5.7743Y-3.5012
X5.775Y-4.225
X5.775Y-4.65
X5.7753Y-4.1251
X5.7753Y-4.775
X5.7996Y-3.9508
X5.8502Y-4.3245
X5.8608Y-4.475
X5.875Y-3.45
X5.875Y-3.875
X5.925Y-4.375
X5.95Y-3.875
X5.9738Y-4.0744
X6.0711Y-3.9
X6.1Y-3.75
X6.125Y-4.425
X6.125Y-4.575
X6.2Y-4.25
X6.275Y-3.925
X6.2991Y-3.7513
X6.3499Y-3.7513
X6.35Y-3.875
X6.3504Y-3.9255
X6.4006Y-3.7513
X6.4212Y-4.3972
X6.4494Y-4.2006
X6.45Y-4.675
X6.45Y-4.725
X6.45Y-4.775
X6.4514Y-3.7513
X6.5Y-4.575
X6.5315Y-4.2979
X6.5501Y-3.5991
X6.5755Y-3.5511
X6.6Y-4.4
X6.6488Y-3.2493
X6.6488Y-3.3001
X6.7Y-4.4
X6.7249Y-3.3509
X6.725Y-4.675
X6.7496Y-3.2501
X6.7503Y-4.8006
X6.7503Y-4.8419
X6.775Y-4.625
X6.7757Y-3.3509
X6.8Y-4.25
X6.8494Y-4.9287
X6.85Y-3.25
X6.85Y-4.8
X6.875Y-3.825
X6.875Y-4.375
X6.8998Y-3.5511
X6.8998Y-3.5991
X6.9Y-3.65
X6.925Y-4.375
X6.975Y-4.425
X7.05Y-3.55
X7.125Y-4.525
T2
X5.15Y-3.45
X5.3421Y-3.45
X6.25Y-4.0
X6.4421Y-4.0
T3
X4.7563Y-3.5612
X4.7563Y-3.6612
X4.835Y-3.5612
X4.835Y-3.6612
T4
X5.1Y-4.05
X5.2Y-4.05
X5.3Y-4.05
X5.4Y-4.05
X5.5Y-4.05
X5.6Y-4.05
X6.5Y-5.0
X6.6Y-5.0
X6.7Y-5.0
X6.8Y-5.0
X6.9Y-5.0
X7.0Y-5.0
X5.25Y-3.1
X5.35Y-3.1
X5.45Y-3.1
X5.55Y-3.1
X5.65Y-3.1
X5.75Y-3.1
X5.85Y-3.1
X5.95Y-3.1
X6.05Y-3.1
X6.15Y-3.1
X6.3Y-3.1
X6.4Y-3.1
X6.5Y-3.1
X6.6Y-3.1
X6.7Y-3.1
X6.8Y-3.1
X6.9Y-3.1
X7.0Y-3.1
X5.6Y-5.0
X5.7Y-5.0
X5.8Y-5.0
X5.9Y-5.0
X6.0Y-5.0
X6.1Y-5.0
X6.2Y-5.0
X6.3Y-5.0
X5.7Y-4.3
X5.7Y-4.4
X5.7Y-4.5
X7.0Y-3.9
X7.0Y-4.0
X7.0Y-4.1
X7.0Y-4.2
X7.1Y-3.9
X7.1Y-4.0
X7.1Y-4.1
X7.1Y-4.2
T6
X4.65Y-3.375
X4.65Y-3.8474
T5
G00X4.7Y-4.7451
M15
G01X4.7Y-4.8049
M16
G05
G00X4.7902Y-4.975
M15
G01X4.85Y-4.975
M16
G05
G00X4.9402Y-4.7451
M15
G01X4.9402Y-4.8049
M16
G05
T0
M30
