G04 #@! TF.GenerationSoftware,KiCad,Pcbnew,5.1.5+dfsg1-2build2*
G04 #@! TF.CreationDate,2020-11-19T08:55:39-07:00*
G04 #@! TF.ProjectId,sduino_uno,73647569-6e6f-45f7-956e-6f2e6b696361,2017-11-15*
G04 #@! TF.SameCoordinates,Original*
G04 #@! TF.FileFunction,Copper,L2,Bot*
G04 #@! TF.FilePolarity,Positive*
%FSLAX46Y46*%
G04 Gerber Fmt 4.6, Leading zero omitted, Abs format (unit mm)*
G04 Created by KiCad (PCBNEW 5.1.5+dfsg1-2build2) date 2020-11-19 08:55:39*
%MOMM*%
%LPD*%
G04 APERTURE LIST*
%ADD10O,3.300000X4.800000*%
%ADD11R,3.300000X4.800000*%
%ADD12O,4.800000X3.300000*%
%ADD13R,1.700000X1.700000*%
%ADD14O,1.700000X1.700000*%
%ADD15C,1.520000*%
%ADD16C,2.700000*%
%ADD17C,1.500000*%
%ADD18C,0.800000*%
%ADD19C,0.700000*%
%ADD20C,0.300000*%
%ADD21C,0.600000*%
%ADD22C,0.250000*%
%ADD23C,0.254000*%
G04 APERTURE END LIST*
D10*
X119380000Y-121285000D03*
D11*
X125480000Y-121285000D03*
D12*
X122430000Y-126365000D03*
D13*
X165100000Y-127000000D03*
D14*
X167640000Y-127000000D03*
X170180000Y-127000000D03*
X172720000Y-127000000D03*
X175260000Y-127000000D03*
X177800000Y-127000000D03*
D13*
X156210000Y-78740000D03*
D14*
X153670000Y-78740000D03*
X151130000Y-78740000D03*
X148590000Y-78740000D03*
X146050000Y-78740000D03*
X143510000Y-78740000D03*
X140970000Y-78740000D03*
X138430000Y-78740000D03*
X135890000Y-78740000D03*
X133350000Y-78740000D03*
D13*
X177800000Y-78740000D03*
D14*
X175260000Y-78740000D03*
X172720000Y-78740000D03*
X170180000Y-78740000D03*
X167640000Y-78740000D03*
X165100000Y-78740000D03*
X162560000Y-78740000D03*
X160020000Y-78740000D03*
D13*
X142240000Y-127000000D03*
D14*
X144780000Y-127000000D03*
X147320000Y-127000000D03*
X149860000Y-127000000D03*
X152400000Y-127000000D03*
X154940000Y-127000000D03*
X157480000Y-127000000D03*
X160020000Y-127000000D03*
D13*
X144780000Y-109220000D03*
D14*
X144780000Y-111760000D03*
X144780000Y-114300000D03*
D15*
X122810000Y-90455000D03*
X122810000Y-92995000D03*
X120810000Y-92995000D03*
X120810000Y-90455000D03*
D16*
X118110000Y-85725000D03*
X118110000Y-97725000D03*
D17*
X130810000Y-87630000D03*
X135690000Y-87630000D03*
X158750000Y-101600000D03*
X163630000Y-101600000D03*
D13*
X129540000Y-102870000D03*
D14*
X132080000Y-102870000D03*
X134620000Y-102870000D03*
X137160000Y-102870000D03*
D13*
X139700000Y-102870000D03*
D14*
X142240000Y-102870000D03*
D13*
X177800000Y-99060000D03*
D14*
X180340000Y-99060000D03*
X177800000Y-101600000D03*
X180340000Y-101600000D03*
X177800000Y-104140000D03*
X180340000Y-104140000D03*
X177800000Y-106680000D03*
X180340000Y-106680000D03*
D18*
X163814278Y-106696001D03*
X126365000Y-91440000D03*
X126365000Y-96520000D03*
X172720000Y-107950000D03*
X170180000Y-111760000D03*
X167640000Y-111760000D03*
X163098974Y-111689654D03*
X163830000Y-118745000D03*
X173990000Y-82550000D03*
X179070000Y-90170000D03*
X149225000Y-87630000D03*
X180975000Y-114935000D03*
X173990000Y-121920000D03*
X146685000Y-118110000D03*
X118745000Y-78105000D03*
X154940000Y-95250000D03*
X159385000Y-99695000D03*
X125730000Y-104140000D03*
X146050000Y-99060000D03*
X148595236Y-109843021D03*
X157480000Y-107950000D03*
X155575000Y-112395000D03*
X155575000Y-116205000D03*
X150495000Y-111125000D03*
X121920000Y-106680000D03*
X126365000Y-107315000D03*
X135890000Y-123825000D03*
X121285000Y-111125000D03*
X121285000Y-114300000D03*
X174625000Y-97155000D03*
X133964107Y-118141371D03*
X118745000Y-114300000D03*
X116205000Y-114300000D03*
X116205000Y-111125000D03*
X116205000Y-107950000D03*
X118745000Y-107950000D03*
X151735574Y-103490970D03*
X146692213Y-121284681D03*
X132715000Y-114300000D03*
X135255000Y-114300000D03*
X135255000Y-111125000D03*
X135255000Y-107950000D03*
X130175000Y-111125000D03*
X130175000Y-107950000D03*
X132715000Y-107950000D03*
X146685000Y-107315000D03*
X142886918Y-115563075D03*
X172085000Y-117475000D03*
X170815000Y-118745000D03*
X171457525Y-121934549D03*
X171457525Y-122984562D03*
X163830000Y-120015000D03*
X161290000Y-98425000D03*
X173974414Y-125188371D03*
X161299340Y-99708288D03*
X163830000Y-121285000D03*
X163865112Y-95284011D03*
X177165000Y-112395000D03*
X162575733Y-95284011D03*
X175895000Y-111125000D03*
X161286354Y-95284011D03*
X174625000Y-111125000D03*
X146668213Y-88931213D03*
X159996973Y-95284011D03*
X165100000Y-116205000D03*
X171439187Y-82552421D03*
X172102810Y-85112245D03*
X168879363Y-82533488D03*
X168879363Y-83822866D03*
X170813431Y-85112247D03*
X165900000Y-109166870D03*
X126365000Y-84455000D03*
X148865000Y-113665000D03*
X144145000Y-122555000D03*
X147310551Y-100350631D03*
X135255000Y-95250000D03*
X136525000Y-95250000D03*
X149225000Y-98425000D03*
X142233851Y-95248062D03*
X142239133Y-92718026D03*
X175254625Y-91415875D03*
X166372237Y-91415875D03*
X151130000Y-98425000D03*
X139696053Y-92710262D03*
X167016927Y-90198128D03*
X175254625Y-90198128D03*
X146692211Y-104776384D03*
X122555000Y-102870000D03*
X131445000Y-97790000D03*
X120015000Y-88265000D03*
X175260000Y-92710000D03*
X154205001Y-99060000D03*
D19*
X119414511Y-90763109D03*
D20*
X163814278Y-111744278D02*
X163814278Y-107261686D01*
X163814278Y-107261686D02*
X163814278Y-106696001D01*
X163830000Y-111760000D02*
X163814278Y-111744278D01*
X126365000Y-96520000D02*
X126365000Y-91440000D01*
X170180000Y-111760000D02*
X170180000Y-110490000D01*
X170180000Y-110490000D02*
X172720000Y-107950000D01*
X163830000Y-118745000D02*
X167640000Y-114935000D01*
X167640000Y-114935000D02*
X167640000Y-111760000D01*
X163830000Y-118745000D02*
X163830000Y-111760000D01*
X163830000Y-111760000D02*
X163169320Y-111760000D01*
X163169320Y-111760000D02*
X163098974Y-111689654D01*
X179070000Y-90170000D02*
X179070000Y-87630000D01*
X179070000Y-87630000D02*
X173990000Y-82550000D01*
X173990000Y-121920000D02*
X180975000Y-114935000D01*
X155575000Y-116205000D02*
X155575000Y-116840000D01*
X155575000Y-116840000D02*
X161925000Y-123190000D01*
X161925000Y-123190000D02*
X164465000Y-123190000D01*
X164465000Y-123190000D02*
X166025163Y-121629837D01*
X166025163Y-121629837D02*
X166025163Y-120994837D01*
X166025163Y-120994837D02*
X170815000Y-116205000D01*
X170815000Y-116205000D02*
X173355000Y-116205000D01*
X173355000Y-116205000D02*
X173990000Y-116840000D01*
X173990000Y-116840000D02*
X173990000Y-121920000D01*
X148995235Y-109443022D02*
X148595236Y-109843021D01*
X157480000Y-107950000D02*
X150488257Y-107950000D01*
X150488257Y-107950000D02*
X148995235Y-109443022D01*
X155575000Y-116205000D02*
X155575000Y-112395000D01*
D21*
X126365000Y-107315000D02*
X126365000Y-107259179D01*
X126365000Y-107259179D02*
X125785821Y-106680000D01*
X125785821Y-106680000D02*
X121920000Y-106680000D01*
X160020000Y-125764181D02*
X160020000Y-127000000D01*
X158080819Y-123825000D02*
X160020000Y-125764181D01*
X150495000Y-123825000D02*
X158080819Y-123825000D01*
X135890000Y-123825000D02*
X150495000Y-123825000D01*
X150495000Y-111125000D02*
X150495000Y-123825000D01*
X135890000Y-123825000D02*
X126365000Y-114300000D01*
X126365000Y-114300000D02*
X126365000Y-107315000D01*
X118745000Y-114300000D02*
X121285000Y-114300000D01*
X171468580Y-93998580D02*
X174625000Y-97155000D01*
X159372311Y-93998580D02*
X171468580Y-93998580D01*
X158087627Y-95283264D02*
X159372311Y-93998580D01*
X158087627Y-97138917D02*
X158087627Y-95283264D01*
X151735574Y-103490970D02*
X158087627Y-97138917D01*
X134529792Y-118141371D02*
X133964107Y-118141371D01*
X139661097Y-118141371D02*
X134529792Y-118141371D01*
X141605000Y-116197468D02*
X139661097Y-118141371D01*
X144780000Y-109220000D02*
X142854731Y-109220000D01*
X142854731Y-109220000D02*
X141605000Y-110469731D01*
X141605000Y-110469731D02*
X141605000Y-116197468D01*
X116205000Y-111125000D02*
X116205000Y-114300000D01*
X118745000Y-107950000D02*
X116205000Y-107950000D01*
X144780000Y-109220000D02*
X144780000Y-107306207D01*
X144780000Y-107306207D02*
X146025868Y-106060339D01*
X146025868Y-106060339D02*
X149237579Y-106060339D01*
X151735574Y-103562344D02*
X151735574Y-103490970D01*
X149237579Y-106060339D02*
X151735574Y-103562344D01*
X146292214Y-120884682D02*
X146692213Y-121284681D01*
X141605000Y-116197468D02*
X146292214Y-120884682D01*
D20*
X135255000Y-114300000D02*
X132715000Y-114300000D01*
X135255000Y-107950000D02*
X135255000Y-111125000D01*
X132715000Y-107950000D02*
X130175000Y-107950000D01*
X146685000Y-107315000D02*
X146685000Y-112395000D01*
X146685000Y-112395000D02*
X144780000Y-114300000D01*
D21*
X142886918Y-114997390D02*
X142886918Y-115563075D01*
X142886918Y-113653082D02*
X142886918Y-114997390D01*
X144780000Y-111760000D02*
X142886918Y-113653082D01*
D20*
X172085000Y-117475000D02*
X170796485Y-117475000D01*
X167609805Y-120661680D02*
X167609805Y-124490195D01*
X170796485Y-117475000D02*
X167609805Y-120661680D01*
X167609805Y-124490195D02*
X165100000Y-127000000D01*
X170815000Y-118745000D02*
X168895937Y-120664063D01*
X168895937Y-120664063D02*
X168895937Y-125744063D01*
X168895937Y-125744063D02*
X167640000Y-127000000D01*
X170180000Y-122646389D02*
X170891840Y-121934549D01*
X170180000Y-127000000D02*
X170180000Y-122646389D01*
X170891840Y-121934549D02*
X171457525Y-121934549D01*
X172720000Y-127000000D02*
X171457525Y-125737525D01*
X171457525Y-123550247D02*
X171457525Y-122984562D01*
X171457525Y-125737525D02*
X171457525Y-123550247D01*
X162099340Y-118284340D02*
X163430001Y-119615001D01*
X161290000Y-98425000D02*
X162099340Y-99234340D01*
X162099340Y-99234340D02*
X162099340Y-118284340D01*
X163430001Y-119615001D02*
X163830000Y-120015000D01*
X174540099Y-125188371D02*
X173974414Y-125188371D01*
X175988371Y-125188371D02*
X174540099Y-125188371D01*
X177800000Y-127000000D02*
X175988371Y-125188371D01*
X163830000Y-121285000D02*
X161299340Y-118754340D01*
X161299340Y-118754340D02*
X161299340Y-100273973D01*
X161299340Y-100273973D02*
X161299340Y-99708288D01*
X164265111Y-95684010D02*
X163865112Y-95284011D01*
X177165000Y-108583899D02*
X164265111Y-95684010D01*
X177165000Y-112395000D02*
X177165000Y-108583899D01*
X175895000Y-108603278D02*
X162975732Y-95684010D01*
X175895000Y-111125000D02*
X175895000Y-108603278D01*
X162975732Y-95684010D02*
X162575733Y-95284011D01*
X161686353Y-95684010D02*
X161286354Y-95284011D01*
X174625000Y-108622657D02*
X161686353Y-95684010D01*
X174625000Y-111125000D02*
X174625000Y-108622657D01*
X179089999Y-97198928D02*
X179089999Y-100349999D01*
X177771778Y-89870237D02*
X177771778Y-95880707D01*
X174420890Y-86519349D02*
X177771778Y-89870237D01*
X156369349Y-86519349D02*
X174420890Y-86519349D01*
X177771778Y-95880707D02*
X179089999Y-97198928D01*
X148590000Y-78740000D02*
X156369349Y-86519349D01*
X179089999Y-100349999D02*
X179490001Y-100750001D01*
X179490001Y-100750001D02*
X180340000Y-101600000D01*
X177800000Y-97910000D02*
X177800000Y-99060000D01*
X154379360Y-87069360D02*
X174193068Y-87069360D01*
X177078503Y-89954795D02*
X177078503Y-97188503D01*
X146050000Y-78740000D02*
X154379360Y-87069360D01*
X174193068Y-87069360D02*
X177078503Y-89954795D01*
X177078503Y-97188503D02*
X177800000Y-97910000D01*
X151077529Y-88931213D02*
X147233898Y-88931213D01*
X152389371Y-87619371D02*
X151077529Y-88931213D01*
X147233898Y-88931213D02*
X146668213Y-88931213D01*
X173965246Y-87619371D02*
X176528492Y-90182617D01*
X176528492Y-90182617D02*
X176528492Y-100328492D01*
X143510000Y-78740000D02*
X152389371Y-87619371D01*
X152389371Y-87619371D02*
X173965246Y-87619371D01*
X176528492Y-100328492D02*
X176950001Y-100750001D01*
X176950001Y-100750001D02*
X177800000Y-101600000D01*
X165100000Y-116205000D02*
X165100000Y-100387038D01*
X165100000Y-100387038D02*
X160396972Y-95684010D01*
X160396972Y-95684010D02*
X159996973Y-95284011D01*
X170180000Y-78740000D02*
X171439187Y-79999187D01*
X171439187Y-79999187D02*
X171439187Y-82552421D01*
X167640000Y-78740000D02*
X170187910Y-81287910D01*
X170187910Y-81287910D02*
X170187910Y-83206393D01*
X170187910Y-83206393D02*
X172093762Y-85112245D01*
X172093762Y-85112245D02*
X172102810Y-85112245D01*
X168879363Y-82519363D02*
X168879363Y-82533488D01*
X165100000Y-78740000D02*
X168879363Y-82519363D01*
X168313678Y-83822866D02*
X168879363Y-83822866D01*
X167642866Y-83822866D02*
X168313678Y-83822866D01*
X162560000Y-78740000D02*
X167642866Y-83822866D01*
X170247746Y-85112247D02*
X170813431Y-85112247D01*
X166392247Y-85112247D02*
X170247746Y-85112247D01*
X160020000Y-78740000D02*
X166392247Y-85112247D01*
X126365000Y-84455000D02*
X127640165Y-85730165D01*
X127640165Y-85730165D02*
X127640165Y-92094354D01*
X127640165Y-92094354D02*
X136510811Y-100965000D01*
X136510811Y-100965000D02*
X141601062Y-100965000D01*
X141601062Y-100965000D02*
X142240000Y-101603938D01*
X142240000Y-101603938D02*
X142240000Y-102870000D01*
X169928131Y-113195001D02*
X169928131Y-112774282D01*
X169928131Y-112774282D02*
X166320719Y-109166870D01*
X166320719Y-109166870D02*
X165900000Y-109166870D01*
X169928131Y-113195001D02*
X169928131Y-114564253D01*
X160020000Y-113030000D02*
X156833021Y-109843021D01*
X169928131Y-114564253D02*
X165100768Y-119391616D01*
X165100768Y-119391616D02*
X165100768Y-121198234D01*
X165100768Y-121198234D02*
X164214001Y-122085001D01*
X164214001Y-122085001D02*
X162639003Y-122085001D01*
X156833021Y-109843021D02*
X150592977Y-109843021D01*
X162639003Y-122085001D02*
X160020000Y-119465998D01*
X160020000Y-119465998D02*
X160020000Y-113030000D01*
X150592977Y-109843021D02*
X148865000Y-111570998D01*
X148865000Y-111570998D02*
X148865000Y-113099315D01*
X148865000Y-113099315D02*
X148865000Y-113665000D01*
X177800000Y-104140000D02*
X179050001Y-105390001D01*
X179050001Y-105390001D02*
X179050001Y-111694001D01*
X179050001Y-111694001D02*
X177549001Y-113195001D01*
X177549001Y-113195001D02*
X169928131Y-113195001D01*
X148865000Y-121010000D02*
X148865000Y-113665000D01*
X144145000Y-122555000D02*
X147320000Y-122555000D01*
X147320000Y-122555000D02*
X148865000Y-121010000D01*
X139700000Y-102870000D02*
X142240000Y-102870000D01*
X135255000Y-95250000D02*
X138436286Y-98431286D01*
X138436286Y-98431286D02*
X143514179Y-98431286D01*
X145433524Y-100350631D02*
X147310551Y-100350631D01*
X143514179Y-98431286D02*
X145433524Y-100350631D01*
X136924999Y-95649999D02*
X136525000Y-95250000D01*
X138899999Y-97624999D02*
X136924999Y-95649999D01*
X148424999Y-97624999D02*
X138899999Y-97624999D01*
X149225000Y-98425000D02*
X148424999Y-97624999D01*
X151130000Y-98425000D02*
X149232805Y-96527805D01*
X149232805Y-96527805D02*
X143511412Y-96527805D01*
X143511412Y-96527805D02*
X142233851Y-95250244D01*
X142233851Y-95250244D02*
X142233851Y-95248062D01*
X166372237Y-91415875D02*
X166348112Y-91440000D01*
X166348112Y-91440000D02*
X143517915Y-91440000D01*
X143517915Y-91440000D02*
X143516074Y-91438159D01*
X143516074Y-91438159D02*
X142239133Y-92715100D01*
X142239133Y-92715100D02*
X142239133Y-92718026D01*
X166937922Y-91415875D02*
X175254625Y-91415875D01*
X166372237Y-91415875D02*
X166937922Y-91415875D01*
X140096052Y-92310263D02*
X139696053Y-92710262D01*
X142208187Y-90198128D02*
X140096052Y-92310263D01*
X167016927Y-90198128D02*
X142208187Y-90198128D01*
X175254625Y-90198128D02*
X167016927Y-90198128D01*
X122555000Y-102870000D02*
X125076309Y-105391309D01*
X125076309Y-105391309D02*
X144791069Y-105391309D01*
X144791069Y-105391309D02*
X145405994Y-104776384D01*
X145405994Y-104776384D02*
X146692211Y-104776384D01*
X131445000Y-97790000D02*
X132080000Y-97790000D01*
X132080000Y-97790000D02*
X137160000Y-102870000D01*
D21*
X124460000Y-89535000D02*
X123190000Y-88265000D01*
X123190000Y-88265000D02*
X120015000Y-88265000D01*
X124460000Y-91345000D02*
X124460000Y-89535000D01*
X122810000Y-92995000D02*
X124460000Y-91345000D01*
D20*
X154205001Y-99060000D02*
X154205001Y-97878639D01*
X154205001Y-97878639D02*
X159373640Y-92710000D01*
X159373640Y-92710000D02*
X174694315Y-92710000D01*
X174694315Y-92710000D02*
X175260000Y-92710000D01*
X122810000Y-90455000D02*
X121529035Y-91735965D01*
X121529035Y-91735965D02*
X120387367Y-91735965D01*
X119764510Y-91113108D02*
X119414511Y-90763109D01*
X120387367Y-91735965D02*
X119764510Y-91113108D01*
D22*
G36*
X182180000Y-120668860D02*
G01*
X182068270Y-120501645D01*
X181758355Y-120191730D01*
X181393933Y-119948230D01*
X180989009Y-119780505D01*
X180559143Y-119695000D01*
X180120857Y-119695000D01*
X179690991Y-119780505D01*
X179286067Y-119948230D01*
X178921645Y-120191730D01*
X178611730Y-120501645D01*
X178368230Y-120866067D01*
X178200505Y-121270991D01*
X178115000Y-121700857D01*
X178115000Y-122139143D01*
X178200505Y-122569009D01*
X178368230Y-122973933D01*
X178611730Y-123338355D01*
X178921645Y-123648270D01*
X179286067Y-123891770D01*
X179690991Y-124059495D01*
X180120857Y-124145000D01*
X180559143Y-124145000D01*
X180989009Y-124059495D01*
X181393933Y-123891770D01*
X181758355Y-123648270D01*
X182068270Y-123338355D01*
X182180000Y-123171140D01*
X182180000Y-124170051D01*
X179869342Y-126480709D01*
X179842631Y-126502630D01*
X179820710Y-126529341D01*
X179820708Y-126529343D01*
X179755155Y-126609219D01*
X179690155Y-126730826D01*
X179650129Y-126862777D01*
X179636613Y-127000000D01*
X179640001Y-127034397D01*
X179640000Y-128840000D01*
X129521140Y-128840000D01*
X129688355Y-128728270D01*
X129998270Y-128418355D01*
X130241770Y-128053933D01*
X130409495Y-127649009D01*
X130495000Y-127219143D01*
X130495000Y-126780857D01*
X130409495Y-126350991D01*
X130326242Y-126150000D01*
X140761976Y-126150000D01*
X140761976Y-127850000D01*
X140774043Y-127972521D01*
X140809781Y-128090334D01*
X140867817Y-128198911D01*
X140945920Y-128294080D01*
X141041089Y-128372183D01*
X141149666Y-128430219D01*
X141267479Y-128465957D01*
X141390000Y-128478024D01*
X143090000Y-128478024D01*
X143212521Y-128465957D01*
X143330334Y-128430219D01*
X143438911Y-128372183D01*
X143534080Y-128294080D01*
X143612183Y-128198911D01*
X143670219Y-128090334D01*
X143696787Y-128002752D01*
X143839742Y-128145707D01*
X144081325Y-128307128D01*
X144349758Y-128418317D01*
X144634725Y-128475000D01*
X144925275Y-128475000D01*
X145210242Y-128418317D01*
X145478675Y-128307128D01*
X145720258Y-128145707D01*
X145925707Y-127940258D01*
X146050000Y-127754241D01*
X146174293Y-127940258D01*
X146379742Y-128145707D01*
X146621325Y-128307128D01*
X146889758Y-128418317D01*
X147174725Y-128475000D01*
X147465275Y-128475000D01*
X147750242Y-128418317D01*
X148018675Y-128307128D01*
X148260258Y-128145707D01*
X148465707Y-127940258D01*
X148590000Y-127754241D01*
X148714293Y-127940258D01*
X148919742Y-128145707D01*
X149161325Y-128307128D01*
X149429758Y-128418317D01*
X149714725Y-128475000D01*
X150005275Y-128475000D01*
X150290242Y-128418317D01*
X150558675Y-128307128D01*
X150800258Y-128145707D01*
X151005707Y-127940258D01*
X151130000Y-127754241D01*
X151254293Y-127940258D01*
X151459742Y-128145707D01*
X151701325Y-128307128D01*
X151969758Y-128418317D01*
X152254725Y-128475000D01*
X152545275Y-128475000D01*
X152830242Y-128418317D01*
X153098675Y-128307128D01*
X153340258Y-128145707D01*
X153545707Y-127940258D01*
X153675652Y-127745781D01*
X153752188Y-127874496D01*
X153945617Y-128089423D01*
X154177260Y-128262485D01*
X154438214Y-128387030D01*
X154586628Y-128432045D01*
X154815000Y-128312812D01*
X154815000Y-127125000D01*
X155065000Y-127125000D01*
X155065000Y-128312812D01*
X155293372Y-128432045D01*
X155441786Y-128387030D01*
X155702740Y-128262485D01*
X155934383Y-128089423D01*
X156127812Y-127874496D01*
X156210000Y-127736275D01*
X156292188Y-127874496D01*
X156485617Y-128089423D01*
X156717260Y-128262485D01*
X156978214Y-128387030D01*
X157126628Y-128432045D01*
X157355000Y-128312812D01*
X157355000Y-127125000D01*
X155065000Y-127125000D01*
X154815000Y-127125000D01*
X154795000Y-127125000D01*
X154795000Y-126875000D01*
X154815000Y-126875000D01*
X154815000Y-125687188D01*
X155065000Y-125687188D01*
X155065000Y-126875000D01*
X157355000Y-126875000D01*
X157355000Y-125687188D01*
X157126628Y-125567955D01*
X156978214Y-125612970D01*
X156717260Y-125737515D01*
X156485617Y-125910577D01*
X156292188Y-126125504D01*
X156210000Y-126263725D01*
X156127812Y-126125504D01*
X155934383Y-125910577D01*
X155702740Y-125737515D01*
X155441786Y-125612970D01*
X155293372Y-125567955D01*
X155065000Y-125687188D01*
X154815000Y-125687188D01*
X154586628Y-125567955D01*
X154438214Y-125612970D01*
X154177260Y-125737515D01*
X153945617Y-125910577D01*
X153752188Y-126125504D01*
X153675652Y-126254219D01*
X153545707Y-126059742D01*
X153340258Y-125854293D01*
X153098675Y-125692872D01*
X152830242Y-125581683D01*
X152545275Y-125525000D01*
X152254725Y-125525000D01*
X151969758Y-125581683D01*
X151701325Y-125692872D01*
X151459742Y-125854293D01*
X151254293Y-126059742D01*
X151130000Y-126245759D01*
X151005707Y-126059742D01*
X150800258Y-125854293D01*
X150558675Y-125692872D01*
X150290242Y-125581683D01*
X150005275Y-125525000D01*
X149714725Y-125525000D01*
X149429758Y-125581683D01*
X149161325Y-125692872D01*
X148919742Y-125854293D01*
X148714293Y-126059742D01*
X148590000Y-126245759D01*
X148465707Y-126059742D01*
X148260258Y-125854293D01*
X148018675Y-125692872D01*
X147750242Y-125581683D01*
X147465275Y-125525000D01*
X147174725Y-125525000D01*
X146889758Y-125581683D01*
X146621325Y-125692872D01*
X146379742Y-125854293D01*
X146174293Y-126059742D01*
X146050000Y-126245759D01*
X145925707Y-126059742D01*
X145720258Y-125854293D01*
X145478675Y-125692872D01*
X145210242Y-125581683D01*
X144925275Y-125525000D01*
X144634725Y-125525000D01*
X144349758Y-125581683D01*
X144081325Y-125692872D01*
X143839742Y-125854293D01*
X143696787Y-125997248D01*
X143670219Y-125909666D01*
X143612183Y-125801089D01*
X143534080Y-125705920D01*
X143438911Y-125627817D01*
X143330334Y-125569781D01*
X143212521Y-125534043D01*
X143090000Y-125521976D01*
X141390000Y-125521976D01*
X141267479Y-125534043D01*
X141149666Y-125569781D01*
X141041089Y-125627817D01*
X140945920Y-125705920D01*
X140867817Y-125801089D01*
X140809781Y-125909666D01*
X140774043Y-126027479D01*
X140761976Y-126150000D01*
X130326242Y-126150000D01*
X130241770Y-125946067D01*
X129998270Y-125581645D01*
X129688355Y-125271730D01*
X129323933Y-125028230D01*
X128919009Y-124860505D01*
X128489143Y-124775000D01*
X128050857Y-124775000D01*
X127620991Y-124860505D01*
X127216067Y-125028230D01*
X126851645Y-125271730D01*
X126541730Y-125581645D01*
X126298230Y-125946067D01*
X126130505Y-126350991D01*
X126045000Y-126780857D01*
X126045000Y-127219143D01*
X126130505Y-127649009D01*
X126298230Y-128053933D01*
X126541730Y-128418355D01*
X126851645Y-128728270D01*
X127018860Y-128840000D01*
X115000000Y-128840000D01*
X115000000Y-126843812D01*
X119455958Y-126843812D01*
X119530339Y-127120119D01*
X119718961Y-127524988D01*
X119982944Y-127885279D01*
X120312144Y-128187147D01*
X120693910Y-128418990D01*
X121113571Y-128571900D01*
X121555000Y-128640000D01*
X122305000Y-128640000D01*
X122305000Y-126490000D01*
X122555000Y-126490000D01*
X122555000Y-128640000D01*
X123305000Y-128640000D01*
X123746429Y-128571900D01*
X124166090Y-128418990D01*
X124547856Y-128187147D01*
X124877056Y-127885279D01*
X125141039Y-127524988D01*
X125329661Y-127120119D01*
X125404042Y-126843812D01*
X125295059Y-126490000D01*
X122555000Y-126490000D01*
X122305000Y-126490000D01*
X119564941Y-126490000D01*
X119455958Y-126843812D01*
X115000000Y-126843812D01*
X115000000Y-125886188D01*
X119455958Y-125886188D01*
X119564941Y-126240000D01*
X122305000Y-126240000D01*
X122305000Y-124090000D01*
X122555000Y-124090000D01*
X122555000Y-126240000D01*
X125295059Y-126240000D01*
X125404042Y-125886188D01*
X125329661Y-125609881D01*
X125141039Y-125205012D01*
X124877056Y-124844721D01*
X124547856Y-124542853D01*
X124169406Y-124313024D01*
X127130000Y-124313024D01*
X127252521Y-124300957D01*
X127370334Y-124265219D01*
X127478911Y-124207183D01*
X127574080Y-124129080D01*
X127652183Y-124033911D01*
X127710219Y-123925334D01*
X127745957Y-123807521D01*
X127758024Y-123685000D01*
X127758024Y-118885000D01*
X127745957Y-118762479D01*
X127710219Y-118644666D01*
X127652183Y-118536089D01*
X127574080Y-118440920D01*
X127478911Y-118362817D01*
X127370334Y-118304781D01*
X127252521Y-118269043D01*
X127130000Y-118256976D01*
X123830000Y-118256976D01*
X123707479Y-118269043D01*
X123589666Y-118304781D01*
X123481089Y-118362817D01*
X123385920Y-118440920D01*
X123307817Y-118536089D01*
X123249781Y-118644666D01*
X123214043Y-118762479D01*
X123201976Y-118885000D01*
X123201976Y-123685000D01*
X123214043Y-123807521D01*
X123249781Y-123925334D01*
X123307817Y-124033911D01*
X123360929Y-124098628D01*
X123305000Y-124090000D01*
X122555000Y-124090000D01*
X122305000Y-124090000D01*
X121555000Y-124090000D01*
X121113571Y-124158100D01*
X120693910Y-124311010D01*
X120312144Y-124542853D01*
X119982944Y-124844721D01*
X119718961Y-125205012D01*
X119530339Y-125609881D01*
X119455958Y-125886188D01*
X115000000Y-125886188D01*
X115000000Y-121410000D01*
X117105000Y-121410000D01*
X117105000Y-122160000D01*
X117173100Y-122601429D01*
X117326010Y-123021090D01*
X117557853Y-123402856D01*
X117859721Y-123732056D01*
X118220012Y-123996039D01*
X118624881Y-124184661D01*
X118901188Y-124259042D01*
X119255000Y-124150059D01*
X119255000Y-121410000D01*
X119505000Y-121410000D01*
X119505000Y-124150059D01*
X119858812Y-124259042D01*
X120135119Y-124184661D01*
X120539988Y-123996039D01*
X120900279Y-123732056D01*
X121202147Y-123402856D01*
X121433990Y-123021090D01*
X121586900Y-122601429D01*
X121655000Y-122160000D01*
X121655000Y-121410000D01*
X119505000Y-121410000D01*
X119255000Y-121410000D01*
X117105000Y-121410000D01*
X115000000Y-121410000D01*
X115000000Y-120410000D01*
X117105000Y-120410000D01*
X117105000Y-121160000D01*
X119255000Y-121160000D01*
X119255000Y-118419941D01*
X119505000Y-118419941D01*
X119505000Y-121160000D01*
X121655000Y-121160000D01*
X121655000Y-120410000D01*
X121586900Y-119968571D01*
X121433990Y-119548910D01*
X121202147Y-119167144D01*
X120900279Y-118837944D01*
X120539988Y-118573961D01*
X120135119Y-118385339D01*
X119858812Y-118310958D01*
X119505000Y-118419941D01*
X119255000Y-118419941D01*
X118901188Y-118310958D01*
X118624881Y-118385339D01*
X118220012Y-118573961D01*
X117859721Y-118837944D01*
X117557853Y-119167144D01*
X117326010Y-119548910D01*
X117173100Y-119968571D01*
X117105000Y-120410000D01*
X115000000Y-120410000D01*
X115000000Y-117600000D01*
X128356853Y-117600000D01*
X134921046Y-124164194D01*
X134981656Y-124310520D01*
X135093830Y-124478400D01*
X135236600Y-124621170D01*
X135404480Y-124733344D01*
X135591018Y-124810610D01*
X135789046Y-124850000D01*
X135990954Y-124850000D01*
X136188982Y-124810610D01*
X136335309Y-124750000D01*
X150449566Y-124750000D01*
X150495000Y-124754475D01*
X150540435Y-124750000D01*
X157697672Y-124750000D01*
X158940853Y-125993182D01*
X158874293Y-126059742D01*
X158744348Y-126254219D01*
X158667812Y-126125504D01*
X158474383Y-125910577D01*
X158242740Y-125737515D01*
X157981786Y-125612970D01*
X157833372Y-125567955D01*
X157605000Y-125687188D01*
X157605000Y-126875000D01*
X157625000Y-126875000D01*
X157625000Y-127125000D01*
X157605000Y-127125000D01*
X157605000Y-128312812D01*
X157833372Y-128432045D01*
X157981786Y-128387030D01*
X158242740Y-128262485D01*
X158474383Y-128089423D01*
X158667812Y-127874496D01*
X158744348Y-127745781D01*
X158874293Y-127940258D01*
X159079742Y-128145707D01*
X159321325Y-128307128D01*
X159589758Y-128418317D01*
X159874725Y-128475000D01*
X160165275Y-128475000D01*
X160450242Y-128418317D01*
X160718675Y-128307128D01*
X160960258Y-128145707D01*
X161165707Y-127940258D01*
X161327128Y-127698675D01*
X161438317Y-127430242D01*
X161495000Y-127145275D01*
X161495000Y-126854725D01*
X161438317Y-126569758D01*
X161327128Y-126301325D01*
X161226016Y-126150000D01*
X163621976Y-126150000D01*
X163621976Y-127850000D01*
X163634043Y-127972521D01*
X163669781Y-128090334D01*
X163727817Y-128198911D01*
X163805920Y-128294080D01*
X163901089Y-128372183D01*
X164009666Y-128430219D01*
X164127479Y-128465957D01*
X164250000Y-128478024D01*
X165950000Y-128478024D01*
X166072521Y-128465957D01*
X166190334Y-128430219D01*
X166298911Y-128372183D01*
X166394080Y-128294080D01*
X166472183Y-128198911D01*
X166530219Y-128090334D01*
X166556787Y-128002752D01*
X166699742Y-128145707D01*
X166941325Y-128307128D01*
X167209758Y-128418317D01*
X167494725Y-128475000D01*
X167785275Y-128475000D01*
X168070242Y-128418317D01*
X168338675Y-128307128D01*
X168580258Y-128145707D01*
X168785707Y-127940258D01*
X168910000Y-127754241D01*
X169034293Y-127940258D01*
X169239742Y-128145707D01*
X169481325Y-128307128D01*
X169749758Y-128418317D01*
X170034725Y-128475000D01*
X170325275Y-128475000D01*
X170610242Y-128418317D01*
X170878675Y-128307128D01*
X171120258Y-128145707D01*
X171325707Y-127940258D01*
X171450000Y-127754241D01*
X171574293Y-127940258D01*
X171779742Y-128145707D01*
X172021325Y-128307128D01*
X172289758Y-128418317D01*
X172574725Y-128475000D01*
X172865275Y-128475000D01*
X173150242Y-128418317D01*
X173418675Y-128307128D01*
X173660258Y-128145707D01*
X173865707Y-127940258D01*
X173990000Y-127754241D01*
X174114293Y-127940258D01*
X174319742Y-128145707D01*
X174561325Y-128307128D01*
X174829758Y-128418317D01*
X175114725Y-128475000D01*
X175405275Y-128475000D01*
X175690242Y-128418317D01*
X175958675Y-128307128D01*
X176200258Y-128145707D01*
X176405707Y-127940258D01*
X176530000Y-127754241D01*
X176654293Y-127940258D01*
X176859742Y-128145707D01*
X177101325Y-128307128D01*
X177369758Y-128418317D01*
X177654725Y-128475000D01*
X177945275Y-128475000D01*
X178230242Y-128418317D01*
X178498675Y-128307128D01*
X178740258Y-128145707D01*
X178945707Y-127940258D01*
X179107128Y-127698675D01*
X179218317Y-127430242D01*
X179275000Y-127145275D01*
X179275000Y-126854725D01*
X179218317Y-126569758D01*
X179107128Y-126301325D01*
X178945707Y-126059742D01*
X178740258Y-125854293D01*
X178498675Y-125692872D01*
X178230242Y-125581683D01*
X177945275Y-125525000D01*
X177654725Y-125525000D01*
X177459789Y-125563775D01*
X176563303Y-124667289D01*
X176539030Y-124637712D01*
X176421021Y-124540865D01*
X176286385Y-124468901D01*
X176140297Y-124424585D01*
X176026436Y-124413371D01*
X176026434Y-124413371D01*
X175988371Y-124409622D01*
X175950308Y-124413371D01*
X174648984Y-124413371D01*
X174627814Y-124392201D01*
X174459934Y-124280027D01*
X174273396Y-124202761D01*
X174075368Y-124163371D01*
X173873460Y-124163371D01*
X173675432Y-124202761D01*
X173488894Y-124280027D01*
X173321014Y-124392201D01*
X173178244Y-124534971D01*
X173066070Y-124702851D01*
X172988804Y-124889389D01*
X172949414Y-125087417D01*
X172949414Y-125289325D01*
X172988804Y-125487353D01*
X173016889Y-125555158D01*
X172865275Y-125525000D01*
X172574725Y-125525000D01*
X172379789Y-125563775D01*
X172232525Y-125416511D01*
X172232525Y-123659132D01*
X172253695Y-123637962D01*
X172365869Y-123470082D01*
X172443135Y-123283544D01*
X172482525Y-123085516D01*
X172482525Y-122883608D01*
X172443135Y-122685580D01*
X172365869Y-122499042D01*
X172339485Y-122459556D01*
X172365869Y-122420069D01*
X172443135Y-122233531D01*
X172482525Y-122035503D01*
X172482525Y-121833595D01*
X172443135Y-121635567D01*
X172365869Y-121449029D01*
X172253695Y-121281149D01*
X172110925Y-121138379D01*
X171943045Y-121026205D01*
X171756507Y-120948939D01*
X171558479Y-120909549D01*
X171356571Y-120909549D01*
X171158543Y-120948939D01*
X170972005Y-121026205D01*
X170804125Y-121138379D01*
X170775218Y-121167286D01*
X170739914Y-121170763D01*
X170593826Y-121215079D01*
X170531153Y-121248578D01*
X170459189Y-121287043D01*
X170431215Y-121310001D01*
X170341181Y-121383890D01*
X170316912Y-121413462D01*
X169670937Y-122059438D01*
X169670937Y-120985077D01*
X170886015Y-119770000D01*
X170915954Y-119770000D01*
X171113982Y-119730610D01*
X171300520Y-119653344D01*
X171468400Y-119541170D01*
X171611170Y-119398400D01*
X171723344Y-119230520D01*
X171800610Y-119043982D01*
X171840000Y-118845954D01*
X171840000Y-118644046D01*
X171804233Y-118464233D01*
X171984046Y-118500000D01*
X172185954Y-118500000D01*
X172383982Y-118460610D01*
X172570520Y-118383344D01*
X172738400Y-118271170D01*
X172881170Y-118128400D01*
X172993344Y-117960520D01*
X173070610Y-117773982D01*
X173110000Y-117575954D01*
X173110000Y-117374046D01*
X173070610Y-117176018D01*
X172993344Y-116989480D01*
X172881170Y-116821600D01*
X172738400Y-116678830D01*
X172570520Y-116566656D01*
X172383982Y-116489390D01*
X172185954Y-116450000D01*
X171984046Y-116450000D01*
X171786018Y-116489390D01*
X171599480Y-116566656D01*
X171431600Y-116678830D01*
X171410430Y-116700000D01*
X170834547Y-116700000D01*
X170796484Y-116696251D01*
X170758421Y-116700000D01*
X170758420Y-116700000D01*
X170644559Y-116711214D01*
X170498471Y-116755530D01*
X170435798Y-116789029D01*
X170363834Y-116827494D01*
X170330677Y-116854706D01*
X170245826Y-116924341D01*
X170221557Y-116953913D01*
X167088723Y-120086748D01*
X167059146Y-120111021D01*
X166998050Y-120185468D01*
X166962299Y-120229030D01*
X166953114Y-120246215D01*
X166890335Y-120363667D01*
X166846019Y-120509755D01*
X166834835Y-120623311D01*
X166831056Y-120661680D01*
X166834805Y-120699743D01*
X166834806Y-124169179D01*
X165482010Y-125521976D01*
X164250000Y-125521976D01*
X164127479Y-125534043D01*
X164009666Y-125569781D01*
X163901089Y-125627817D01*
X163805920Y-125705920D01*
X163727817Y-125801089D01*
X163669781Y-125909666D01*
X163634043Y-126027479D01*
X163621976Y-126150000D01*
X161226016Y-126150000D01*
X161165707Y-126059742D01*
X160960258Y-125854293D01*
X160945000Y-125844098D01*
X160945000Y-125809607D01*
X160949474Y-125764180D01*
X160945000Y-125718753D01*
X160945000Y-125718746D01*
X160931615Y-125582849D01*
X160878723Y-125408486D01*
X160792830Y-125247792D01*
X160748196Y-125193405D01*
X160706201Y-125142234D01*
X160706199Y-125142232D01*
X160677238Y-125106943D01*
X160641950Y-125077983D01*
X158767022Y-123203056D01*
X158738057Y-123167762D01*
X158597208Y-123052170D01*
X158436514Y-122966277D01*
X158262151Y-122913385D01*
X158126254Y-122900000D01*
X158126246Y-122900000D01*
X158080819Y-122895526D01*
X158035392Y-122900000D01*
X151420000Y-122900000D01*
X151420000Y-111570309D01*
X151480610Y-111423982D01*
X151520000Y-111225954D01*
X151520000Y-111024046D01*
X151480610Y-110826018D01*
X151403344Y-110639480D01*
X151389006Y-110618021D01*
X156512007Y-110618021D01*
X159245001Y-113351016D01*
X159245000Y-119427935D01*
X159241251Y-119465998D01*
X159245000Y-119504061D01*
X159245000Y-119504062D01*
X159256214Y-119617923D01*
X159300530Y-119764011D01*
X159332737Y-119824266D01*
X159372494Y-119898648D01*
X159384285Y-119913015D01*
X159469341Y-120016657D01*
X159498918Y-120040930D01*
X162064079Y-122606093D01*
X162088344Y-122635660D01*
X162117910Y-122659924D01*
X162117911Y-122659925D01*
X162206352Y-122732507D01*
X162340988Y-122804471D01*
X162374990Y-122814785D01*
X162487077Y-122848787D01*
X162600938Y-122860001D01*
X162600940Y-122860001D01*
X162639003Y-122863750D01*
X162677066Y-122860001D01*
X164175938Y-122860001D01*
X164214001Y-122863750D01*
X164252064Y-122860001D01*
X164252066Y-122860001D01*
X164365927Y-122848787D01*
X164512015Y-122804471D01*
X164646651Y-122732507D01*
X164764660Y-122635660D01*
X164788933Y-122606083D01*
X165621855Y-121773162D01*
X165651427Y-121748893D01*
X165730657Y-121652351D01*
X165748274Y-121630885D01*
X165799876Y-121534342D01*
X165820238Y-121496248D01*
X165864554Y-121350160D01*
X165875768Y-121236299D01*
X165875768Y-121236297D01*
X165879517Y-121198234D01*
X165875768Y-121160171D01*
X165875768Y-119712630D01*
X170449218Y-115139181D01*
X170478790Y-115114912D01*
X170557118Y-115019469D01*
X170575637Y-114996904D01*
X170647600Y-114862268D01*
X170647601Y-114862267D01*
X170691917Y-114716179D01*
X170703131Y-114602318D01*
X170703131Y-114602317D01*
X170706880Y-114564254D01*
X170703131Y-114526191D01*
X170703131Y-113970001D01*
X177510938Y-113970001D01*
X177549001Y-113973750D01*
X177587064Y-113970001D01*
X177587066Y-113970001D01*
X177700927Y-113958787D01*
X177847015Y-113914471D01*
X177981651Y-113842507D01*
X178099660Y-113745660D01*
X178123933Y-113716083D01*
X179571093Y-112268925D01*
X179600660Y-112244660D01*
X179624925Y-112215093D01*
X179697507Y-112126652D01*
X179769471Y-111992016D01*
X179794508Y-111909480D01*
X179813787Y-111845927D01*
X179825001Y-111732066D01*
X179825001Y-111732064D01*
X179828750Y-111694001D01*
X179825001Y-111655938D01*
X179825001Y-108063209D01*
X179909758Y-108098317D01*
X180194725Y-108155000D01*
X180485275Y-108155000D01*
X180770242Y-108098317D01*
X181038675Y-107987128D01*
X181280258Y-107825707D01*
X181485707Y-107620258D01*
X181647128Y-107378675D01*
X181758317Y-107110242D01*
X181815000Y-106825275D01*
X181815000Y-106534725D01*
X181758317Y-106249758D01*
X181647128Y-105981325D01*
X181485707Y-105739742D01*
X181280258Y-105534293D01*
X181085781Y-105404348D01*
X181214496Y-105327812D01*
X181429423Y-105134383D01*
X181602485Y-104902740D01*
X181727030Y-104641786D01*
X181772045Y-104493372D01*
X181652812Y-104265000D01*
X180465000Y-104265000D01*
X180465000Y-104285000D01*
X180215000Y-104285000D01*
X180215000Y-104265000D01*
X180195000Y-104265000D01*
X180195000Y-104015000D01*
X180215000Y-104015000D01*
X180215000Y-103995000D01*
X180465000Y-103995000D01*
X180465000Y-104015000D01*
X181652812Y-104015000D01*
X181772045Y-103786628D01*
X181727030Y-103638214D01*
X181602485Y-103377260D01*
X181429423Y-103145617D01*
X181214496Y-102952188D01*
X181085781Y-102875652D01*
X181280258Y-102745707D01*
X181485707Y-102540258D01*
X181647128Y-102298675D01*
X181758317Y-102030242D01*
X181815000Y-101745275D01*
X181815000Y-101454725D01*
X181758317Y-101169758D01*
X181647128Y-100901325D01*
X181485707Y-100659742D01*
X181280258Y-100454293D01*
X181094241Y-100330000D01*
X181280258Y-100205707D01*
X181485707Y-100000258D01*
X181647128Y-99758675D01*
X181758317Y-99490242D01*
X181815000Y-99205275D01*
X181815000Y-98914725D01*
X181758317Y-98629758D01*
X181647128Y-98361325D01*
X181485707Y-98119742D01*
X181280258Y-97914293D01*
X181038675Y-97752872D01*
X180770242Y-97641683D01*
X180485275Y-97585000D01*
X180194725Y-97585000D01*
X179909758Y-97641683D01*
X179864999Y-97660223D01*
X179864999Y-97236990D01*
X179868748Y-97198927D01*
X179864832Y-97159169D01*
X179853785Y-97047002D01*
X179809469Y-96900914D01*
X179755158Y-96799305D01*
X179737505Y-96766277D01*
X179702657Y-96723816D01*
X179640658Y-96648269D01*
X179611087Y-96624001D01*
X178546778Y-95559693D01*
X178546778Y-95301148D01*
X178611730Y-95398355D01*
X178921645Y-95708270D01*
X179286067Y-95951770D01*
X179690991Y-96119495D01*
X180120857Y-96205000D01*
X180559143Y-96205000D01*
X180989009Y-96119495D01*
X181393933Y-95951770D01*
X181758355Y-95708270D01*
X182068270Y-95398355D01*
X182180001Y-95231139D01*
X182180000Y-120668860D01*
G37*
X182180000Y-120668860D02*
X182068270Y-120501645D01*
X181758355Y-120191730D01*
X181393933Y-119948230D01*
X180989009Y-119780505D01*
X180559143Y-119695000D01*
X180120857Y-119695000D01*
X179690991Y-119780505D01*
X179286067Y-119948230D01*
X178921645Y-120191730D01*
X178611730Y-120501645D01*
X178368230Y-120866067D01*
X178200505Y-121270991D01*
X178115000Y-121700857D01*
X178115000Y-122139143D01*
X178200505Y-122569009D01*
X178368230Y-122973933D01*
X178611730Y-123338355D01*
X178921645Y-123648270D01*
X179286067Y-123891770D01*
X179690991Y-124059495D01*
X180120857Y-124145000D01*
X180559143Y-124145000D01*
X180989009Y-124059495D01*
X181393933Y-123891770D01*
X181758355Y-123648270D01*
X182068270Y-123338355D01*
X182180000Y-123171140D01*
X182180000Y-124170051D01*
X179869342Y-126480709D01*
X179842631Y-126502630D01*
X179820710Y-126529341D01*
X179820708Y-126529343D01*
X179755155Y-126609219D01*
X179690155Y-126730826D01*
X179650129Y-126862777D01*
X179636613Y-127000000D01*
X179640001Y-127034397D01*
X179640000Y-128840000D01*
X129521140Y-128840000D01*
X129688355Y-128728270D01*
X129998270Y-128418355D01*
X130241770Y-128053933D01*
X130409495Y-127649009D01*
X130495000Y-127219143D01*
X130495000Y-126780857D01*
X130409495Y-126350991D01*
X130326242Y-126150000D01*
X140761976Y-126150000D01*
X140761976Y-127850000D01*
X140774043Y-127972521D01*
X140809781Y-128090334D01*
X140867817Y-128198911D01*
X140945920Y-128294080D01*
X141041089Y-128372183D01*
X141149666Y-128430219D01*
X141267479Y-128465957D01*
X141390000Y-128478024D01*
X143090000Y-128478024D01*
X143212521Y-128465957D01*
X143330334Y-128430219D01*
X143438911Y-128372183D01*
X143534080Y-128294080D01*
X143612183Y-128198911D01*
X143670219Y-128090334D01*
X143696787Y-128002752D01*
X143839742Y-128145707D01*
X144081325Y-128307128D01*
X144349758Y-128418317D01*
X144634725Y-128475000D01*
X144925275Y-128475000D01*
X145210242Y-128418317D01*
X145478675Y-128307128D01*
X145720258Y-128145707D01*
X145925707Y-127940258D01*
X146050000Y-127754241D01*
X146174293Y-127940258D01*
X146379742Y-128145707D01*
X146621325Y-128307128D01*
X146889758Y-128418317D01*
X147174725Y-128475000D01*
X147465275Y-128475000D01*
X147750242Y-128418317D01*
X148018675Y-128307128D01*
X148260258Y-128145707D01*
X148465707Y-127940258D01*
X148590000Y-127754241D01*
X148714293Y-127940258D01*
X148919742Y-128145707D01*
X149161325Y-128307128D01*
X149429758Y-128418317D01*
X149714725Y-128475000D01*
X150005275Y-128475000D01*
X150290242Y-128418317D01*
X150558675Y-128307128D01*
X150800258Y-128145707D01*
X151005707Y-127940258D01*
X151130000Y-127754241D01*
X151254293Y-127940258D01*
X151459742Y-128145707D01*
X151701325Y-128307128D01*
X151969758Y-128418317D01*
X152254725Y-128475000D01*
X152545275Y-128475000D01*
X152830242Y-128418317D01*
X153098675Y-128307128D01*
X153340258Y-128145707D01*
X153545707Y-127940258D01*
X153675652Y-127745781D01*
X153752188Y-127874496D01*
X153945617Y-128089423D01*
X154177260Y-128262485D01*
X154438214Y-128387030D01*
X154586628Y-128432045D01*
X154815000Y-128312812D01*
X154815000Y-127125000D01*
X155065000Y-127125000D01*
X155065000Y-128312812D01*
X155293372Y-128432045D01*
X155441786Y-128387030D01*
X155702740Y-128262485D01*
X155934383Y-128089423D01*
X156127812Y-127874496D01*
X156210000Y-127736275D01*
X156292188Y-127874496D01*
X156485617Y-128089423D01*
X156717260Y-128262485D01*
X156978214Y-128387030D01*
X157126628Y-128432045D01*
X157355000Y-128312812D01*
X157355000Y-127125000D01*
X155065000Y-127125000D01*
X154815000Y-127125000D01*
X154795000Y-127125000D01*
X154795000Y-126875000D01*
X154815000Y-126875000D01*
X154815000Y-125687188D01*
X155065000Y-125687188D01*
X155065000Y-126875000D01*
X157355000Y-126875000D01*
X157355000Y-125687188D01*
X157126628Y-125567955D01*
X156978214Y-125612970D01*
X156717260Y-125737515D01*
X156485617Y-125910577D01*
X156292188Y-126125504D01*
X156210000Y-126263725D01*
X156127812Y-126125504D01*
X155934383Y-125910577D01*
X155702740Y-125737515D01*
X155441786Y-125612970D01*
X155293372Y-125567955D01*
X155065000Y-125687188D01*
X154815000Y-125687188D01*
X154586628Y-125567955D01*
X154438214Y-125612970D01*
X154177260Y-125737515D01*
X153945617Y-125910577D01*
X153752188Y-126125504D01*
X153675652Y-126254219D01*
X153545707Y-126059742D01*
X153340258Y-125854293D01*
X153098675Y-125692872D01*
X152830242Y-125581683D01*
X152545275Y-125525000D01*
X152254725Y-125525000D01*
X151969758Y-125581683D01*
X151701325Y-125692872D01*
X151459742Y-125854293D01*
X151254293Y-126059742D01*
X151130000Y-126245759D01*
X151005707Y-126059742D01*
X150800258Y-125854293D01*
X150558675Y-125692872D01*
X150290242Y-125581683D01*
X150005275Y-125525000D01*
X149714725Y-125525000D01*
X149429758Y-125581683D01*
X149161325Y-125692872D01*
X148919742Y-125854293D01*
X148714293Y-126059742D01*
X148590000Y-126245759D01*
X148465707Y-126059742D01*
X148260258Y-125854293D01*
X148018675Y-125692872D01*
X147750242Y-125581683D01*
X147465275Y-125525000D01*
X147174725Y-125525000D01*
X146889758Y-125581683D01*
X146621325Y-125692872D01*
X146379742Y-125854293D01*
X146174293Y-126059742D01*
X146050000Y-126245759D01*
X145925707Y-126059742D01*
X145720258Y-125854293D01*
X145478675Y-125692872D01*
X145210242Y-125581683D01*
X144925275Y-125525000D01*
X144634725Y-125525000D01*
X144349758Y-125581683D01*
X144081325Y-125692872D01*
X143839742Y-125854293D01*
X143696787Y-125997248D01*
X143670219Y-125909666D01*
X143612183Y-125801089D01*
X143534080Y-125705920D01*
X143438911Y-125627817D01*
X143330334Y-125569781D01*
X143212521Y-125534043D01*
X143090000Y-125521976D01*
X141390000Y-125521976D01*
X141267479Y-125534043D01*
X141149666Y-125569781D01*
X141041089Y-125627817D01*
X140945920Y-125705920D01*
X140867817Y-125801089D01*
X140809781Y-125909666D01*
X140774043Y-126027479D01*
X140761976Y-126150000D01*
X130326242Y-126150000D01*
X130241770Y-125946067D01*
X129998270Y-125581645D01*
X129688355Y-125271730D01*
X129323933Y-125028230D01*
X128919009Y-124860505D01*
X128489143Y-124775000D01*
X128050857Y-124775000D01*
X127620991Y-124860505D01*
X127216067Y-125028230D01*
X126851645Y-125271730D01*
X126541730Y-125581645D01*
X126298230Y-125946067D01*
X126130505Y-126350991D01*
X126045000Y-126780857D01*
X126045000Y-127219143D01*
X126130505Y-127649009D01*
X126298230Y-128053933D01*
X126541730Y-128418355D01*
X126851645Y-128728270D01*
X127018860Y-128840000D01*
X115000000Y-128840000D01*
X115000000Y-126843812D01*
X119455958Y-126843812D01*
X119530339Y-127120119D01*
X119718961Y-127524988D01*
X119982944Y-127885279D01*
X120312144Y-128187147D01*
X120693910Y-128418990D01*
X121113571Y-128571900D01*
X121555000Y-128640000D01*
X122305000Y-128640000D01*
X122305000Y-126490000D01*
X122555000Y-126490000D01*
X122555000Y-128640000D01*
X123305000Y-128640000D01*
X123746429Y-128571900D01*
X124166090Y-128418990D01*
X124547856Y-128187147D01*
X124877056Y-127885279D01*
X125141039Y-127524988D01*
X125329661Y-127120119D01*
X125404042Y-126843812D01*
X125295059Y-126490000D01*
X122555000Y-126490000D01*
X122305000Y-126490000D01*
X119564941Y-126490000D01*
X119455958Y-126843812D01*
X115000000Y-126843812D01*
X115000000Y-125886188D01*
X119455958Y-125886188D01*
X119564941Y-126240000D01*
X122305000Y-126240000D01*
X122305000Y-124090000D01*
X122555000Y-124090000D01*
X122555000Y-126240000D01*
X125295059Y-126240000D01*
X125404042Y-125886188D01*
X125329661Y-125609881D01*
X125141039Y-125205012D01*
X124877056Y-124844721D01*
X124547856Y-124542853D01*
X124169406Y-124313024D01*
X127130000Y-124313024D01*
X127252521Y-124300957D01*
X127370334Y-124265219D01*
X127478911Y-124207183D01*
X127574080Y-124129080D01*
X127652183Y-124033911D01*
X127710219Y-123925334D01*
X127745957Y-123807521D01*
X127758024Y-123685000D01*
X127758024Y-118885000D01*
X127745957Y-118762479D01*
X127710219Y-118644666D01*
X127652183Y-118536089D01*
X127574080Y-118440920D01*
X127478911Y-118362817D01*
X127370334Y-118304781D01*
X127252521Y-118269043D01*
X127130000Y-118256976D01*
X123830000Y-118256976D01*
X123707479Y-118269043D01*
X123589666Y-118304781D01*
X123481089Y-118362817D01*
X123385920Y-118440920D01*
X123307817Y-118536089D01*
X123249781Y-118644666D01*
X123214043Y-118762479D01*
X123201976Y-118885000D01*
X123201976Y-123685000D01*
X123214043Y-123807521D01*
X123249781Y-123925334D01*
X123307817Y-124033911D01*
X123360929Y-124098628D01*
X123305000Y-124090000D01*
X122555000Y-124090000D01*
X122305000Y-124090000D01*
X121555000Y-124090000D01*
X121113571Y-124158100D01*
X120693910Y-124311010D01*
X120312144Y-124542853D01*
X119982944Y-124844721D01*
X119718961Y-125205012D01*
X119530339Y-125609881D01*
X119455958Y-125886188D01*
X115000000Y-125886188D01*
X115000000Y-121410000D01*
X117105000Y-121410000D01*
X117105000Y-122160000D01*
X117173100Y-122601429D01*
X117326010Y-123021090D01*
X117557853Y-123402856D01*
X117859721Y-123732056D01*
X118220012Y-123996039D01*
X118624881Y-124184661D01*
X118901188Y-124259042D01*
X119255000Y-124150059D01*
X119255000Y-121410000D01*
X119505000Y-121410000D01*
X119505000Y-124150059D01*
X119858812Y-124259042D01*
X120135119Y-124184661D01*
X120539988Y-123996039D01*
X120900279Y-123732056D01*
X121202147Y-123402856D01*
X121433990Y-123021090D01*
X121586900Y-122601429D01*
X121655000Y-122160000D01*
X121655000Y-121410000D01*
X119505000Y-121410000D01*
X119255000Y-121410000D01*
X117105000Y-121410000D01*
X115000000Y-121410000D01*
X115000000Y-120410000D01*
X117105000Y-120410000D01*
X117105000Y-121160000D01*
X119255000Y-121160000D01*
X119255000Y-118419941D01*
X119505000Y-118419941D01*
X119505000Y-121160000D01*
X121655000Y-121160000D01*
X121655000Y-120410000D01*
X121586900Y-119968571D01*
X121433990Y-119548910D01*
X121202147Y-119167144D01*
X120900279Y-118837944D01*
X120539988Y-118573961D01*
X120135119Y-118385339D01*
X119858812Y-118310958D01*
X119505000Y-118419941D01*
X119255000Y-118419941D01*
X118901188Y-118310958D01*
X118624881Y-118385339D01*
X118220012Y-118573961D01*
X117859721Y-118837944D01*
X117557853Y-119167144D01*
X117326010Y-119548910D01*
X117173100Y-119968571D01*
X117105000Y-120410000D01*
X115000000Y-120410000D01*
X115000000Y-117600000D01*
X128356853Y-117600000D01*
X134921046Y-124164194D01*
X134981656Y-124310520D01*
X135093830Y-124478400D01*
X135236600Y-124621170D01*
X135404480Y-124733344D01*
X135591018Y-124810610D01*
X135789046Y-124850000D01*
X135990954Y-124850000D01*
X136188982Y-124810610D01*
X136335309Y-124750000D01*
X150449566Y-124750000D01*
X150495000Y-124754475D01*
X150540435Y-124750000D01*
X157697672Y-124750000D01*
X158940853Y-125993182D01*
X158874293Y-126059742D01*
X158744348Y-126254219D01*
X158667812Y-126125504D01*
X158474383Y-125910577D01*
X158242740Y-125737515D01*
X157981786Y-125612970D01*
X157833372Y-125567955D01*
X157605000Y-125687188D01*
X157605000Y-126875000D01*
X157625000Y-126875000D01*
X157625000Y-127125000D01*
X157605000Y-127125000D01*
X157605000Y-128312812D01*
X157833372Y-128432045D01*
X157981786Y-128387030D01*
X158242740Y-128262485D01*
X158474383Y-128089423D01*
X158667812Y-127874496D01*
X158744348Y-127745781D01*
X158874293Y-127940258D01*
X159079742Y-128145707D01*
X159321325Y-128307128D01*
X159589758Y-128418317D01*
X159874725Y-128475000D01*
X160165275Y-128475000D01*
X160450242Y-128418317D01*
X160718675Y-128307128D01*
X160960258Y-128145707D01*
X161165707Y-127940258D01*
X161327128Y-127698675D01*
X161438317Y-127430242D01*
X161495000Y-127145275D01*
X161495000Y-126854725D01*
X161438317Y-126569758D01*
X161327128Y-126301325D01*
X161226016Y-126150000D01*
X163621976Y-126150000D01*
X163621976Y-127850000D01*
X163634043Y-127972521D01*
X163669781Y-128090334D01*
X163727817Y-128198911D01*
X163805920Y-128294080D01*
X163901089Y-128372183D01*
X164009666Y-128430219D01*
X164127479Y-128465957D01*
X164250000Y-128478024D01*
X165950000Y-128478024D01*
X166072521Y-128465957D01*
X166190334Y-128430219D01*
X166298911Y-128372183D01*
X166394080Y-128294080D01*
X166472183Y-128198911D01*
X166530219Y-128090334D01*
X166556787Y-128002752D01*
X166699742Y-128145707D01*
X166941325Y-128307128D01*
X167209758Y-128418317D01*
X167494725Y-128475000D01*
X167785275Y-128475000D01*
X168070242Y-128418317D01*
X168338675Y-128307128D01*
X168580258Y-128145707D01*
X168785707Y-127940258D01*
X168910000Y-127754241D01*
X169034293Y-127940258D01*
X169239742Y-128145707D01*
X169481325Y-128307128D01*
X169749758Y-128418317D01*
X170034725Y-128475000D01*
X170325275Y-128475000D01*
X170610242Y-128418317D01*
X170878675Y-128307128D01*
X171120258Y-128145707D01*
X171325707Y-127940258D01*
X171450000Y-127754241D01*
X171574293Y-127940258D01*
X171779742Y-128145707D01*
X172021325Y-128307128D01*
X172289758Y-128418317D01*
X172574725Y-128475000D01*
X172865275Y-128475000D01*
X173150242Y-128418317D01*
X173418675Y-128307128D01*
X173660258Y-128145707D01*
X173865707Y-127940258D01*
X173990000Y-127754241D01*
X174114293Y-127940258D01*
X174319742Y-128145707D01*
X174561325Y-128307128D01*
X174829758Y-128418317D01*
X175114725Y-128475000D01*
X175405275Y-128475000D01*
X175690242Y-128418317D01*
X175958675Y-128307128D01*
X176200258Y-128145707D01*
X176405707Y-127940258D01*
X176530000Y-127754241D01*
X176654293Y-127940258D01*
X176859742Y-128145707D01*
X177101325Y-128307128D01*
X177369758Y-128418317D01*
X177654725Y-128475000D01*
X177945275Y-128475000D01*
X178230242Y-128418317D01*
X178498675Y-128307128D01*
X178740258Y-128145707D01*
X178945707Y-127940258D01*
X179107128Y-127698675D01*
X179218317Y-127430242D01*
X179275000Y-127145275D01*
X179275000Y-126854725D01*
X179218317Y-126569758D01*
X179107128Y-126301325D01*
X178945707Y-126059742D01*
X178740258Y-125854293D01*
X178498675Y-125692872D01*
X178230242Y-125581683D01*
X177945275Y-125525000D01*
X177654725Y-125525000D01*
X177459789Y-125563775D01*
X176563303Y-124667289D01*
X176539030Y-124637712D01*
X176421021Y-124540865D01*
X176286385Y-124468901D01*
X176140297Y-124424585D01*
X176026436Y-124413371D01*
X176026434Y-124413371D01*
X175988371Y-124409622D01*
X175950308Y-124413371D01*
X174648984Y-124413371D01*
X174627814Y-124392201D01*
X174459934Y-124280027D01*
X174273396Y-124202761D01*
X174075368Y-124163371D01*
X173873460Y-124163371D01*
X173675432Y-124202761D01*
X173488894Y-124280027D01*
X173321014Y-124392201D01*
X173178244Y-124534971D01*
X173066070Y-124702851D01*
X172988804Y-124889389D01*
X172949414Y-125087417D01*
X172949414Y-125289325D01*
X172988804Y-125487353D01*
X173016889Y-125555158D01*
X172865275Y-125525000D01*
X172574725Y-125525000D01*
X172379789Y-125563775D01*
X172232525Y-125416511D01*
X172232525Y-123659132D01*
X172253695Y-123637962D01*
X172365869Y-123470082D01*
X172443135Y-123283544D01*
X172482525Y-123085516D01*
X172482525Y-122883608D01*
X172443135Y-122685580D01*
X172365869Y-122499042D01*
X172339485Y-122459556D01*
X172365869Y-122420069D01*
X172443135Y-122233531D01*
X172482525Y-122035503D01*
X172482525Y-121833595D01*
X172443135Y-121635567D01*
X172365869Y-121449029D01*
X172253695Y-121281149D01*
X172110925Y-121138379D01*
X171943045Y-121026205D01*
X171756507Y-120948939D01*
X171558479Y-120909549D01*
X171356571Y-120909549D01*
X171158543Y-120948939D01*
X170972005Y-121026205D01*
X170804125Y-121138379D01*
X170775218Y-121167286D01*
X170739914Y-121170763D01*
X170593826Y-121215079D01*
X170531153Y-121248578D01*
X170459189Y-121287043D01*
X170431215Y-121310001D01*
X170341181Y-121383890D01*
X170316912Y-121413462D01*
X169670937Y-122059438D01*
X169670937Y-120985077D01*
X170886015Y-119770000D01*
X170915954Y-119770000D01*
X171113982Y-119730610D01*
X171300520Y-119653344D01*
X171468400Y-119541170D01*
X171611170Y-119398400D01*
X171723344Y-119230520D01*
X171800610Y-119043982D01*
X171840000Y-118845954D01*
X171840000Y-118644046D01*
X171804233Y-118464233D01*
X171984046Y-118500000D01*
X172185954Y-118500000D01*
X172383982Y-118460610D01*
X172570520Y-118383344D01*
X172738400Y-118271170D01*
X172881170Y-118128400D01*
X172993344Y-117960520D01*
X173070610Y-117773982D01*
X173110000Y-117575954D01*
X173110000Y-117374046D01*
X173070610Y-117176018D01*
X172993344Y-116989480D01*
X172881170Y-116821600D01*
X172738400Y-116678830D01*
X172570520Y-116566656D01*
X172383982Y-116489390D01*
X172185954Y-116450000D01*
X171984046Y-116450000D01*
X171786018Y-116489390D01*
X171599480Y-116566656D01*
X171431600Y-116678830D01*
X171410430Y-116700000D01*
X170834547Y-116700000D01*
X170796484Y-116696251D01*
X170758421Y-116700000D01*
X170758420Y-116700000D01*
X170644559Y-116711214D01*
X170498471Y-116755530D01*
X170435798Y-116789029D01*
X170363834Y-116827494D01*
X170330677Y-116854706D01*
X170245826Y-116924341D01*
X170221557Y-116953913D01*
X167088723Y-120086748D01*
X167059146Y-120111021D01*
X166998050Y-120185468D01*
X166962299Y-120229030D01*
X166953114Y-120246215D01*
X166890335Y-120363667D01*
X166846019Y-120509755D01*
X166834835Y-120623311D01*
X166831056Y-120661680D01*
X166834805Y-120699743D01*
X166834806Y-124169179D01*
X165482010Y-125521976D01*
X164250000Y-125521976D01*
X164127479Y-125534043D01*
X164009666Y-125569781D01*
X163901089Y-125627817D01*
X163805920Y-125705920D01*
X163727817Y-125801089D01*
X163669781Y-125909666D01*
X163634043Y-126027479D01*
X163621976Y-126150000D01*
X161226016Y-126150000D01*
X161165707Y-126059742D01*
X160960258Y-125854293D01*
X160945000Y-125844098D01*
X160945000Y-125809607D01*
X160949474Y-125764180D01*
X160945000Y-125718753D01*
X160945000Y-125718746D01*
X160931615Y-125582849D01*
X160878723Y-125408486D01*
X160792830Y-125247792D01*
X160748196Y-125193405D01*
X160706201Y-125142234D01*
X160706199Y-125142232D01*
X160677238Y-125106943D01*
X160641950Y-125077983D01*
X158767022Y-123203056D01*
X158738057Y-123167762D01*
X158597208Y-123052170D01*
X158436514Y-122966277D01*
X158262151Y-122913385D01*
X158126254Y-122900000D01*
X158126246Y-122900000D01*
X158080819Y-122895526D01*
X158035392Y-122900000D01*
X151420000Y-122900000D01*
X151420000Y-111570309D01*
X151480610Y-111423982D01*
X151520000Y-111225954D01*
X151520000Y-111024046D01*
X151480610Y-110826018D01*
X151403344Y-110639480D01*
X151389006Y-110618021D01*
X156512007Y-110618021D01*
X159245001Y-113351016D01*
X159245000Y-119427935D01*
X159241251Y-119465998D01*
X159245000Y-119504061D01*
X159245000Y-119504062D01*
X159256214Y-119617923D01*
X159300530Y-119764011D01*
X159332737Y-119824266D01*
X159372494Y-119898648D01*
X159384285Y-119913015D01*
X159469341Y-120016657D01*
X159498918Y-120040930D01*
X162064079Y-122606093D01*
X162088344Y-122635660D01*
X162117910Y-122659924D01*
X162117911Y-122659925D01*
X162206352Y-122732507D01*
X162340988Y-122804471D01*
X162374990Y-122814785D01*
X162487077Y-122848787D01*
X162600938Y-122860001D01*
X162600940Y-122860001D01*
X162639003Y-122863750D01*
X162677066Y-122860001D01*
X164175938Y-122860001D01*
X164214001Y-122863750D01*
X164252064Y-122860001D01*
X164252066Y-122860001D01*
X164365927Y-122848787D01*
X164512015Y-122804471D01*
X164646651Y-122732507D01*
X164764660Y-122635660D01*
X164788933Y-122606083D01*
X165621855Y-121773162D01*
X165651427Y-121748893D01*
X165730657Y-121652351D01*
X165748274Y-121630885D01*
X165799876Y-121534342D01*
X165820238Y-121496248D01*
X165864554Y-121350160D01*
X165875768Y-121236299D01*
X165875768Y-121236297D01*
X165879517Y-121198234D01*
X165875768Y-121160171D01*
X165875768Y-119712630D01*
X170449218Y-115139181D01*
X170478790Y-115114912D01*
X170557118Y-115019469D01*
X170575637Y-114996904D01*
X170647600Y-114862268D01*
X170647601Y-114862267D01*
X170691917Y-114716179D01*
X170703131Y-114602318D01*
X170703131Y-114602317D01*
X170706880Y-114564254D01*
X170703131Y-114526191D01*
X170703131Y-113970001D01*
X177510938Y-113970001D01*
X177549001Y-113973750D01*
X177587064Y-113970001D01*
X177587066Y-113970001D01*
X177700927Y-113958787D01*
X177847015Y-113914471D01*
X177981651Y-113842507D01*
X178099660Y-113745660D01*
X178123933Y-113716083D01*
X179571093Y-112268925D01*
X179600660Y-112244660D01*
X179624925Y-112215093D01*
X179697507Y-112126652D01*
X179769471Y-111992016D01*
X179794508Y-111909480D01*
X179813787Y-111845927D01*
X179825001Y-111732066D01*
X179825001Y-111732064D01*
X179828750Y-111694001D01*
X179825001Y-111655938D01*
X179825001Y-108063209D01*
X179909758Y-108098317D01*
X180194725Y-108155000D01*
X180485275Y-108155000D01*
X180770242Y-108098317D01*
X181038675Y-107987128D01*
X181280258Y-107825707D01*
X181485707Y-107620258D01*
X181647128Y-107378675D01*
X181758317Y-107110242D01*
X181815000Y-106825275D01*
X181815000Y-106534725D01*
X181758317Y-106249758D01*
X181647128Y-105981325D01*
X181485707Y-105739742D01*
X181280258Y-105534293D01*
X181085781Y-105404348D01*
X181214496Y-105327812D01*
X181429423Y-105134383D01*
X181602485Y-104902740D01*
X181727030Y-104641786D01*
X181772045Y-104493372D01*
X181652812Y-104265000D01*
X180465000Y-104265000D01*
X180465000Y-104285000D01*
X180215000Y-104285000D01*
X180215000Y-104265000D01*
X180195000Y-104265000D01*
X180195000Y-104015000D01*
X180215000Y-104015000D01*
X180215000Y-103995000D01*
X180465000Y-103995000D01*
X180465000Y-104015000D01*
X181652812Y-104015000D01*
X181772045Y-103786628D01*
X181727030Y-103638214D01*
X181602485Y-103377260D01*
X181429423Y-103145617D01*
X181214496Y-102952188D01*
X181085781Y-102875652D01*
X181280258Y-102745707D01*
X181485707Y-102540258D01*
X181647128Y-102298675D01*
X181758317Y-102030242D01*
X181815000Y-101745275D01*
X181815000Y-101454725D01*
X181758317Y-101169758D01*
X181647128Y-100901325D01*
X181485707Y-100659742D01*
X181280258Y-100454293D01*
X181094241Y-100330000D01*
X181280258Y-100205707D01*
X181485707Y-100000258D01*
X181647128Y-99758675D01*
X181758317Y-99490242D01*
X181815000Y-99205275D01*
X181815000Y-98914725D01*
X181758317Y-98629758D01*
X181647128Y-98361325D01*
X181485707Y-98119742D01*
X181280258Y-97914293D01*
X181038675Y-97752872D01*
X180770242Y-97641683D01*
X180485275Y-97585000D01*
X180194725Y-97585000D01*
X179909758Y-97641683D01*
X179864999Y-97660223D01*
X179864999Y-97236990D01*
X179868748Y-97198927D01*
X179864832Y-97159169D01*
X179853785Y-97047002D01*
X179809469Y-96900914D01*
X179755158Y-96799305D01*
X179737505Y-96766277D01*
X179702657Y-96723816D01*
X179640658Y-96648269D01*
X179611087Y-96624001D01*
X178546778Y-95559693D01*
X178546778Y-95301148D01*
X178611730Y-95398355D01*
X178921645Y-95708270D01*
X179286067Y-95951770D01*
X179690991Y-96119495D01*
X180120857Y-96205000D01*
X180559143Y-96205000D01*
X180989009Y-96119495D01*
X181393933Y-95951770D01*
X181758355Y-95708270D01*
X182068270Y-95398355D01*
X182180001Y-95231139D01*
X182180000Y-120668860D01*
G36*
X159088629Y-95769531D02*
G01*
X159200803Y-95937411D01*
X159343573Y-96080181D01*
X159511453Y-96192355D01*
X159697991Y-96269621D01*
X159896019Y-96309011D01*
X159925959Y-96309011D01*
X161045501Y-97428553D01*
X160991018Y-97439390D01*
X160804480Y-97516656D01*
X160636600Y-97628830D01*
X160493830Y-97771600D01*
X160381656Y-97939480D01*
X160304390Y-98126018D01*
X160265000Y-98324046D01*
X160265000Y-98525954D01*
X160304390Y-98723982D01*
X160381656Y-98910520D01*
X160490645Y-99073633D01*
X160390996Y-99222768D01*
X160313730Y-99409306D01*
X160274340Y-99607334D01*
X160274340Y-99809242D01*
X160313730Y-100007270D01*
X160390996Y-100193808D01*
X160503170Y-100361688D01*
X160524341Y-100382859D01*
X160524340Y-112438325D01*
X157407953Y-109321939D01*
X157383680Y-109292362D01*
X157265671Y-109195515D01*
X157131035Y-109123551D01*
X156984947Y-109079235D01*
X156871086Y-109068021D01*
X156871084Y-109068021D01*
X156833021Y-109064272D01*
X156794958Y-109068021D01*
X150631040Y-109068021D01*
X150592977Y-109064272D01*
X150554914Y-109068021D01*
X150554912Y-109068021D01*
X150441051Y-109079235D01*
X150328964Y-109113237D01*
X150294962Y-109123551D01*
X150160326Y-109195515D01*
X150092981Y-109250784D01*
X150042318Y-109292362D01*
X150018053Y-109321929D01*
X148343918Y-110996066D01*
X148314341Y-111020339D01*
X148246698Y-111102763D01*
X148217494Y-111138348D01*
X148204283Y-111163065D01*
X148145530Y-111272985D01*
X148101214Y-111419073D01*
X148100731Y-111423982D01*
X148086251Y-111570998D01*
X148090000Y-111609061D01*
X148090001Y-112990429D01*
X148068830Y-113011600D01*
X147956656Y-113179480D01*
X147879390Y-113366018D01*
X147840000Y-113564046D01*
X147840000Y-113765954D01*
X147879390Y-113963982D01*
X147956656Y-114150520D01*
X148068830Y-114318400D01*
X148090001Y-114339571D01*
X148090000Y-120688985D01*
X147696980Y-121082006D01*
X147677823Y-120985699D01*
X147600557Y-120799161D01*
X147488383Y-120631281D01*
X147345613Y-120488511D01*
X147177733Y-120376337D01*
X147031406Y-120315727D01*
X146978420Y-120262741D01*
X146978415Y-120262735D01*
X143241383Y-116525703D01*
X143372438Y-116471419D01*
X143540318Y-116359245D01*
X143683088Y-116216475D01*
X143795262Y-116048595D01*
X143872528Y-115862057D01*
X143911918Y-115664029D01*
X143911918Y-115493934D01*
X144081325Y-115607128D01*
X144349758Y-115718317D01*
X144634725Y-115775000D01*
X144925275Y-115775000D01*
X145210242Y-115718317D01*
X145478675Y-115607128D01*
X145720258Y-115445707D01*
X145925707Y-115240258D01*
X146087128Y-114998675D01*
X146198317Y-114730242D01*
X146255000Y-114445275D01*
X146255000Y-114154725D01*
X146216225Y-113959789D01*
X147206087Y-112969928D01*
X147235659Y-112945659D01*
X147298711Y-112868830D01*
X147332506Y-112827651D01*
X147400598Y-112700258D01*
X147404470Y-112693014D01*
X147448786Y-112546926D01*
X147460000Y-112433065D01*
X147460000Y-112433063D01*
X147463749Y-112395000D01*
X147460000Y-112356937D01*
X147460000Y-107989570D01*
X147481170Y-107968400D01*
X147593344Y-107800520D01*
X147670610Y-107613982D01*
X147710000Y-107415954D01*
X147710000Y-107214046D01*
X147670610Y-107016018D01*
X147657902Y-106985339D01*
X149192152Y-106985339D01*
X149237579Y-106989813D01*
X149283006Y-106985339D01*
X149283014Y-106985339D01*
X149418911Y-106971954D01*
X149593274Y-106919062D01*
X149753968Y-106833169D01*
X149894817Y-106717577D01*
X149923783Y-106682282D01*
X152196609Y-104409456D01*
X152221094Y-104399314D01*
X152388974Y-104287140D01*
X152531744Y-104144370D01*
X152643918Y-103976490D01*
X152704528Y-103830163D01*
X155070117Y-101464574D01*
X157375000Y-101464574D01*
X157375000Y-101735426D01*
X157427841Y-102001073D01*
X157531491Y-102251307D01*
X157681968Y-102476511D01*
X157873489Y-102668032D01*
X158098693Y-102818509D01*
X158348927Y-102922159D01*
X158614574Y-102975000D01*
X158885426Y-102975000D01*
X159151073Y-102922159D01*
X159401307Y-102818509D01*
X159626511Y-102668032D01*
X159818032Y-102476511D01*
X159968509Y-102251307D01*
X160072159Y-102001073D01*
X160125000Y-101735426D01*
X160125000Y-101464574D01*
X160072159Y-101198927D01*
X159968509Y-100948693D01*
X159818032Y-100723489D01*
X159626511Y-100531968D01*
X159401307Y-100381491D01*
X159151073Y-100277841D01*
X158885426Y-100225000D01*
X158614574Y-100225000D01*
X158348927Y-100277841D01*
X158098693Y-100381491D01*
X157873489Y-100531968D01*
X157681968Y-100723489D01*
X157531491Y-100948693D01*
X157427841Y-101198927D01*
X157375000Y-101464574D01*
X155070117Y-101464574D01*
X158709577Y-97825115D01*
X158744865Y-97796155D01*
X158776118Y-97758074D01*
X158801855Y-97726713D01*
X158860457Y-97655306D01*
X158946350Y-97494612D01*
X158999242Y-97320249D01*
X159012627Y-97184352D01*
X159012627Y-97184351D01*
X159017102Y-97138917D01*
X159012627Y-97093483D01*
X159012627Y-95666411D01*
X159036166Y-95642873D01*
X159088629Y-95769531D01*
G37*
X159088629Y-95769531D02*
X159200803Y-95937411D01*
X159343573Y-96080181D01*
X159511453Y-96192355D01*
X159697991Y-96269621D01*
X159896019Y-96309011D01*
X159925959Y-96309011D01*
X161045501Y-97428553D01*
X160991018Y-97439390D01*
X160804480Y-97516656D01*
X160636600Y-97628830D01*
X160493830Y-97771600D01*
X160381656Y-97939480D01*
X160304390Y-98126018D01*
X160265000Y-98324046D01*
X160265000Y-98525954D01*
X160304390Y-98723982D01*
X160381656Y-98910520D01*
X160490645Y-99073633D01*
X160390996Y-99222768D01*
X160313730Y-99409306D01*
X160274340Y-99607334D01*
X160274340Y-99809242D01*
X160313730Y-100007270D01*
X160390996Y-100193808D01*
X160503170Y-100361688D01*
X160524341Y-100382859D01*
X160524340Y-112438325D01*
X157407953Y-109321939D01*
X157383680Y-109292362D01*
X157265671Y-109195515D01*
X157131035Y-109123551D01*
X156984947Y-109079235D01*
X156871086Y-109068021D01*
X156871084Y-109068021D01*
X156833021Y-109064272D01*
X156794958Y-109068021D01*
X150631040Y-109068021D01*
X150592977Y-109064272D01*
X150554914Y-109068021D01*
X150554912Y-109068021D01*
X150441051Y-109079235D01*
X150328964Y-109113237D01*
X150294962Y-109123551D01*
X150160326Y-109195515D01*
X150092981Y-109250784D01*
X150042318Y-109292362D01*
X150018053Y-109321929D01*
X148343918Y-110996066D01*
X148314341Y-111020339D01*
X148246698Y-111102763D01*
X148217494Y-111138348D01*
X148204283Y-111163065D01*
X148145530Y-111272985D01*
X148101214Y-111419073D01*
X148100731Y-111423982D01*
X148086251Y-111570998D01*
X148090000Y-111609061D01*
X148090001Y-112990429D01*
X148068830Y-113011600D01*
X147956656Y-113179480D01*
X147879390Y-113366018D01*
X147840000Y-113564046D01*
X147840000Y-113765954D01*
X147879390Y-113963982D01*
X147956656Y-114150520D01*
X148068830Y-114318400D01*
X148090001Y-114339571D01*
X148090000Y-120688985D01*
X147696980Y-121082006D01*
X147677823Y-120985699D01*
X147600557Y-120799161D01*
X147488383Y-120631281D01*
X147345613Y-120488511D01*
X147177733Y-120376337D01*
X147031406Y-120315727D01*
X146978420Y-120262741D01*
X146978415Y-120262735D01*
X143241383Y-116525703D01*
X143372438Y-116471419D01*
X143540318Y-116359245D01*
X143683088Y-116216475D01*
X143795262Y-116048595D01*
X143872528Y-115862057D01*
X143911918Y-115664029D01*
X143911918Y-115493934D01*
X144081325Y-115607128D01*
X144349758Y-115718317D01*
X144634725Y-115775000D01*
X144925275Y-115775000D01*
X145210242Y-115718317D01*
X145478675Y-115607128D01*
X145720258Y-115445707D01*
X145925707Y-115240258D01*
X146087128Y-114998675D01*
X146198317Y-114730242D01*
X146255000Y-114445275D01*
X146255000Y-114154725D01*
X146216225Y-113959789D01*
X147206087Y-112969928D01*
X147235659Y-112945659D01*
X147298711Y-112868830D01*
X147332506Y-112827651D01*
X147400598Y-112700258D01*
X147404470Y-112693014D01*
X147448786Y-112546926D01*
X147460000Y-112433065D01*
X147460000Y-112433063D01*
X147463749Y-112395000D01*
X147460000Y-112356937D01*
X147460000Y-107989570D01*
X147481170Y-107968400D01*
X147593344Y-107800520D01*
X147670610Y-107613982D01*
X147710000Y-107415954D01*
X147710000Y-107214046D01*
X147670610Y-107016018D01*
X147657902Y-106985339D01*
X149192152Y-106985339D01*
X149237579Y-106989813D01*
X149283006Y-106985339D01*
X149283014Y-106985339D01*
X149418911Y-106971954D01*
X149593274Y-106919062D01*
X149753968Y-106833169D01*
X149894817Y-106717577D01*
X149923783Y-106682282D01*
X152196609Y-104409456D01*
X152221094Y-104399314D01*
X152388974Y-104287140D01*
X152531744Y-104144370D01*
X152643918Y-103976490D01*
X152704528Y-103830163D01*
X155070117Y-101464574D01*
X157375000Y-101464574D01*
X157375000Y-101735426D01*
X157427841Y-102001073D01*
X157531491Y-102251307D01*
X157681968Y-102476511D01*
X157873489Y-102668032D01*
X158098693Y-102818509D01*
X158348927Y-102922159D01*
X158614574Y-102975000D01*
X158885426Y-102975000D01*
X159151073Y-102922159D01*
X159401307Y-102818509D01*
X159626511Y-102668032D01*
X159818032Y-102476511D01*
X159968509Y-102251307D01*
X160072159Y-102001073D01*
X160125000Y-101735426D01*
X160125000Y-101464574D01*
X160072159Y-101198927D01*
X159968509Y-100948693D01*
X159818032Y-100723489D01*
X159626511Y-100531968D01*
X159401307Y-100381491D01*
X159151073Y-100277841D01*
X158885426Y-100225000D01*
X158614574Y-100225000D01*
X158348927Y-100277841D01*
X158098693Y-100381491D01*
X157873489Y-100531968D01*
X157681968Y-100723489D01*
X157531491Y-100948693D01*
X157427841Y-101198927D01*
X157375000Y-101464574D01*
X155070117Y-101464574D01*
X158709577Y-97825115D01*
X158744865Y-97796155D01*
X158776118Y-97758074D01*
X158801855Y-97726713D01*
X158860457Y-97655306D01*
X158946350Y-97494612D01*
X158999242Y-97320249D01*
X159012627Y-97184352D01*
X159012627Y-97184351D01*
X159017102Y-97138917D01*
X159012627Y-97093483D01*
X159012627Y-95666411D01*
X159036166Y-95642873D01*
X159088629Y-95769531D01*
G36*
X162978693Y-102818509D02*
G01*
X163228927Y-102922159D01*
X163494574Y-102975000D01*
X163765426Y-102975000D01*
X164031073Y-102922159D01*
X164281307Y-102818509D01*
X164325001Y-102789314D01*
X164325000Y-115530430D01*
X164303830Y-115551600D01*
X164191656Y-115719480D01*
X164114390Y-115906018D01*
X164075000Y-116104046D01*
X164075000Y-116305954D01*
X164114390Y-116503982D01*
X164191656Y-116690520D01*
X164303830Y-116858400D01*
X164446600Y-117001170D01*
X164614480Y-117113344D01*
X164801018Y-117190610D01*
X164999046Y-117230000D01*
X165200954Y-117230000D01*
X165398982Y-117190610D01*
X165585520Y-117113344D01*
X165753400Y-117001170D01*
X165896170Y-116858400D01*
X166008344Y-116690520D01*
X166085610Y-116503982D01*
X166125000Y-116305954D01*
X166125000Y-116104046D01*
X166085610Y-115906018D01*
X166008344Y-115719480D01*
X165896170Y-115551600D01*
X165875000Y-115530430D01*
X165875000Y-110191870D01*
X166000954Y-110191870D01*
X166198982Y-110152480D01*
X166206996Y-110149161D01*
X169153131Y-113095297D01*
X169153131Y-113156936D01*
X169149382Y-113195001D01*
X169153131Y-113233065D01*
X169153132Y-114243237D01*
X164579686Y-118816684D01*
X164550109Y-118840957D01*
X164478889Y-118927741D01*
X164453262Y-118958966D01*
X164431279Y-119000094D01*
X164381298Y-119093603D01*
X164366920Y-119141000D01*
X164315520Y-119106656D01*
X164128982Y-119029390D01*
X163930954Y-118990000D01*
X163901015Y-118990000D01*
X162874340Y-117963326D01*
X162874340Y-102748782D01*
X162978693Y-102818509D01*
G37*
X162978693Y-102818509D02*
X163228927Y-102922159D01*
X163494574Y-102975000D01*
X163765426Y-102975000D01*
X164031073Y-102922159D01*
X164281307Y-102818509D01*
X164325001Y-102789314D01*
X164325000Y-115530430D01*
X164303830Y-115551600D01*
X164191656Y-115719480D01*
X164114390Y-115906018D01*
X164075000Y-116104046D01*
X164075000Y-116305954D01*
X164114390Y-116503982D01*
X164191656Y-116690520D01*
X164303830Y-116858400D01*
X164446600Y-117001170D01*
X164614480Y-117113344D01*
X164801018Y-117190610D01*
X164999046Y-117230000D01*
X165200954Y-117230000D01*
X165398982Y-117190610D01*
X165585520Y-117113344D01*
X165753400Y-117001170D01*
X165896170Y-116858400D01*
X166008344Y-116690520D01*
X166085610Y-116503982D01*
X166125000Y-116305954D01*
X166125000Y-116104046D01*
X166085610Y-115906018D01*
X166008344Y-115719480D01*
X165896170Y-115551600D01*
X165875000Y-115530430D01*
X165875000Y-110191870D01*
X166000954Y-110191870D01*
X166198982Y-110152480D01*
X166206996Y-110149161D01*
X169153131Y-113095297D01*
X169153131Y-113156936D01*
X169149382Y-113195001D01*
X169153131Y-113233065D01*
X169153132Y-114243237D01*
X164579686Y-118816684D01*
X164550109Y-118840957D01*
X164478889Y-118927741D01*
X164453262Y-118958966D01*
X164431279Y-119000094D01*
X164381298Y-119093603D01*
X164366920Y-119141000D01*
X164315520Y-119106656D01*
X164128982Y-119029390D01*
X163930954Y-118990000D01*
X163901015Y-118990000D01*
X162874340Y-117963326D01*
X162874340Y-102748782D01*
X162978693Y-102818509D01*
G36*
X173850001Y-108943673D02*
G01*
X173850000Y-110450430D01*
X173828830Y-110471600D01*
X173716656Y-110639480D01*
X173639390Y-110826018D01*
X173600000Y-111024046D01*
X173600000Y-111225954D01*
X173639390Y-111423982D01*
X173716656Y-111610520D01*
X173828830Y-111778400D01*
X173971600Y-111921170D01*
X174139480Y-112033344D01*
X174326018Y-112110610D01*
X174524046Y-112150000D01*
X174725954Y-112150000D01*
X174923982Y-112110610D01*
X175110520Y-112033344D01*
X175260000Y-111933465D01*
X175409480Y-112033344D01*
X175596018Y-112110610D01*
X175794046Y-112150000D01*
X175995954Y-112150000D01*
X176175767Y-112114233D01*
X176140000Y-112294046D01*
X176140000Y-112420001D01*
X170617526Y-112420001D01*
X170579975Y-112349747D01*
X170575637Y-112341631D01*
X170533647Y-112290467D01*
X170478790Y-112223623D01*
X170449218Y-112199354D01*
X166895651Y-108645788D01*
X166871378Y-108616211D01*
X166753369Y-108519364D01*
X166643152Y-108460452D01*
X166553400Y-108370700D01*
X166385520Y-108258526D01*
X166198982Y-108181260D01*
X166000954Y-108141870D01*
X165875000Y-108141870D01*
X165875000Y-100968671D01*
X173850001Y-108943673D01*
G37*
X173850001Y-108943673D02*
X173850000Y-110450430D01*
X173828830Y-110471600D01*
X173716656Y-110639480D01*
X173639390Y-110826018D01*
X173600000Y-111024046D01*
X173600000Y-111225954D01*
X173639390Y-111423982D01*
X173716656Y-111610520D01*
X173828830Y-111778400D01*
X173971600Y-111921170D01*
X174139480Y-112033344D01*
X174326018Y-112110610D01*
X174524046Y-112150000D01*
X174725954Y-112150000D01*
X174923982Y-112110610D01*
X175110520Y-112033344D01*
X175260000Y-111933465D01*
X175409480Y-112033344D01*
X175596018Y-112110610D01*
X175794046Y-112150000D01*
X175995954Y-112150000D01*
X176175767Y-112114233D01*
X176140000Y-112294046D01*
X176140000Y-112420001D01*
X170617526Y-112420001D01*
X170579975Y-112349747D01*
X170575637Y-112341631D01*
X170533647Y-112290467D01*
X170478790Y-112223623D01*
X170449218Y-112199354D01*
X166895651Y-108645788D01*
X166871378Y-108616211D01*
X166753369Y-108519364D01*
X166643152Y-108460452D01*
X166553400Y-108370700D01*
X166385520Y-108258526D01*
X166198982Y-108181260D01*
X166000954Y-108141870D01*
X165875000Y-108141870D01*
X165875000Y-100968671D01*
X173850001Y-108943673D01*
G36*
X128121645Y-77011730D02*
G01*
X127811730Y-77321645D01*
X127568230Y-77686067D01*
X127400505Y-78090991D01*
X127315000Y-78520857D01*
X127315000Y-78959143D01*
X127400505Y-79389009D01*
X127568230Y-79793933D01*
X127811730Y-80158355D01*
X128121645Y-80468270D01*
X128486067Y-80711770D01*
X128890991Y-80879495D01*
X129320857Y-80965000D01*
X129759143Y-80965000D01*
X130189009Y-80879495D01*
X130593933Y-80711770D01*
X130958355Y-80468270D01*
X131268270Y-80158355D01*
X131511770Y-79793933D01*
X131679495Y-79389009D01*
X131765000Y-78959143D01*
X131765000Y-78594725D01*
X131875000Y-78594725D01*
X131875000Y-78885275D01*
X131931683Y-79170242D01*
X132042872Y-79438675D01*
X132204293Y-79680258D01*
X132409742Y-79885707D01*
X132651325Y-80047128D01*
X132919758Y-80158317D01*
X133204725Y-80215000D01*
X133495275Y-80215000D01*
X133780242Y-80158317D01*
X134048675Y-80047128D01*
X134290258Y-79885707D01*
X134495707Y-79680258D01*
X134620000Y-79494241D01*
X134744293Y-79680258D01*
X134949742Y-79885707D01*
X135191325Y-80047128D01*
X135459758Y-80158317D01*
X135744725Y-80215000D01*
X136035275Y-80215000D01*
X136320242Y-80158317D01*
X136588675Y-80047128D01*
X136830258Y-79885707D01*
X137035707Y-79680258D01*
X137160000Y-79494241D01*
X137284293Y-79680258D01*
X137489742Y-79885707D01*
X137731325Y-80047128D01*
X137999758Y-80158317D01*
X138284725Y-80215000D01*
X138575275Y-80215000D01*
X138860242Y-80158317D01*
X139128675Y-80047128D01*
X139370258Y-79885707D01*
X139575707Y-79680258D01*
X139705652Y-79485781D01*
X139782188Y-79614496D01*
X139975617Y-79829423D01*
X140207260Y-80002485D01*
X140468214Y-80127030D01*
X140616628Y-80172045D01*
X140845000Y-80052812D01*
X140845000Y-78865000D01*
X140825000Y-78865000D01*
X140825000Y-78615000D01*
X140845000Y-78615000D01*
X140845000Y-77427188D01*
X140616628Y-77307955D01*
X140468214Y-77352970D01*
X140207260Y-77477515D01*
X139975617Y-77650577D01*
X139782188Y-77865504D01*
X139705652Y-77994219D01*
X139575707Y-77799742D01*
X139370258Y-77594293D01*
X139128675Y-77432872D01*
X138860242Y-77321683D01*
X138575275Y-77265000D01*
X138284725Y-77265000D01*
X137999758Y-77321683D01*
X137731325Y-77432872D01*
X137489742Y-77594293D01*
X137284293Y-77799742D01*
X137160000Y-77985759D01*
X137035707Y-77799742D01*
X136830258Y-77594293D01*
X136588675Y-77432872D01*
X136320242Y-77321683D01*
X136035275Y-77265000D01*
X135744725Y-77265000D01*
X135459758Y-77321683D01*
X135191325Y-77432872D01*
X134949742Y-77594293D01*
X134744293Y-77799742D01*
X134620000Y-77985759D01*
X134495707Y-77799742D01*
X134290258Y-77594293D01*
X134048675Y-77432872D01*
X133780242Y-77321683D01*
X133495275Y-77265000D01*
X133204725Y-77265000D01*
X132919758Y-77321683D01*
X132651325Y-77432872D01*
X132409742Y-77594293D01*
X132204293Y-77799742D01*
X132042872Y-78041325D01*
X131931683Y-78309758D01*
X131875000Y-78594725D01*
X131765000Y-78594725D01*
X131765000Y-78520857D01*
X131679495Y-78090991D01*
X131511770Y-77686067D01*
X131268270Y-77321645D01*
X130958355Y-77011730D01*
X130791140Y-76900000D01*
X178780051Y-76900000D01*
X179640001Y-77759950D01*
X179640000Y-88865613D01*
X179636613Y-88900000D01*
X179640000Y-88934387D01*
X179640000Y-88934389D01*
X179650128Y-89037223D01*
X179676368Y-89123723D01*
X179690155Y-89169174D01*
X179755155Y-89290781D01*
X179815132Y-89363863D01*
X179842630Y-89397369D01*
X179869343Y-89419292D01*
X182180001Y-91729950D01*
X182180001Y-92728862D01*
X182068270Y-92561645D01*
X181758355Y-92251730D01*
X181393933Y-92008230D01*
X180989009Y-91840505D01*
X180559143Y-91755000D01*
X180120857Y-91755000D01*
X179690991Y-91840505D01*
X179286067Y-92008230D01*
X178921645Y-92251730D01*
X178611730Y-92561645D01*
X178546778Y-92658852D01*
X178546778Y-89908299D01*
X178550527Y-89870236D01*
X178546128Y-89825577D01*
X178535564Y-89718311D01*
X178491248Y-89572223D01*
X178419284Y-89437587D01*
X178322437Y-89319578D01*
X178292866Y-89295310D01*
X174995822Y-85998267D01*
X174971549Y-85968690D01*
X174853540Y-85871843D01*
X174718904Y-85799879D01*
X174572816Y-85755563D01*
X174458955Y-85744349D01*
X174458953Y-85744349D01*
X174420890Y-85740600D01*
X174382827Y-85744349D01*
X172913210Y-85744349D01*
X173011154Y-85597765D01*
X173088420Y-85411227D01*
X173127810Y-85213199D01*
X173127810Y-85011291D01*
X173088420Y-84813263D01*
X173011154Y-84626725D01*
X172898980Y-84458845D01*
X172756210Y-84316075D01*
X172588330Y-84203901D01*
X172401792Y-84126635D01*
X172203764Y-84087245D01*
X172164777Y-84087245D01*
X171635904Y-83558373D01*
X171738169Y-83538031D01*
X171924707Y-83460765D01*
X172092587Y-83348591D01*
X172235357Y-83205821D01*
X172347531Y-83037941D01*
X172424797Y-82851403D01*
X172464187Y-82653375D01*
X172464187Y-82451467D01*
X172424797Y-82253439D01*
X172347531Y-82066901D01*
X172235357Y-81899021D01*
X172214187Y-81877851D01*
X172214187Y-80127014D01*
X172289758Y-80158317D01*
X172574725Y-80215000D01*
X172865275Y-80215000D01*
X173150242Y-80158317D01*
X173418675Y-80047128D01*
X173660258Y-79885707D01*
X173865707Y-79680258D01*
X173990000Y-79494241D01*
X174114293Y-79680258D01*
X174319742Y-79885707D01*
X174561325Y-80047128D01*
X174829758Y-80158317D01*
X175114725Y-80215000D01*
X175405275Y-80215000D01*
X175690242Y-80158317D01*
X175958675Y-80047128D01*
X176200258Y-79885707D01*
X176343213Y-79742752D01*
X176369781Y-79830334D01*
X176427817Y-79938911D01*
X176505920Y-80034080D01*
X176601089Y-80112183D01*
X176709666Y-80170219D01*
X176827479Y-80205957D01*
X176950000Y-80218024D01*
X178650000Y-80218024D01*
X178772521Y-80205957D01*
X178890334Y-80170219D01*
X178998911Y-80112183D01*
X179094080Y-80034080D01*
X179172183Y-79938911D01*
X179230219Y-79830334D01*
X179265957Y-79712521D01*
X179278024Y-79590000D01*
X179278024Y-77890000D01*
X179265957Y-77767479D01*
X179230219Y-77649666D01*
X179172183Y-77541089D01*
X179094080Y-77445920D01*
X178998911Y-77367817D01*
X178890334Y-77309781D01*
X178772521Y-77274043D01*
X178650000Y-77261976D01*
X176950000Y-77261976D01*
X176827479Y-77274043D01*
X176709666Y-77309781D01*
X176601089Y-77367817D01*
X176505920Y-77445920D01*
X176427817Y-77541089D01*
X176369781Y-77649666D01*
X176343213Y-77737248D01*
X176200258Y-77594293D01*
X175958675Y-77432872D01*
X175690242Y-77321683D01*
X175405275Y-77265000D01*
X175114725Y-77265000D01*
X174829758Y-77321683D01*
X174561325Y-77432872D01*
X174319742Y-77594293D01*
X174114293Y-77799742D01*
X173990000Y-77985759D01*
X173865707Y-77799742D01*
X173660258Y-77594293D01*
X173418675Y-77432872D01*
X173150242Y-77321683D01*
X172865275Y-77265000D01*
X172574725Y-77265000D01*
X172289758Y-77321683D01*
X172021325Y-77432872D01*
X171779742Y-77594293D01*
X171574293Y-77799742D01*
X171450000Y-77985759D01*
X171325707Y-77799742D01*
X171120258Y-77594293D01*
X170878675Y-77432872D01*
X170610242Y-77321683D01*
X170325275Y-77265000D01*
X170034725Y-77265000D01*
X169749758Y-77321683D01*
X169481325Y-77432872D01*
X169239742Y-77594293D01*
X169034293Y-77799742D01*
X168910000Y-77985759D01*
X168785707Y-77799742D01*
X168580258Y-77594293D01*
X168338675Y-77432872D01*
X168070242Y-77321683D01*
X167785275Y-77265000D01*
X167494725Y-77265000D01*
X167209758Y-77321683D01*
X166941325Y-77432872D01*
X166699742Y-77594293D01*
X166494293Y-77799742D01*
X166370000Y-77985759D01*
X166245707Y-77799742D01*
X166040258Y-77594293D01*
X165798675Y-77432872D01*
X165530242Y-77321683D01*
X165245275Y-77265000D01*
X164954725Y-77265000D01*
X164669758Y-77321683D01*
X164401325Y-77432872D01*
X164159742Y-77594293D01*
X163954293Y-77799742D01*
X163830000Y-77985759D01*
X163705707Y-77799742D01*
X163500258Y-77594293D01*
X163258675Y-77432872D01*
X162990242Y-77321683D01*
X162705275Y-77265000D01*
X162414725Y-77265000D01*
X162129758Y-77321683D01*
X161861325Y-77432872D01*
X161619742Y-77594293D01*
X161414293Y-77799742D01*
X161290000Y-77985759D01*
X161165707Y-77799742D01*
X160960258Y-77594293D01*
X160718675Y-77432872D01*
X160450242Y-77321683D01*
X160165275Y-77265000D01*
X159874725Y-77265000D01*
X159589758Y-77321683D01*
X159321325Y-77432872D01*
X159079742Y-77594293D01*
X158874293Y-77799742D01*
X158712872Y-78041325D01*
X158601683Y-78309758D01*
X158545000Y-78594725D01*
X158545000Y-78615000D01*
X157688024Y-78615000D01*
X157688024Y-77890000D01*
X157675957Y-77767479D01*
X157640219Y-77649666D01*
X157582183Y-77541089D01*
X157504080Y-77445920D01*
X157408911Y-77367817D01*
X157300334Y-77309781D01*
X157182521Y-77274043D01*
X157060000Y-77261976D01*
X155360000Y-77261976D01*
X155237479Y-77274043D01*
X155119666Y-77309781D01*
X155011089Y-77367817D01*
X154915920Y-77445920D01*
X154837817Y-77541089D01*
X154779781Y-77649666D01*
X154753213Y-77737248D01*
X154610258Y-77594293D01*
X154368675Y-77432872D01*
X154100242Y-77321683D01*
X153815275Y-77265000D01*
X153524725Y-77265000D01*
X153239758Y-77321683D01*
X152971325Y-77432872D01*
X152729742Y-77594293D01*
X152524293Y-77799742D01*
X152400000Y-77985759D01*
X152275707Y-77799742D01*
X152070258Y-77594293D01*
X151828675Y-77432872D01*
X151560242Y-77321683D01*
X151275275Y-77265000D01*
X150984725Y-77265000D01*
X150699758Y-77321683D01*
X150431325Y-77432872D01*
X150189742Y-77594293D01*
X149984293Y-77799742D01*
X149860000Y-77985759D01*
X149735707Y-77799742D01*
X149530258Y-77594293D01*
X149288675Y-77432872D01*
X149020242Y-77321683D01*
X148735275Y-77265000D01*
X148444725Y-77265000D01*
X148159758Y-77321683D01*
X147891325Y-77432872D01*
X147649742Y-77594293D01*
X147444293Y-77799742D01*
X147320000Y-77985759D01*
X147195707Y-77799742D01*
X146990258Y-77594293D01*
X146748675Y-77432872D01*
X146480242Y-77321683D01*
X146195275Y-77265000D01*
X145904725Y-77265000D01*
X145619758Y-77321683D01*
X145351325Y-77432872D01*
X145109742Y-77594293D01*
X144904293Y-77799742D01*
X144780000Y-77985759D01*
X144655707Y-77799742D01*
X144450258Y-77594293D01*
X144208675Y-77432872D01*
X143940242Y-77321683D01*
X143655275Y-77265000D01*
X143364725Y-77265000D01*
X143079758Y-77321683D01*
X142811325Y-77432872D01*
X142569742Y-77594293D01*
X142364293Y-77799742D01*
X142234348Y-77994219D01*
X142157812Y-77865504D01*
X141964383Y-77650577D01*
X141732740Y-77477515D01*
X141471786Y-77352970D01*
X141323372Y-77307955D01*
X141095000Y-77427188D01*
X141095000Y-78615000D01*
X141115000Y-78615000D01*
X141115000Y-78865000D01*
X141095000Y-78865000D01*
X141095000Y-80052812D01*
X141323372Y-80172045D01*
X141471786Y-80127030D01*
X141732740Y-80002485D01*
X141964383Y-79829423D01*
X142157812Y-79614496D01*
X142234348Y-79485781D01*
X142364293Y-79680258D01*
X142569742Y-79885707D01*
X142811325Y-80047128D01*
X143079758Y-80158317D01*
X143364725Y-80215000D01*
X143655275Y-80215000D01*
X143850211Y-80176225D01*
X151293356Y-87619371D01*
X150756515Y-88156213D01*
X147342783Y-88156213D01*
X147321613Y-88135043D01*
X147153733Y-88022869D01*
X146967195Y-87945603D01*
X146769167Y-87906213D01*
X146567259Y-87906213D01*
X146369231Y-87945603D01*
X146182693Y-88022869D01*
X146014813Y-88135043D01*
X145872043Y-88277813D01*
X145759869Y-88445693D01*
X145682603Y-88632231D01*
X145643213Y-88830259D01*
X145643213Y-89032167D01*
X145682603Y-89230195D01*
X145759869Y-89416733D01*
X145764142Y-89423128D01*
X142246250Y-89423128D01*
X142208187Y-89419379D01*
X142170124Y-89423128D01*
X142170122Y-89423128D01*
X142056261Y-89434342D01*
X141910173Y-89478658D01*
X141858765Y-89506136D01*
X141775536Y-89550622D01*
X141734119Y-89584613D01*
X141657528Y-89647469D01*
X141633259Y-89677041D01*
X139625039Y-91685262D01*
X139595099Y-91685262D01*
X139397071Y-91724652D01*
X139210533Y-91801918D01*
X139042653Y-91914092D01*
X138899883Y-92056862D01*
X138787709Y-92224742D01*
X138710443Y-92411280D01*
X138671053Y-92609308D01*
X138671053Y-92811216D01*
X138710443Y-93009244D01*
X138787709Y-93195782D01*
X138899883Y-93363662D01*
X139042653Y-93506432D01*
X139210533Y-93618606D01*
X139397071Y-93695872D01*
X139595099Y-93735262D01*
X139797007Y-93735262D01*
X139995035Y-93695872D01*
X140181573Y-93618606D01*
X140349453Y-93506432D01*
X140492223Y-93363662D01*
X140604397Y-93195782D01*
X140681663Y-93009244D01*
X140721053Y-92811216D01*
X140721053Y-92781276D01*
X142529202Y-90973128D01*
X142885090Y-90973128D01*
X142165193Y-91693026D01*
X142138179Y-91693026D01*
X141940151Y-91732416D01*
X141753613Y-91809682D01*
X141585733Y-91921856D01*
X141442963Y-92064626D01*
X141330789Y-92232506D01*
X141253523Y-92419044D01*
X141214133Y-92617072D01*
X141214133Y-92818980D01*
X141253523Y-93017008D01*
X141330789Y-93203546D01*
X141442963Y-93371426D01*
X141585733Y-93514196D01*
X141753613Y-93626370D01*
X141940151Y-93703636D01*
X142138179Y-93743026D01*
X142340087Y-93743026D01*
X142538115Y-93703636D01*
X142724653Y-93626370D01*
X142892533Y-93514196D01*
X143035303Y-93371426D01*
X143147477Y-93203546D01*
X143224743Y-93017008D01*
X143264133Y-92818980D01*
X143264133Y-92786114D01*
X143835248Y-92215000D01*
X158772625Y-92215000D01*
X153683915Y-97303711D01*
X153654343Y-97327980D01*
X153628606Y-97359341D01*
X153557495Y-97445989D01*
X153485532Y-97580625D01*
X153441216Y-97726713D01*
X153426252Y-97878639D01*
X153430002Y-97916711D01*
X153430002Y-98385429D01*
X153408831Y-98406600D01*
X153296657Y-98574480D01*
X153219391Y-98761018D01*
X153180001Y-98959046D01*
X153180001Y-99160954D01*
X153219391Y-99358982D01*
X153296657Y-99545520D01*
X153408831Y-99713400D01*
X153551601Y-99856170D01*
X153719481Y-99968344D01*
X153882520Y-100035876D01*
X151396381Y-102522016D01*
X151250054Y-102582626D01*
X151082174Y-102694800D01*
X150939404Y-102837570D01*
X150827230Y-103005450D01*
X150749964Y-103191988D01*
X150738090Y-103251681D01*
X148854432Y-105135339D01*
X147652980Y-105135339D01*
X147677821Y-105075366D01*
X147717211Y-104877338D01*
X147717211Y-104675430D01*
X147677821Y-104477402D01*
X147600555Y-104290864D01*
X147488381Y-104122984D01*
X147345611Y-103980214D01*
X147177731Y-103868040D01*
X146991193Y-103790774D01*
X146793165Y-103751384D01*
X146591257Y-103751384D01*
X146393229Y-103790774D01*
X146206691Y-103868040D01*
X146038811Y-103980214D01*
X146017641Y-104001384D01*
X145444056Y-104001384D01*
X145405993Y-103997635D01*
X145367930Y-104001384D01*
X145367929Y-104001384D01*
X145254068Y-104012598D01*
X145107980Y-104056914D01*
X144973344Y-104128878D01*
X144855335Y-104225725D01*
X144831066Y-104255297D01*
X144470055Y-104616309D01*
X125397325Y-104616309D01*
X123580000Y-102798986D01*
X123580000Y-102769046D01*
X123540610Y-102571018D01*
X123463344Y-102384480D01*
X123351170Y-102216600D01*
X123208400Y-102073830D01*
X123040520Y-101961656D01*
X122853982Y-101884390D01*
X122655954Y-101845000D01*
X122454046Y-101845000D01*
X122256018Y-101884390D01*
X122069480Y-101961656D01*
X121901600Y-102073830D01*
X121758830Y-102216600D01*
X121646656Y-102384480D01*
X121569390Y-102571018D01*
X121530000Y-102769046D01*
X121530000Y-102970954D01*
X121569390Y-103168982D01*
X121646656Y-103355520D01*
X121758830Y-103523400D01*
X121901600Y-103666170D01*
X122069480Y-103778344D01*
X122256018Y-103855610D01*
X122454046Y-103895000D01*
X122483986Y-103895000D01*
X124343984Y-105755000D01*
X122365309Y-105755000D01*
X122218982Y-105694390D01*
X122020954Y-105655000D01*
X121819046Y-105655000D01*
X121621018Y-105694390D01*
X121434480Y-105771656D01*
X121266600Y-105883830D01*
X121230430Y-105920000D01*
X115000000Y-105920000D01*
X115000000Y-99103171D01*
X116908606Y-99103171D01*
X117046951Y-99400824D01*
X117394314Y-99576014D01*
X117769181Y-99680070D01*
X118157145Y-99708995D01*
X118543297Y-99661676D01*
X118912798Y-99539931D01*
X119173049Y-99400824D01*
X119311394Y-99103171D01*
X118110000Y-97901777D01*
X116908606Y-99103171D01*
X115000000Y-99103171D01*
X115000000Y-97772145D01*
X116126005Y-97772145D01*
X116173324Y-98158297D01*
X116295069Y-98527798D01*
X116434176Y-98788049D01*
X116731829Y-98926394D01*
X117933223Y-97725000D01*
X118286777Y-97725000D01*
X119488171Y-98926394D01*
X119785824Y-98788049D01*
X119961014Y-98440686D01*
X120065070Y-98065819D01*
X120093995Y-97677855D01*
X120046676Y-97291703D01*
X119924931Y-96922202D01*
X119785824Y-96661951D01*
X119488171Y-96523606D01*
X118286777Y-97725000D01*
X117933223Y-97725000D01*
X116731829Y-96523606D01*
X116434176Y-96661951D01*
X116258986Y-97009314D01*
X116154930Y-97384181D01*
X116126005Y-97772145D01*
X115000000Y-97772145D01*
X115000000Y-96346829D01*
X116908606Y-96346829D01*
X118110000Y-97548223D01*
X119311394Y-96346829D01*
X119173049Y-96049176D01*
X118825686Y-95873986D01*
X118450819Y-95769930D01*
X118062855Y-95741005D01*
X117676703Y-95788324D01*
X117307202Y-95910069D01*
X117046951Y-96049176D01*
X116908606Y-96346829D01*
X115000000Y-96346829D01*
X115000000Y-93952501D01*
X120029276Y-93952501D01*
X120096412Y-94189832D01*
X120343223Y-94306088D01*
X120607973Y-94371959D01*
X120880486Y-94384915D01*
X121150291Y-94344457D01*
X121407019Y-94252140D01*
X121523588Y-94189832D01*
X121590724Y-93952501D01*
X120810000Y-93171777D01*
X120029276Y-93952501D01*
X115000000Y-93952501D01*
X115000000Y-90667080D01*
X118439511Y-90667080D01*
X118439511Y-90859138D01*
X118476979Y-91047506D01*
X118550477Y-91224945D01*
X118657179Y-91384636D01*
X118792984Y-91520441D01*
X118952675Y-91627143D01*
X119130114Y-91700641D01*
X119287293Y-91731905D01*
X119787929Y-92232542D01*
X119615168Y-92281412D01*
X119498912Y-92528223D01*
X119433041Y-92792973D01*
X119420085Y-93065486D01*
X119460543Y-93335291D01*
X119552860Y-93592019D01*
X119615168Y-93708588D01*
X119852499Y-93775724D01*
X120633223Y-92995000D01*
X120619081Y-92980858D01*
X120795858Y-92804081D01*
X120810000Y-92818223D01*
X120824142Y-92804081D01*
X121000919Y-92980858D01*
X120986777Y-92995000D01*
X121540068Y-93548291D01*
X121582629Y-93651043D01*
X121734201Y-93877886D01*
X121927114Y-94070799D01*
X122153957Y-94222371D01*
X122406011Y-94326775D01*
X122673589Y-94380000D01*
X122946411Y-94380000D01*
X123213989Y-94326775D01*
X123466043Y-94222371D01*
X123692886Y-94070799D01*
X123885799Y-93877886D01*
X124037371Y-93651043D01*
X124141775Y-93398989D01*
X124195000Y-93131411D01*
X124195000Y-92918147D01*
X125081945Y-92031202D01*
X125117238Y-92002238D01*
X125232830Y-91861389D01*
X125318723Y-91700695D01*
X125371615Y-91526332D01*
X125385000Y-91390435D01*
X125385000Y-91390428D01*
X125389474Y-91345001D01*
X125385000Y-91299574D01*
X125385000Y-89580426D01*
X125389474Y-89534999D01*
X125385000Y-89489572D01*
X125385000Y-89489565D01*
X125371615Y-89353668D01*
X125318723Y-89179305D01*
X125232830Y-89018611D01*
X125178294Y-88952159D01*
X125146201Y-88913053D01*
X125146199Y-88913051D01*
X125117238Y-88877762D01*
X125081949Y-88848801D01*
X123876203Y-87643056D01*
X123847238Y-87607762D01*
X123706389Y-87492170D01*
X123545695Y-87406277D01*
X123371332Y-87353385D01*
X123235435Y-87340000D01*
X123235427Y-87340000D01*
X123190000Y-87335526D01*
X123144573Y-87340000D01*
X120460309Y-87340000D01*
X120313982Y-87279390D01*
X120115954Y-87240000D01*
X119914046Y-87240000D01*
X119716018Y-87279390D01*
X119529480Y-87356656D01*
X119361600Y-87468830D01*
X119218830Y-87611600D01*
X119106656Y-87779480D01*
X119029390Y-87966018D01*
X118990000Y-88164046D01*
X118990000Y-88365954D01*
X119029390Y-88563982D01*
X119106656Y-88750520D01*
X119218830Y-88918400D01*
X119361600Y-89061170D01*
X119529480Y-89173344D01*
X119716018Y-89250610D01*
X119914046Y-89290000D01*
X120060612Y-89290000D01*
X119927114Y-89379201D01*
X119734201Y-89572114D01*
X119582629Y-89798957D01*
X119581293Y-89802182D01*
X119510540Y-89788109D01*
X119318482Y-89788109D01*
X119130114Y-89825577D01*
X118952675Y-89899075D01*
X118792984Y-90005777D01*
X118657179Y-90141582D01*
X118550477Y-90301273D01*
X118476979Y-90478712D01*
X118439511Y-90667080D01*
X115000000Y-90667080D01*
X115000000Y-87103171D01*
X116908606Y-87103171D01*
X117046951Y-87400824D01*
X117394314Y-87576014D01*
X117769181Y-87680070D01*
X118157145Y-87708995D01*
X118543297Y-87661676D01*
X118912798Y-87539931D01*
X119173049Y-87400824D01*
X119311394Y-87103171D01*
X118110000Y-85901777D01*
X116908606Y-87103171D01*
X115000000Y-87103171D01*
X115000000Y-85772145D01*
X116126005Y-85772145D01*
X116173324Y-86158297D01*
X116295069Y-86527798D01*
X116434176Y-86788049D01*
X116731829Y-86926394D01*
X117933223Y-85725000D01*
X118286777Y-85725000D01*
X119488171Y-86926394D01*
X119785824Y-86788049D01*
X119961014Y-86440686D01*
X120065070Y-86065819D01*
X120093995Y-85677855D01*
X120046676Y-85291703D01*
X119924931Y-84922202D01*
X119785824Y-84661951D01*
X119488171Y-84523606D01*
X118286777Y-85725000D01*
X117933223Y-85725000D01*
X116731829Y-84523606D01*
X116434176Y-84661951D01*
X116258986Y-85009314D01*
X116154930Y-85384181D01*
X116126005Y-85772145D01*
X115000000Y-85772145D01*
X115000000Y-84346829D01*
X116908606Y-84346829D01*
X118110000Y-85548223D01*
X119304177Y-84354046D01*
X125340000Y-84354046D01*
X125340000Y-84555954D01*
X125379390Y-84753982D01*
X125456656Y-84940520D01*
X125568830Y-85108400D01*
X125711600Y-85251170D01*
X125879480Y-85363344D01*
X126066018Y-85440610D01*
X126264046Y-85480000D01*
X126293985Y-85480000D01*
X126865165Y-86051181D01*
X126865166Y-92056281D01*
X126861416Y-92094354D01*
X126876380Y-92246280D01*
X126920696Y-92392368D01*
X126992659Y-92527004D01*
X127035121Y-92578743D01*
X127089507Y-92645013D01*
X127119079Y-92669282D01*
X131236240Y-96786444D01*
X131146018Y-96804390D01*
X130959480Y-96881656D01*
X130791600Y-96993830D01*
X130648830Y-97136600D01*
X130536656Y-97304480D01*
X130459390Y-97491018D01*
X130420000Y-97689046D01*
X130420000Y-97890954D01*
X130459390Y-98088982D01*
X130536656Y-98275520D01*
X130648830Y-98443400D01*
X130791600Y-98586170D01*
X130959480Y-98698344D01*
X131146018Y-98775610D01*
X131344046Y-98815000D01*
X131545954Y-98815000D01*
X131743982Y-98775610D01*
X131903515Y-98709530D01*
X134588985Y-101395000D01*
X134474725Y-101395000D01*
X134189758Y-101451683D01*
X133921325Y-101562872D01*
X133679742Y-101724293D01*
X133474293Y-101929742D01*
X133350000Y-102115759D01*
X133225707Y-101929742D01*
X133020258Y-101724293D01*
X132778675Y-101562872D01*
X132510242Y-101451683D01*
X132225275Y-101395000D01*
X131934725Y-101395000D01*
X131649758Y-101451683D01*
X131381325Y-101562872D01*
X131139742Y-101724293D01*
X130996787Y-101867248D01*
X130970219Y-101779666D01*
X130912183Y-101671089D01*
X130834080Y-101575920D01*
X130738911Y-101497817D01*
X130630334Y-101439781D01*
X130512521Y-101404043D01*
X130390000Y-101391976D01*
X128690000Y-101391976D01*
X128567479Y-101404043D01*
X128449666Y-101439781D01*
X128341089Y-101497817D01*
X128245920Y-101575920D01*
X128167817Y-101671089D01*
X128109781Y-101779666D01*
X128074043Y-101897479D01*
X128061976Y-102020000D01*
X128061976Y-103720000D01*
X128074043Y-103842521D01*
X128109781Y-103960334D01*
X128167817Y-104068911D01*
X128245920Y-104164080D01*
X128341089Y-104242183D01*
X128449666Y-104300219D01*
X128567479Y-104335957D01*
X128690000Y-104348024D01*
X130390000Y-104348024D01*
X130512521Y-104335957D01*
X130630334Y-104300219D01*
X130738911Y-104242183D01*
X130834080Y-104164080D01*
X130912183Y-104068911D01*
X130970219Y-103960334D01*
X130996787Y-103872752D01*
X131139742Y-104015707D01*
X131381325Y-104177128D01*
X131649758Y-104288317D01*
X131934725Y-104345000D01*
X132225275Y-104345000D01*
X132510242Y-104288317D01*
X132778675Y-104177128D01*
X133020258Y-104015707D01*
X133225707Y-103810258D01*
X133350000Y-103624241D01*
X133474293Y-103810258D01*
X133679742Y-104015707D01*
X133921325Y-104177128D01*
X134189758Y-104288317D01*
X134474725Y-104345000D01*
X134765275Y-104345000D01*
X135050242Y-104288317D01*
X135318675Y-104177128D01*
X135560258Y-104015707D01*
X135765707Y-103810258D01*
X135890000Y-103624241D01*
X136014293Y-103810258D01*
X136219742Y-104015707D01*
X136461325Y-104177128D01*
X136729758Y-104288317D01*
X137014725Y-104345000D01*
X137305275Y-104345000D01*
X137590242Y-104288317D01*
X137858675Y-104177128D01*
X138100258Y-104015707D01*
X138243213Y-103872752D01*
X138269781Y-103960334D01*
X138327817Y-104068911D01*
X138405920Y-104164080D01*
X138501089Y-104242183D01*
X138609666Y-104300219D01*
X138727479Y-104335957D01*
X138850000Y-104348024D01*
X140550000Y-104348024D01*
X140672521Y-104335957D01*
X140790334Y-104300219D01*
X140898911Y-104242183D01*
X140994080Y-104164080D01*
X141072183Y-104068911D01*
X141130219Y-103960334D01*
X141156787Y-103872752D01*
X141299742Y-104015707D01*
X141541325Y-104177128D01*
X141809758Y-104288317D01*
X142094725Y-104345000D01*
X142385275Y-104345000D01*
X142670242Y-104288317D01*
X142938675Y-104177128D01*
X143180258Y-104015707D01*
X143385707Y-103810258D01*
X143547128Y-103568675D01*
X143658317Y-103300242D01*
X143715000Y-103015275D01*
X143715000Y-102724725D01*
X143658317Y-102439758D01*
X143547128Y-102171325D01*
X143385707Y-101929742D01*
X143180258Y-101724293D01*
X143017600Y-101615608D01*
X143018749Y-101603938D01*
X143012444Y-101539923D01*
X143003786Y-101452012D01*
X142959470Y-101305924D01*
X142925971Y-101243251D01*
X142887506Y-101171287D01*
X142840833Y-101114417D01*
X142790659Y-101053279D01*
X142761088Y-101029011D01*
X142175994Y-100443918D01*
X142151721Y-100414341D01*
X142033712Y-100317494D01*
X141899076Y-100245530D01*
X141752988Y-100201214D01*
X141639127Y-100190000D01*
X141639125Y-100190000D01*
X141601062Y-100186251D01*
X141562999Y-100190000D01*
X136831826Y-100190000D01*
X131790872Y-95149046D01*
X134230000Y-95149046D01*
X134230000Y-95350954D01*
X134269390Y-95548982D01*
X134346656Y-95735520D01*
X134458830Y-95903400D01*
X134601600Y-96046170D01*
X134769480Y-96158344D01*
X134956018Y-96235610D01*
X135154046Y-96275000D01*
X135183986Y-96275000D01*
X137861358Y-98952373D01*
X137885627Y-98981945D01*
X137961174Y-99043944D01*
X138003635Y-99078792D01*
X138039693Y-99098065D01*
X138138272Y-99150756D01*
X138284360Y-99195072D01*
X138398221Y-99206286D01*
X138398223Y-99206286D01*
X138436286Y-99210035D01*
X138474349Y-99206286D01*
X143193165Y-99206286D01*
X144858596Y-100871718D01*
X144882865Y-100901290D01*
X144940626Y-100948693D01*
X145000873Y-100998137D01*
X145135509Y-101070101D01*
X145164542Y-101078908D01*
X145281598Y-101114417D01*
X145395459Y-101125631D01*
X145395461Y-101125631D01*
X145433524Y-101129380D01*
X145471587Y-101125631D01*
X146635981Y-101125631D01*
X146657151Y-101146801D01*
X146825031Y-101258975D01*
X147011569Y-101336241D01*
X147209597Y-101375631D01*
X147411505Y-101375631D01*
X147609533Y-101336241D01*
X147796071Y-101258975D01*
X147963951Y-101146801D01*
X148106721Y-101004031D01*
X148218895Y-100836151D01*
X148296161Y-100649613D01*
X148335551Y-100451585D01*
X148335551Y-100249677D01*
X148296161Y-100051649D01*
X148218895Y-99865111D01*
X148106721Y-99697231D01*
X147963951Y-99554461D01*
X147796071Y-99442287D01*
X147609533Y-99365021D01*
X147411505Y-99325631D01*
X147209597Y-99325631D01*
X147011569Y-99365021D01*
X146825031Y-99442287D01*
X146657151Y-99554461D01*
X146635981Y-99575631D01*
X145754539Y-99575631D01*
X144578906Y-98399999D01*
X148103985Y-98399999D01*
X148200000Y-98496014D01*
X148200000Y-98525954D01*
X148239390Y-98723982D01*
X148316656Y-98910520D01*
X148428830Y-99078400D01*
X148571600Y-99221170D01*
X148739480Y-99333344D01*
X148926018Y-99410610D01*
X149124046Y-99450000D01*
X149325954Y-99450000D01*
X149523982Y-99410610D01*
X149710520Y-99333344D01*
X149878400Y-99221170D01*
X150021170Y-99078400D01*
X150133344Y-98910520D01*
X150177500Y-98803917D01*
X150221656Y-98910520D01*
X150333830Y-99078400D01*
X150476600Y-99221170D01*
X150644480Y-99333344D01*
X150831018Y-99410610D01*
X151029046Y-99450000D01*
X151230954Y-99450000D01*
X151428982Y-99410610D01*
X151615520Y-99333344D01*
X151783400Y-99221170D01*
X151926170Y-99078400D01*
X152038344Y-98910520D01*
X152115610Y-98723982D01*
X152155000Y-98525954D01*
X152155000Y-98324046D01*
X152115610Y-98126018D01*
X152038344Y-97939480D01*
X151926170Y-97771600D01*
X151783400Y-97628830D01*
X151615520Y-97516656D01*
X151428982Y-97439390D01*
X151230954Y-97400000D01*
X151201015Y-97400000D01*
X149807737Y-96006723D01*
X149783464Y-95977146D01*
X149665455Y-95880299D01*
X149530819Y-95808335D01*
X149384731Y-95764019D01*
X149270870Y-95752805D01*
X149270868Y-95752805D01*
X149232805Y-95749056D01*
X149194742Y-95752805D01*
X143832427Y-95752805D01*
X143258851Y-95179230D01*
X143258851Y-95147108D01*
X143219461Y-94949080D01*
X143142195Y-94762542D01*
X143030021Y-94594662D01*
X142887251Y-94451892D01*
X142719371Y-94339718D01*
X142532833Y-94262452D01*
X142334805Y-94223062D01*
X142132897Y-94223062D01*
X141934869Y-94262452D01*
X141748331Y-94339718D01*
X141580451Y-94451892D01*
X141437681Y-94594662D01*
X141325507Y-94762542D01*
X141248241Y-94949080D01*
X141208851Y-95147108D01*
X141208851Y-95349016D01*
X141248241Y-95547044D01*
X141325507Y-95733582D01*
X141437681Y-95901462D01*
X141580451Y-96044232D01*
X141748331Y-96156406D01*
X141934869Y-96233672D01*
X142132897Y-96273062D01*
X142160655Y-96273062D01*
X142737591Y-96849999D01*
X139221014Y-96849999D01*
X137550000Y-95178986D01*
X137550000Y-95149046D01*
X137510610Y-94951018D01*
X137433344Y-94764480D01*
X137321170Y-94596600D01*
X137178400Y-94453830D01*
X137010520Y-94341656D01*
X136823982Y-94264390D01*
X136625954Y-94225000D01*
X136424046Y-94225000D01*
X136226018Y-94264390D01*
X136039480Y-94341656D01*
X135890000Y-94441535D01*
X135740520Y-94341656D01*
X135553982Y-94264390D01*
X135355954Y-94225000D01*
X135154046Y-94225000D01*
X134956018Y-94264390D01*
X134769480Y-94341656D01*
X134601600Y-94453830D01*
X134458830Y-94596600D01*
X134346656Y-94764480D01*
X134269390Y-94951018D01*
X134230000Y-95149046D01*
X131790872Y-95149046D01*
X128415165Y-91773340D01*
X128415165Y-87494574D01*
X129435000Y-87494574D01*
X129435000Y-87765426D01*
X129487841Y-88031073D01*
X129591491Y-88281307D01*
X129741968Y-88506511D01*
X129933489Y-88698032D01*
X130158693Y-88848509D01*
X130408927Y-88952159D01*
X130674574Y-89005000D01*
X130945426Y-89005000D01*
X131211073Y-88952159D01*
X131461307Y-88848509D01*
X131686511Y-88698032D01*
X131878032Y-88506511D01*
X132028509Y-88281307D01*
X132132159Y-88031073D01*
X132185000Y-87765426D01*
X132185000Y-87494574D01*
X134315000Y-87494574D01*
X134315000Y-87765426D01*
X134367841Y-88031073D01*
X134471491Y-88281307D01*
X134621968Y-88506511D01*
X134813489Y-88698032D01*
X135038693Y-88848509D01*
X135288927Y-88952159D01*
X135554574Y-89005000D01*
X135825426Y-89005000D01*
X136091073Y-88952159D01*
X136341307Y-88848509D01*
X136566511Y-88698032D01*
X136758032Y-88506511D01*
X136908509Y-88281307D01*
X137012159Y-88031073D01*
X137065000Y-87765426D01*
X137065000Y-87494574D01*
X137012159Y-87228927D01*
X136908509Y-86978693D01*
X136758032Y-86753489D01*
X136566511Y-86561968D01*
X136341307Y-86411491D01*
X136091073Y-86307841D01*
X135825426Y-86255000D01*
X135554574Y-86255000D01*
X135288927Y-86307841D01*
X135038693Y-86411491D01*
X134813489Y-86561968D01*
X134621968Y-86753489D01*
X134471491Y-86978693D01*
X134367841Y-87228927D01*
X134315000Y-87494574D01*
X132185000Y-87494574D01*
X132132159Y-87228927D01*
X132028509Y-86978693D01*
X131878032Y-86753489D01*
X131686511Y-86561968D01*
X131461307Y-86411491D01*
X131211073Y-86307841D01*
X130945426Y-86255000D01*
X130674574Y-86255000D01*
X130408927Y-86307841D01*
X130158693Y-86411491D01*
X129933489Y-86561968D01*
X129741968Y-86753489D01*
X129591491Y-86978693D01*
X129487841Y-87228927D01*
X129435000Y-87494574D01*
X128415165Y-87494574D01*
X128415165Y-85768228D01*
X128418914Y-85730165D01*
X128413762Y-85677855D01*
X128403951Y-85578239D01*
X128362201Y-85440610D01*
X128359635Y-85432150D01*
X128287671Y-85297514D01*
X128215089Y-85209073D01*
X128215088Y-85209072D01*
X128190824Y-85179506D01*
X128161258Y-85155242D01*
X127390000Y-84383985D01*
X127390000Y-84354046D01*
X127350610Y-84156018D01*
X127273344Y-83969480D01*
X127161170Y-83801600D01*
X127018400Y-83658830D01*
X126850520Y-83546656D01*
X126663982Y-83469390D01*
X126465954Y-83430000D01*
X126264046Y-83430000D01*
X126066018Y-83469390D01*
X125879480Y-83546656D01*
X125711600Y-83658830D01*
X125568830Y-83801600D01*
X125456656Y-83969480D01*
X125379390Y-84156018D01*
X125340000Y-84354046D01*
X119304177Y-84354046D01*
X119311394Y-84346829D01*
X119173049Y-84049176D01*
X118825686Y-83873986D01*
X118450819Y-83769930D01*
X118062855Y-83741005D01*
X117676703Y-83788324D01*
X117307202Y-83910069D01*
X117046951Y-84049176D01*
X116908606Y-84346829D01*
X115000000Y-84346829D01*
X115000000Y-76900000D01*
X128288860Y-76900000D01*
X128121645Y-77011730D01*
G37*
X128121645Y-77011730D02*
X127811730Y-77321645D01*
X127568230Y-77686067D01*
X127400505Y-78090991D01*
X127315000Y-78520857D01*
X127315000Y-78959143D01*
X127400505Y-79389009D01*
X127568230Y-79793933D01*
X127811730Y-80158355D01*
X128121645Y-80468270D01*
X128486067Y-80711770D01*
X128890991Y-80879495D01*
X129320857Y-80965000D01*
X129759143Y-80965000D01*
X130189009Y-80879495D01*
X130593933Y-80711770D01*
X130958355Y-80468270D01*
X131268270Y-80158355D01*
X131511770Y-79793933D01*
X131679495Y-79389009D01*
X131765000Y-78959143D01*
X131765000Y-78594725D01*
X131875000Y-78594725D01*
X131875000Y-78885275D01*
X131931683Y-79170242D01*
X132042872Y-79438675D01*
X132204293Y-79680258D01*
X132409742Y-79885707D01*
X132651325Y-80047128D01*
X132919758Y-80158317D01*
X133204725Y-80215000D01*
X133495275Y-80215000D01*
X133780242Y-80158317D01*
X134048675Y-80047128D01*
X134290258Y-79885707D01*
X134495707Y-79680258D01*
X134620000Y-79494241D01*
X134744293Y-79680258D01*
X134949742Y-79885707D01*
X135191325Y-80047128D01*
X135459758Y-80158317D01*
X135744725Y-80215000D01*
X136035275Y-80215000D01*
X136320242Y-80158317D01*
X136588675Y-80047128D01*
X136830258Y-79885707D01*
X137035707Y-79680258D01*
X137160000Y-79494241D01*
X137284293Y-79680258D01*
X137489742Y-79885707D01*
X137731325Y-80047128D01*
X137999758Y-80158317D01*
X138284725Y-80215000D01*
X138575275Y-80215000D01*
X138860242Y-80158317D01*
X139128675Y-80047128D01*
X139370258Y-79885707D01*
X139575707Y-79680258D01*
X139705652Y-79485781D01*
X139782188Y-79614496D01*
X139975617Y-79829423D01*
X140207260Y-80002485D01*
X140468214Y-80127030D01*
X140616628Y-80172045D01*
X140845000Y-80052812D01*
X140845000Y-78865000D01*
X140825000Y-78865000D01*
X140825000Y-78615000D01*
X140845000Y-78615000D01*
X140845000Y-77427188D01*
X140616628Y-77307955D01*
X140468214Y-77352970D01*
X140207260Y-77477515D01*
X139975617Y-77650577D01*
X139782188Y-77865504D01*
X139705652Y-77994219D01*
X139575707Y-77799742D01*
X139370258Y-77594293D01*
X139128675Y-77432872D01*
X138860242Y-77321683D01*
X138575275Y-77265000D01*
X138284725Y-77265000D01*
X137999758Y-77321683D01*
X137731325Y-77432872D01*
X137489742Y-77594293D01*
X137284293Y-77799742D01*
X137160000Y-77985759D01*
X137035707Y-77799742D01*
X136830258Y-77594293D01*
X136588675Y-77432872D01*
X136320242Y-77321683D01*
X136035275Y-77265000D01*
X135744725Y-77265000D01*
X135459758Y-77321683D01*
X135191325Y-77432872D01*
X134949742Y-77594293D01*
X134744293Y-77799742D01*
X134620000Y-77985759D01*
X134495707Y-77799742D01*
X134290258Y-77594293D01*
X134048675Y-77432872D01*
X133780242Y-77321683D01*
X133495275Y-77265000D01*
X133204725Y-77265000D01*
X132919758Y-77321683D01*
X132651325Y-77432872D01*
X132409742Y-77594293D01*
X132204293Y-77799742D01*
X132042872Y-78041325D01*
X131931683Y-78309758D01*
X131875000Y-78594725D01*
X131765000Y-78594725D01*
X131765000Y-78520857D01*
X131679495Y-78090991D01*
X131511770Y-77686067D01*
X131268270Y-77321645D01*
X130958355Y-77011730D01*
X130791140Y-76900000D01*
X178780051Y-76900000D01*
X179640001Y-77759950D01*
X179640000Y-88865613D01*
X179636613Y-88900000D01*
X179640000Y-88934387D01*
X179640000Y-88934389D01*
X179650128Y-89037223D01*
X179676368Y-89123723D01*
X179690155Y-89169174D01*
X179755155Y-89290781D01*
X179815132Y-89363863D01*
X179842630Y-89397369D01*
X179869343Y-89419292D01*
X182180001Y-91729950D01*
X182180001Y-92728862D01*
X182068270Y-92561645D01*
X181758355Y-92251730D01*
X181393933Y-92008230D01*
X180989009Y-91840505D01*
X180559143Y-91755000D01*
X180120857Y-91755000D01*
X179690991Y-91840505D01*
X179286067Y-92008230D01*
X178921645Y-92251730D01*
X178611730Y-92561645D01*
X178546778Y-92658852D01*
X178546778Y-89908299D01*
X178550527Y-89870236D01*
X178546128Y-89825577D01*
X178535564Y-89718311D01*
X178491248Y-89572223D01*
X178419284Y-89437587D01*
X178322437Y-89319578D01*
X178292866Y-89295310D01*
X174995822Y-85998267D01*
X174971549Y-85968690D01*
X174853540Y-85871843D01*
X174718904Y-85799879D01*
X174572816Y-85755563D01*
X174458955Y-85744349D01*
X174458953Y-85744349D01*
X174420890Y-85740600D01*
X174382827Y-85744349D01*
X172913210Y-85744349D01*
X173011154Y-85597765D01*
X173088420Y-85411227D01*
X173127810Y-85213199D01*
X173127810Y-85011291D01*
X173088420Y-84813263D01*
X173011154Y-84626725D01*
X172898980Y-84458845D01*
X172756210Y-84316075D01*
X172588330Y-84203901D01*
X172401792Y-84126635D01*
X172203764Y-84087245D01*
X172164777Y-84087245D01*
X171635904Y-83558373D01*
X171738169Y-83538031D01*
X171924707Y-83460765D01*
X172092587Y-83348591D01*
X172235357Y-83205821D01*
X172347531Y-83037941D01*
X172424797Y-82851403D01*
X172464187Y-82653375D01*
X172464187Y-82451467D01*
X172424797Y-82253439D01*
X172347531Y-82066901D01*
X172235357Y-81899021D01*
X172214187Y-81877851D01*
X172214187Y-80127014D01*
X172289758Y-80158317D01*
X172574725Y-80215000D01*
X172865275Y-80215000D01*
X173150242Y-80158317D01*
X173418675Y-80047128D01*
X173660258Y-79885707D01*
X173865707Y-79680258D01*
X173990000Y-79494241D01*
X174114293Y-79680258D01*
X174319742Y-79885707D01*
X174561325Y-80047128D01*
X174829758Y-80158317D01*
X175114725Y-80215000D01*
X175405275Y-80215000D01*
X175690242Y-80158317D01*
X175958675Y-80047128D01*
X176200258Y-79885707D01*
X176343213Y-79742752D01*
X176369781Y-79830334D01*
X176427817Y-79938911D01*
X176505920Y-80034080D01*
X176601089Y-80112183D01*
X176709666Y-80170219D01*
X176827479Y-80205957D01*
X176950000Y-80218024D01*
X178650000Y-80218024D01*
X178772521Y-80205957D01*
X178890334Y-80170219D01*
X178998911Y-80112183D01*
X179094080Y-80034080D01*
X179172183Y-79938911D01*
X179230219Y-79830334D01*
X179265957Y-79712521D01*
X179278024Y-79590000D01*
X179278024Y-77890000D01*
X179265957Y-77767479D01*
X179230219Y-77649666D01*
X179172183Y-77541089D01*
X179094080Y-77445920D01*
X178998911Y-77367817D01*
X178890334Y-77309781D01*
X178772521Y-77274043D01*
X178650000Y-77261976D01*
X176950000Y-77261976D01*
X176827479Y-77274043D01*
X176709666Y-77309781D01*
X176601089Y-77367817D01*
X176505920Y-77445920D01*
X176427817Y-77541089D01*
X176369781Y-77649666D01*
X176343213Y-77737248D01*
X176200258Y-77594293D01*
X175958675Y-77432872D01*
X175690242Y-77321683D01*
X175405275Y-77265000D01*
X175114725Y-77265000D01*
X174829758Y-77321683D01*
X174561325Y-77432872D01*
X174319742Y-77594293D01*
X174114293Y-77799742D01*
X173990000Y-77985759D01*
X173865707Y-77799742D01*
X173660258Y-77594293D01*
X173418675Y-77432872D01*
X173150242Y-77321683D01*
X172865275Y-77265000D01*
X172574725Y-77265000D01*
X172289758Y-77321683D01*
X172021325Y-77432872D01*
X171779742Y-77594293D01*
X171574293Y-77799742D01*
X171450000Y-77985759D01*
X171325707Y-77799742D01*
X171120258Y-77594293D01*
X170878675Y-77432872D01*
X170610242Y-77321683D01*
X170325275Y-77265000D01*
X170034725Y-77265000D01*
X169749758Y-77321683D01*
X169481325Y-77432872D01*
X169239742Y-77594293D01*
X169034293Y-77799742D01*
X168910000Y-77985759D01*
X168785707Y-77799742D01*
X168580258Y-77594293D01*
X168338675Y-77432872D01*
X168070242Y-77321683D01*
X167785275Y-77265000D01*
X167494725Y-77265000D01*
X167209758Y-77321683D01*
X166941325Y-77432872D01*
X166699742Y-77594293D01*
X166494293Y-77799742D01*
X166370000Y-77985759D01*
X166245707Y-77799742D01*
X166040258Y-77594293D01*
X165798675Y-77432872D01*
X165530242Y-77321683D01*
X165245275Y-77265000D01*
X164954725Y-77265000D01*
X164669758Y-77321683D01*
X164401325Y-77432872D01*
X164159742Y-77594293D01*
X163954293Y-77799742D01*
X163830000Y-77985759D01*
X163705707Y-77799742D01*
X163500258Y-77594293D01*
X163258675Y-77432872D01*
X162990242Y-77321683D01*
X162705275Y-77265000D01*
X162414725Y-77265000D01*
X162129758Y-77321683D01*
X161861325Y-77432872D01*
X161619742Y-77594293D01*
X161414293Y-77799742D01*
X161290000Y-77985759D01*
X161165707Y-77799742D01*
X160960258Y-77594293D01*
X160718675Y-77432872D01*
X160450242Y-77321683D01*
X160165275Y-77265000D01*
X159874725Y-77265000D01*
X159589758Y-77321683D01*
X159321325Y-77432872D01*
X159079742Y-77594293D01*
X158874293Y-77799742D01*
X158712872Y-78041325D01*
X158601683Y-78309758D01*
X158545000Y-78594725D01*
X158545000Y-78615000D01*
X157688024Y-78615000D01*
X157688024Y-77890000D01*
X157675957Y-77767479D01*
X157640219Y-77649666D01*
X157582183Y-77541089D01*
X157504080Y-77445920D01*
X157408911Y-77367817D01*
X157300334Y-77309781D01*
X157182521Y-77274043D01*
X157060000Y-77261976D01*
X155360000Y-77261976D01*
X155237479Y-77274043D01*
X155119666Y-77309781D01*
X155011089Y-77367817D01*
X154915920Y-77445920D01*
X154837817Y-77541089D01*
X154779781Y-77649666D01*
X154753213Y-77737248D01*
X154610258Y-77594293D01*
X154368675Y-77432872D01*
X154100242Y-77321683D01*
X153815275Y-77265000D01*
X153524725Y-77265000D01*
X153239758Y-77321683D01*
X152971325Y-77432872D01*
X152729742Y-77594293D01*
X152524293Y-77799742D01*
X152400000Y-77985759D01*
X152275707Y-77799742D01*
X152070258Y-77594293D01*
X151828675Y-77432872D01*
X151560242Y-77321683D01*
X151275275Y-77265000D01*
X150984725Y-77265000D01*
X150699758Y-77321683D01*
X150431325Y-77432872D01*
X150189742Y-77594293D01*
X149984293Y-77799742D01*
X149860000Y-77985759D01*
X149735707Y-77799742D01*
X149530258Y-77594293D01*
X149288675Y-77432872D01*
X149020242Y-77321683D01*
X148735275Y-77265000D01*
X148444725Y-77265000D01*
X148159758Y-77321683D01*
X147891325Y-77432872D01*
X147649742Y-77594293D01*
X147444293Y-77799742D01*
X147320000Y-77985759D01*
X147195707Y-77799742D01*
X146990258Y-77594293D01*
X146748675Y-77432872D01*
X146480242Y-77321683D01*
X146195275Y-77265000D01*
X145904725Y-77265000D01*
X145619758Y-77321683D01*
X145351325Y-77432872D01*
X145109742Y-77594293D01*
X144904293Y-77799742D01*
X144780000Y-77985759D01*
X144655707Y-77799742D01*
X144450258Y-77594293D01*
X144208675Y-77432872D01*
X143940242Y-77321683D01*
X143655275Y-77265000D01*
X143364725Y-77265000D01*
X143079758Y-77321683D01*
X142811325Y-77432872D01*
X142569742Y-77594293D01*
X142364293Y-77799742D01*
X142234348Y-77994219D01*
X142157812Y-77865504D01*
X141964383Y-77650577D01*
X141732740Y-77477515D01*
X141471786Y-77352970D01*
X141323372Y-77307955D01*
X141095000Y-77427188D01*
X141095000Y-78615000D01*
X141115000Y-78615000D01*
X141115000Y-78865000D01*
X141095000Y-78865000D01*
X141095000Y-80052812D01*
X141323372Y-80172045D01*
X141471786Y-80127030D01*
X141732740Y-80002485D01*
X141964383Y-79829423D01*
X142157812Y-79614496D01*
X142234348Y-79485781D01*
X142364293Y-79680258D01*
X142569742Y-79885707D01*
X142811325Y-80047128D01*
X143079758Y-80158317D01*
X143364725Y-80215000D01*
X143655275Y-80215000D01*
X143850211Y-80176225D01*
X151293356Y-87619371D01*
X150756515Y-88156213D01*
X147342783Y-88156213D01*
X147321613Y-88135043D01*
X147153733Y-88022869D01*
X146967195Y-87945603D01*
X146769167Y-87906213D01*
X146567259Y-87906213D01*
X146369231Y-87945603D01*
X146182693Y-88022869D01*
X146014813Y-88135043D01*
X145872043Y-88277813D01*
X145759869Y-88445693D01*
X145682603Y-88632231D01*
X145643213Y-88830259D01*
X145643213Y-89032167D01*
X145682603Y-89230195D01*
X145759869Y-89416733D01*
X145764142Y-89423128D01*
X142246250Y-89423128D01*
X142208187Y-89419379D01*
X142170124Y-89423128D01*
X142170122Y-89423128D01*
X142056261Y-89434342D01*
X141910173Y-89478658D01*
X141858765Y-89506136D01*
X141775536Y-89550622D01*
X141734119Y-89584613D01*
X141657528Y-89647469D01*
X141633259Y-89677041D01*
X139625039Y-91685262D01*
X139595099Y-91685262D01*
X139397071Y-91724652D01*
X139210533Y-91801918D01*
X139042653Y-91914092D01*
X138899883Y-92056862D01*
X138787709Y-92224742D01*
X138710443Y-92411280D01*
X138671053Y-92609308D01*
X138671053Y-92811216D01*
X138710443Y-93009244D01*
X138787709Y-93195782D01*
X138899883Y-93363662D01*
X139042653Y-93506432D01*
X139210533Y-93618606D01*
X139397071Y-93695872D01*
X139595099Y-93735262D01*
X139797007Y-93735262D01*
X139995035Y-93695872D01*
X140181573Y-93618606D01*
X140349453Y-93506432D01*
X140492223Y-93363662D01*
X140604397Y-93195782D01*
X140681663Y-93009244D01*
X140721053Y-92811216D01*
X140721053Y-92781276D01*
X142529202Y-90973128D01*
X142885090Y-90973128D01*
X142165193Y-91693026D01*
X142138179Y-91693026D01*
X141940151Y-91732416D01*
X141753613Y-91809682D01*
X141585733Y-91921856D01*
X141442963Y-92064626D01*
X141330789Y-92232506D01*
X141253523Y-92419044D01*
X141214133Y-92617072D01*
X141214133Y-92818980D01*
X141253523Y-93017008D01*
X141330789Y-93203546D01*
X141442963Y-93371426D01*
X141585733Y-93514196D01*
X141753613Y-93626370D01*
X141940151Y-93703636D01*
X142138179Y-93743026D01*
X142340087Y-93743026D01*
X142538115Y-93703636D01*
X142724653Y-93626370D01*
X142892533Y-93514196D01*
X143035303Y-93371426D01*
X143147477Y-93203546D01*
X143224743Y-93017008D01*
X143264133Y-92818980D01*
X143264133Y-92786114D01*
X143835248Y-92215000D01*
X158772625Y-92215000D01*
X153683915Y-97303711D01*
X153654343Y-97327980D01*
X153628606Y-97359341D01*
X153557495Y-97445989D01*
X153485532Y-97580625D01*
X153441216Y-97726713D01*
X153426252Y-97878639D01*
X153430002Y-97916711D01*
X153430002Y-98385429D01*
X153408831Y-98406600D01*
X153296657Y-98574480D01*
X153219391Y-98761018D01*
X153180001Y-98959046D01*
X153180001Y-99160954D01*
X153219391Y-99358982D01*
X153296657Y-99545520D01*
X153408831Y-99713400D01*
X153551601Y-99856170D01*
X153719481Y-99968344D01*
X153882520Y-100035876D01*
X151396381Y-102522016D01*
X151250054Y-102582626D01*
X151082174Y-102694800D01*
X150939404Y-102837570D01*
X150827230Y-103005450D01*
X150749964Y-103191988D01*
X150738090Y-103251681D01*
X148854432Y-105135339D01*
X147652980Y-105135339D01*
X147677821Y-105075366D01*
X147717211Y-104877338D01*
X147717211Y-104675430D01*
X147677821Y-104477402D01*
X147600555Y-104290864D01*
X147488381Y-104122984D01*
X147345611Y-103980214D01*
X147177731Y-103868040D01*
X146991193Y-103790774D01*
X146793165Y-103751384D01*
X146591257Y-103751384D01*
X146393229Y-103790774D01*
X146206691Y-103868040D01*
X146038811Y-103980214D01*
X146017641Y-104001384D01*
X145444056Y-104001384D01*
X145405993Y-103997635D01*
X145367930Y-104001384D01*
X145367929Y-104001384D01*
X145254068Y-104012598D01*
X145107980Y-104056914D01*
X144973344Y-104128878D01*
X144855335Y-104225725D01*
X144831066Y-104255297D01*
X144470055Y-104616309D01*
X125397325Y-104616309D01*
X123580000Y-102798986D01*
X123580000Y-102769046D01*
X123540610Y-102571018D01*
X123463344Y-102384480D01*
X123351170Y-102216600D01*
X123208400Y-102073830D01*
X123040520Y-101961656D01*
X122853982Y-101884390D01*
X122655954Y-101845000D01*
X122454046Y-101845000D01*
X122256018Y-101884390D01*
X122069480Y-101961656D01*
X121901600Y-102073830D01*
X121758830Y-102216600D01*
X121646656Y-102384480D01*
X121569390Y-102571018D01*
X121530000Y-102769046D01*
X121530000Y-102970954D01*
X121569390Y-103168982D01*
X121646656Y-103355520D01*
X121758830Y-103523400D01*
X121901600Y-103666170D01*
X122069480Y-103778344D01*
X122256018Y-103855610D01*
X122454046Y-103895000D01*
X122483986Y-103895000D01*
X124343984Y-105755000D01*
X122365309Y-105755000D01*
X122218982Y-105694390D01*
X122020954Y-105655000D01*
X121819046Y-105655000D01*
X121621018Y-105694390D01*
X121434480Y-105771656D01*
X121266600Y-105883830D01*
X121230430Y-105920000D01*
X115000000Y-105920000D01*
X115000000Y-99103171D01*
X116908606Y-99103171D01*
X117046951Y-99400824D01*
X117394314Y-99576014D01*
X117769181Y-99680070D01*
X118157145Y-99708995D01*
X118543297Y-99661676D01*
X118912798Y-99539931D01*
X119173049Y-99400824D01*
X119311394Y-99103171D01*
X118110000Y-97901777D01*
X116908606Y-99103171D01*
X115000000Y-99103171D01*
X115000000Y-97772145D01*
X116126005Y-97772145D01*
X116173324Y-98158297D01*
X116295069Y-98527798D01*
X116434176Y-98788049D01*
X116731829Y-98926394D01*
X117933223Y-97725000D01*
X118286777Y-97725000D01*
X119488171Y-98926394D01*
X119785824Y-98788049D01*
X119961014Y-98440686D01*
X120065070Y-98065819D01*
X120093995Y-97677855D01*
X120046676Y-97291703D01*
X119924931Y-96922202D01*
X119785824Y-96661951D01*
X119488171Y-96523606D01*
X118286777Y-97725000D01*
X117933223Y-97725000D01*
X116731829Y-96523606D01*
X116434176Y-96661951D01*
X116258986Y-97009314D01*
X116154930Y-97384181D01*
X116126005Y-97772145D01*
X115000000Y-97772145D01*
X115000000Y-96346829D01*
X116908606Y-96346829D01*
X118110000Y-97548223D01*
X119311394Y-96346829D01*
X119173049Y-96049176D01*
X118825686Y-95873986D01*
X118450819Y-95769930D01*
X118062855Y-95741005D01*
X117676703Y-95788324D01*
X117307202Y-95910069D01*
X117046951Y-96049176D01*
X116908606Y-96346829D01*
X115000000Y-96346829D01*
X115000000Y-93952501D01*
X120029276Y-93952501D01*
X120096412Y-94189832D01*
X120343223Y-94306088D01*
X120607973Y-94371959D01*
X120880486Y-94384915D01*
X121150291Y-94344457D01*
X121407019Y-94252140D01*
X121523588Y-94189832D01*
X121590724Y-93952501D01*
X120810000Y-93171777D01*
X120029276Y-93952501D01*
X115000000Y-93952501D01*
X115000000Y-90667080D01*
X118439511Y-90667080D01*
X118439511Y-90859138D01*
X118476979Y-91047506D01*
X118550477Y-91224945D01*
X118657179Y-91384636D01*
X118792984Y-91520441D01*
X118952675Y-91627143D01*
X119130114Y-91700641D01*
X119287293Y-91731905D01*
X119787929Y-92232542D01*
X119615168Y-92281412D01*
X119498912Y-92528223D01*
X119433041Y-92792973D01*
X119420085Y-93065486D01*
X119460543Y-93335291D01*
X119552860Y-93592019D01*
X119615168Y-93708588D01*
X119852499Y-93775724D01*
X120633223Y-92995000D01*
X120619081Y-92980858D01*
X120795858Y-92804081D01*
X120810000Y-92818223D01*
X120824142Y-92804081D01*
X121000919Y-92980858D01*
X120986777Y-92995000D01*
X121540068Y-93548291D01*
X121582629Y-93651043D01*
X121734201Y-93877886D01*
X121927114Y-94070799D01*
X122153957Y-94222371D01*
X122406011Y-94326775D01*
X122673589Y-94380000D01*
X122946411Y-94380000D01*
X123213989Y-94326775D01*
X123466043Y-94222371D01*
X123692886Y-94070799D01*
X123885799Y-93877886D01*
X124037371Y-93651043D01*
X124141775Y-93398989D01*
X124195000Y-93131411D01*
X124195000Y-92918147D01*
X125081945Y-92031202D01*
X125117238Y-92002238D01*
X125232830Y-91861389D01*
X125318723Y-91700695D01*
X125371615Y-91526332D01*
X125385000Y-91390435D01*
X125385000Y-91390428D01*
X125389474Y-91345001D01*
X125385000Y-91299574D01*
X125385000Y-89580426D01*
X125389474Y-89534999D01*
X125385000Y-89489572D01*
X125385000Y-89489565D01*
X125371615Y-89353668D01*
X125318723Y-89179305D01*
X125232830Y-89018611D01*
X125178294Y-88952159D01*
X125146201Y-88913053D01*
X125146199Y-88913051D01*
X125117238Y-88877762D01*
X125081949Y-88848801D01*
X123876203Y-87643056D01*
X123847238Y-87607762D01*
X123706389Y-87492170D01*
X123545695Y-87406277D01*
X123371332Y-87353385D01*
X123235435Y-87340000D01*
X123235427Y-87340000D01*
X123190000Y-87335526D01*
X123144573Y-87340000D01*
X120460309Y-87340000D01*
X120313982Y-87279390D01*
X120115954Y-87240000D01*
X119914046Y-87240000D01*
X119716018Y-87279390D01*
X119529480Y-87356656D01*
X119361600Y-87468830D01*
X119218830Y-87611600D01*
X119106656Y-87779480D01*
X119029390Y-87966018D01*
X118990000Y-88164046D01*
X118990000Y-88365954D01*
X119029390Y-88563982D01*
X119106656Y-88750520D01*
X119218830Y-88918400D01*
X119361600Y-89061170D01*
X119529480Y-89173344D01*
X119716018Y-89250610D01*
X119914046Y-89290000D01*
X120060612Y-89290000D01*
X119927114Y-89379201D01*
X119734201Y-89572114D01*
X119582629Y-89798957D01*
X119581293Y-89802182D01*
X119510540Y-89788109D01*
X119318482Y-89788109D01*
X119130114Y-89825577D01*
X118952675Y-89899075D01*
X118792984Y-90005777D01*
X118657179Y-90141582D01*
X118550477Y-90301273D01*
X118476979Y-90478712D01*
X118439511Y-90667080D01*
X115000000Y-90667080D01*
X115000000Y-87103171D01*
X116908606Y-87103171D01*
X117046951Y-87400824D01*
X117394314Y-87576014D01*
X117769181Y-87680070D01*
X118157145Y-87708995D01*
X118543297Y-87661676D01*
X118912798Y-87539931D01*
X119173049Y-87400824D01*
X119311394Y-87103171D01*
X118110000Y-85901777D01*
X116908606Y-87103171D01*
X115000000Y-87103171D01*
X115000000Y-85772145D01*
X116126005Y-85772145D01*
X116173324Y-86158297D01*
X116295069Y-86527798D01*
X116434176Y-86788049D01*
X116731829Y-86926394D01*
X117933223Y-85725000D01*
X118286777Y-85725000D01*
X119488171Y-86926394D01*
X119785824Y-86788049D01*
X119961014Y-86440686D01*
X120065070Y-86065819D01*
X120093995Y-85677855D01*
X120046676Y-85291703D01*
X119924931Y-84922202D01*
X119785824Y-84661951D01*
X119488171Y-84523606D01*
X118286777Y-85725000D01*
X117933223Y-85725000D01*
X116731829Y-84523606D01*
X116434176Y-84661951D01*
X116258986Y-85009314D01*
X116154930Y-85384181D01*
X116126005Y-85772145D01*
X115000000Y-85772145D01*
X115000000Y-84346829D01*
X116908606Y-84346829D01*
X118110000Y-85548223D01*
X119304177Y-84354046D01*
X125340000Y-84354046D01*
X125340000Y-84555954D01*
X125379390Y-84753982D01*
X125456656Y-84940520D01*
X125568830Y-85108400D01*
X125711600Y-85251170D01*
X125879480Y-85363344D01*
X126066018Y-85440610D01*
X126264046Y-85480000D01*
X126293985Y-85480000D01*
X126865165Y-86051181D01*
X126865166Y-92056281D01*
X126861416Y-92094354D01*
X126876380Y-92246280D01*
X126920696Y-92392368D01*
X126992659Y-92527004D01*
X127035121Y-92578743D01*
X127089507Y-92645013D01*
X127119079Y-92669282D01*
X131236240Y-96786444D01*
X131146018Y-96804390D01*
X130959480Y-96881656D01*
X130791600Y-96993830D01*
X130648830Y-97136600D01*
X130536656Y-97304480D01*
X130459390Y-97491018D01*
X130420000Y-97689046D01*
X130420000Y-97890954D01*
X130459390Y-98088982D01*
X130536656Y-98275520D01*
X130648830Y-98443400D01*
X130791600Y-98586170D01*
X130959480Y-98698344D01*
X131146018Y-98775610D01*
X131344046Y-98815000D01*
X131545954Y-98815000D01*
X131743982Y-98775610D01*
X131903515Y-98709530D01*
X134588985Y-101395000D01*
X134474725Y-101395000D01*
X134189758Y-101451683D01*
X133921325Y-101562872D01*
X133679742Y-101724293D01*
X133474293Y-101929742D01*
X133350000Y-102115759D01*
X133225707Y-101929742D01*
X133020258Y-101724293D01*
X132778675Y-101562872D01*
X132510242Y-101451683D01*
X132225275Y-101395000D01*
X131934725Y-101395000D01*
X131649758Y-101451683D01*
X131381325Y-101562872D01*
X131139742Y-101724293D01*
X130996787Y-101867248D01*
X130970219Y-101779666D01*
X130912183Y-101671089D01*
X130834080Y-101575920D01*
X130738911Y-101497817D01*
X130630334Y-101439781D01*
X130512521Y-101404043D01*
X130390000Y-101391976D01*
X128690000Y-101391976D01*
X128567479Y-101404043D01*
X128449666Y-101439781D01*
X128341089Y-101497817D01*
X128245920Y-101575920D01*
X128167817Y-101671089D01*
X128109781Y-101779666D01*
X128074043Y-101897479D01*
X128061976Y-102020000D01*
X128061976Y-103720000D01*
X128074043Y-103842521D01*
X128109781Y-103960334D01*
X128167817Y-104068911D01*
X128245920Y-104164080D01*
X128341089Y-104242183D01*
X128449666Y-104300219D01*
X128567479Y-104335957D01*
X128690000Y-104348024D01*
X130390000Y-104348024D01*
X130512521Y-104335957D01*
X130630334Y-104300219D01*
X130738911Y-104242183D01*
X130834080Y-104164080D01*
X130912183Y-104068911D01*
X130970219Y-103960334D01*
X130996787Y-103872752D01*
X131139742Y-104015707D01*
X131381325Y-104177128D01*
X131649758Y-104288317D01*
X131934725Y-104345000D01*
X132225275Y-104345000D01*
X132510242Y-104288317D01*
X132778675Y-104177128D01*
X133020258Y-104015707D01*
X133225707Y-103810258D01*
X133350000Y-103624241D01*
X133474293Y-103810258D01*
X133679742Y-104015707D01*
X133921325Y-104177128D01*
X134189758Y-104288317D01*
X134474725Y-104345000D01*
X134765275Y-104345000D01*
X135050242Y-104288317D01*
X135318675Y-104177128D01*
X135560258Y-104015707D01*
X135765707Y-103810258D01*
X135890000Y-103624241D01*
X136014293Y-103810258D01*
X136219742Y-104015707D01*
X136461325Y-104177128D01*
X136729758Y-104288317D01*
X137014725Y-104345000D01*
X137305275Y-104345000D01*
X137590242Y-104288317D01*
X137858675Y-104177128D01*
X138100258Y-104015707D01*
X138243213Y-103872752D01*
X138269781Y-103960334D01*
X138327817Y-104068911D01*
X138405920Y-104164080D01*
X138501089Y-104242183D01*
X138609666Y-104300219D01*
X138727479Y-104335957D01*
X138850000Y-104348024D01*
X140550000Y-104348024D01*
X140672521Y-104335957D01*
X140790334Y-104300219D01*
X140898911Y-104242183D01*
X140994080Y-104164080D01*
X141072183Y-104068911D01*
X141130219Y-103960334D01*
X141156787Y-103872752D01*
X141299742Y-104015707D01*
X141541325Y-104177128D01*
X141809758Y-104288317D01*
X142094725Y-104345000D01*
X142385275Y-104345000D01*
X142670242Y-104288317D01*
X142938675Y-104177128D01*
X143180258Y-104015707D01*
X143385707Y-103810258D01*
X143547128Y-103568675D01*
X143658317Y-103300242D01*
X143715000Y-103015275D01*
X143715000Y-102724725D01*
X143658317Y-102439758D01*
X143547128Y-102171325D01*
X143385707Y-101929742D01*
X143180258Y-101724293D01*
X143017600Y-101615608D01*
X143018749Y-101603938D01*
X143012444Y-101539923D01*
X143003786Y-101452012D01*
X142959470Y-101305924D01*
X142925971Y-101243251D01*
X142887506Y-101171287D01*
X142840833Y-101114417D01*
X142790659Y-101053279D01*
X142761088Y-101029011D01*
X142175994Y-100443918D01*
X142151721Y-100414341D01*
X142033712Y-100317494D01*
X141899076Y-100245530D01*
X141752988Y-100201214D01*
X141639127Y-100190000D01*
X141639125Y-100190000D01*
X141601062Y-100186251D01*
X141562999Y-100190000D01*
X136831826Y-100190000D01*
X131790872Y-95149046D01*
X134230000Y-95149046D01*
X134230000Y-95350954D01*
X134269390Y-95548982D01*
X134346656Y-95735520D01*
X134458830Y-95903400D01*
X134601600Y-96046170D01*
X134769480Y-96158344D01*
X134956018Y-96235610D01*
X135154046Y-96275000D01*
X135183986Y-96275000D01*
X137861358Y-98952373D01*
X137885627Y-98981945D01*
X137961174Y-99043944D01*
X138003635Y-99078792D01*
X138039693Y-99098065D01*
X138138272Y-99150756D01*
X138284360Y-99195072D01*
X138398221Y-99206286D01*
X138398223Y-99206286D01*
X138436286Y-99210035D01*
X138474349Y-99206286D01*
X143193165Y-99206286D01*
X144858596Y-100871718D01*
X144882865Y-100901290D01*
X144940626Y-100948693D01*
X145000873Y-100998137D01*
X145135509Y-101070101D01*
X145164542Y-101078908D01*
X145281598Y-101114417D01*
X145395459Y-101125631D01*
X145395461Y-101125631D01*
X145433524Y-101129380D01*
X145471587Y-101125631D01*
X146635981Y-101125631D01*
X146657151Y-101146801D01*
X146825031Y-101258975D01*
X147011569Y-101336241D01*
X147209597Y-101375631D01*
X147411505Y-101375631D01*
X147609533Y-101336241D01*
X147796071Y-101258975D01*
X147963951Y-101146801D01*
X148106721Y-101004031D01*
X148218895Y-100836151D01*
X148296161Y-100649613D01*
X148335551Y-100451585D01*
X148335551Y-100249677D01*
X148296161Y-100051649D01*
X148218895Y-99865111D01*
X148106721Y-99697231D01*
X147963951Y-99554461D01*
X147796071Y-99442287D01*
X147609533Y-99365021D01*
X147411505Y-99325631D01*
X147209597Y-99325631D01*
X147011569Y-99365021D01*
X146825031Y-99442287D01*
X146657151Y-99554461D01*
X146635981Y-99575631D01*
X145754539Y-99575631D01*
X144578906Y-98399999D01*
X148103985Y-98399999D01*
X148200000Y-98496014D01*
X148200000Y-98525954D01*
X148239390Y-98723982D01*
X148316656Y-98910520D01*
X148428830Y-99078400D01*
X148571600Y-99221170D01*
X148739480Y-99333344D01*
X148926018Y-99410610D01*
X149124046Y-99450000D01*
X149325954Y-99450000D01*
X149523982Y-99410610D01*
X149710520Y-99333344D01*
X149878400Y-99221170D01*
X150021170Y-99078400D01*
X150133344Y-98910520D01*
X150177500Y-98803917D01*
X150221656Y-98910520D01*
X150333830Y-99078400D01*
X150476600Y-99221170D01*
X150644480Y-99333344D01*
X150831018Y-99410610D01*
X151029046Y-99450000D01*
X151230954Y-99450000D01*
X151428982Y-99410610D01*
X151615520Y-99333344D01*
X151783400Y-99221170D01*
X151926170Y-99078400D01*
X152038344Y-98910520D01*
X152115610Y-98723982D01*
X152155000Y-98525954D01*
X152155000Y-98324046D01*
X152115610Y-98126018D01*
X152038344Y-97939480D01*
X151926170Y-97771600D01*
X151783400Y-97628830D01*
X151615520Y-97516656D01*
X151428982Y-97439390D01*
X151230954Y-97400000D01*
X151201015Y-97400000D01*
X149807737Y-96006723D01*
X149783464Y-95977146D01*
X149665455Y-95880299D01*
X149530819Y-95808335D01*
X149384731Y-95764019D01*
X149270870Y-95752805D01*
X149270868Y-95752805D01*
X149232805Y-95749056D01*
X149194742Y-95752805D01*
X143832427Y-95752805D01*
X143258851Y-95179230D01*
X143258851Y-95147108D01*
X143219461Y-94949080D01*
X143142195Y-94762542D01*
X143030021Y-94594662D01*
X142887251Y-94451892D01*
X142719371Y-94339718D01*
X142532833Y-94262452D01*
X142334805Y-94223062D01*
X142132897Y-94223062D01*
X141934869Y-94262452D01*
X141748331Y-94339718D01*
X141580451Y-94451892D01*
X141437681Y-94594662D01*
X141325507Y-94762542D01*
X141248241Y-94949080D01*
X141208851Y-95147108D01*
X141208851Y-95349016D01*
X141248241Y-95547044D01*
X141325507Y-95733582D01*
X141437681Y-95901462D01*
X141580451Y-96044232D01*
X141748331Y-96156406D01*
X141934869Y-96233672D01*
X142132897Y-96273062D01*
X142160655Y-96273062D01*
X142737591Y-96849999D01*
X139221014Y-96849999D01*
X137550000Y-95178986D01*
X137550000Y-95149046D01*
X137510610Y-94951018D01*
X137433344Y-94764480D01*
X137321170Y-94596600D01*
X137178400Y-94453830D01*
X137010520Y-94341656D01*
X136823982Y-94264390D01*
X136625954Y-94225000D01*
X136424046Y-94225000D01*
X136226018Y-94264390D01*
X136039480Y-94341656D01*
X135890000Y-94441535D01*
X135740520Y-94341656D01*
X135553982Y-94264390D01*
X135355954Y-94225000D01*
X135154046Y-94225000D01*
X134956018Y-94264390D01*
X134769480Y-94341656D01*
X134601600Y-94453830D01*
X134458830Y-94596600D01*
X134346656Y-94764480D01*
X134269390Y-94951018D01*
X134230000Y-95149046D01*
X131790872Y-95149046D01*
X128415165Y-91773340D01*
X128415165Y-87494574D01*
X129435000Y-87494574D01*
X129435000Y-87765426D01*
X129487841Y-88031073D01*
X129591491Y-88281307D01*
X129741968Y-88506511D01*
X129933489Y-88698032D01*
X130158693Y-88848509D01*
X130408927Y-88952159D01*
X130674574Y-89005000D01*
X130945426Y-89005000D01*
X131211073Y-88952159D01*
X131461307Y-88848509D01*
X131686511Y-88698032D01*
X131878032Y-88506511D01*
X132028509Y-88281307D01*
X132132159Y-88031073D01*
X132185000Y-87765426D01*
X132185000Y-87494574D01*
X134315000Y-87494574D01*
X134315000Y-87765426D01*
X134367841Y-88031073D01*
X134471491Y-88281307D01*
X134621968Y-88506511D01*
X134813489Y-88698032D01*
X135038693Y-88848509D01*
X135288927Y-88952159D01*
X135554574Y-89005000D01*
X135825426Y-89005000D01*
X136091073Y-88952159D01*
X136341307Y-88848509D01*
X136566511Y-88698032D01*
X136758032Y-88506511D01*
X136908509Y-88281307D01*
X137012159Y-88031073D01*
X137065000Y-87765426D01*
X137065000Y-87494574D01*
X137012159Y-87228927D01*
X136908509Y-86978693D01*
X136758032Y-86753489D01*
X136566511Y-86561968D01*
X136341307Y-86411491D01*
X136091073Y-86307841D01*
X135825426Y-86255000D01*
X135554574Y-86255000D01*
X135288927Y-86307841D01*
X135038693Y-86411491D01*
X134813489Y-86561968D01*
X134621968Y-86753489D01*
X134471491Y-86978693D01*
X134367841Y-87228927D01*
X134315000Y-87494574D01*
X132185000Y-87494574D01*
X132132159Y-87228927D01*
X132028509Y-86978693D01*
X131878032Y-86753489D01*
X131686511Y-86561968D01*
X131461307Y-86411491D01*
X131211073Y-86307841D01*
X130945426Y-86255000D01*
X130674574Y-86255000D01*
X130408927Y-86307841D01*
X130158693Y-86411491D01*
X129933489Y-86561968D01*
X129741968Y-86753489D01*
X129591491Y-86978693D01*
X129487841Y-87228927D01*
X129435000Y-87494574D01*
X128415165Y-87494574D01*
X128415165Y-85768228D01*
X128418914Y-85730165D01*
X128413762Y-85677855D01*
X128403951Y-85578239D01*
X128362201Y-85440610D01*
X128359635Y-85432150D01*
X128287671Y-85297514D01*
X128215089Y-85209073D01*
X128215088Y-85209072D01*
X128190824Y-85179506D01*
X128161258Y-85155242D01*
X127390000Y-84383985D01*
X127390000Y-84354046D01*
X127350610Y-84156018D01*
X127273344Y-83969480D01*
X127161170Y-83801600D01*
X127018400Y-83658830D01*
X126850520Y-83546656D01*
X126663982Y-83469390D01*
X126465954Y-83430000D01*
X126264046Y-83430000D01*
X126066018Y-83469390D01*
X125879480Y-83546656D01*
X125711600Y-83658830D01*
X125568830Y-83801600D01*
X125456656Y-83969480D01*
X125379390Y-84156018D01*
X125340000Y-84354046D01*
X119304177Y-84354046D01*
X119311394Y-84346829D01*
X119173049Y-84049176D01*
X118825686Y-83873986D01*
X118450819Y-83769930D01*
X118062855Y-83741005D01*
X117676703Y-83788324D01*
X117307202Y-83910069D01*
X117046951Y-84049176D01*
X116908606Y-84346829D01*
X115000000Y-84346829D01*
X115000000Y-76900000D01*
X128288860Y-76900000D01*
X128121645Y-77011730D01*
D23*
G36*
X120932467Y-106979565D02*
G01*
X121009885Y-107166467D01*
X121122277Y-107334674D01*
X121265326Y-107477723D01*
X121433533Y-107590115D01*
X121620435Y-107667533D01*
X121818849Y-107707000D01*
X122021151Y-107707000D01*
X122219565Y-107667533D01*
X122365703Y-107607000D01*
X125375962Y-107607000D01*
X125377467Y-107614565D01*
X125438001Y-107760706D01*
X125438000Y-114254473D01*
X125433516Y-114300000D01*
X125438000Y-114345527D01*
X125438000Y-114345537D01*
X125451413Y-114481723D01*
X125504420Y-114656463D01*
X125590499Y-114817505D01*
X125677312Y-114923287D01*
X125706341Y-114958659D01*
X125741713Y-114987688D01*
X126238000Y-115483975D01*
X126238000Y-116713000D01*
X115002000Y-116713000D01*
X115002000Y-106807000D01*
X120898142Y-106807000D01*
X120932467Y-106979565D01*
G37*
X120932467Y-106979565D02*
X121009885Y-107166467D01*
X121122277Y-107334674D01*
X121265326Y-107477723D01*
X121433533Y-107590115D01*
X121620435Y-107667533D01*
X121818849Y-107707000D01*
X122021151Y-107707000D01*
X122219565Y-107667533D01*
X122365703Y-107607000D01*
X125375962Y-107607000D01*
X125377467Y-107614565D01*
X125438001Y-107760706D01*
X125438000Y-114254473D01*
X125433516Y-114300000D01*
X125438000Y-114345527D01*
X125438000Y-114345537D01*
X125451413Y-114481723D01*
X125504420Y-114656463D01*
X125590499Y-114817505D01*
X125677312Y-114923287D01*
X125706341Y-114958659D01*
X125741713Y-114987688D01*
X126238000Y-115483975D01*
X126238000Y-116713000D01*
X115002000Y-116713000D01*
X115002000Y-106807000D01*
X120898142Y-106807000D01*
X120932467Y-106979565D01*
G36*
X140208000Y-116283492D02*
G01*
X139778493Y-116713000D01*
X130088975Y-116713000D01*
X127292000Y-113916025D01*
X127292000Y-107760703D01*
X127352533Y-107614565D01*
X127392000Y-107416151D01*
X127392000Y-107213849D01*
X127352533Y-107015435D01*
X127275115Y-106828533D01*
X127260727Y-106807000D01*
X140208000Y-106807000D01*
X140208000Y-116283492D01*
G37*
X140208000Y-116283492D02*
X139778493Y-116713000D01*
X130088975Y-116713000D01*
X127292000Y-113916025D01*
X127292000Y-107760703D01*
X127352533Y-107614565D01*
X127392000Y-107416151D01*
X127392000Y-107213849D01*
X127352533Y-107015435D01*
X127275115Y-106828533D01*
X127260727Y-106807000D01*
X140208000Y-106807000D01*
X140208000Y-116283492D01*
M02*
