G04 #@! TF.GenerationSoftware,KiCad,Pcbnew,5.1.5+dfsg1-2build2*
G04 #@! TF.CreationDate,2020-11-19T08:55:39-07:00*
G04 #@! TF.ProjectId,sduino_uno,73647569-6e6f-45f7-956e-6f2e6b696361,2017-11-15*
G04 #@! TF.SameCoordinates,Original*
G04 #@! TF.FileFunction,Soldermask,Top*
G04 #@! TF.FilePolarity,Negative*
%FSLAX46Y46*%
G04 Gerber Fmt 4.6, Leading zero omitted, Abs format (unit mm)*
G04 Created by KiCad (PCBNEW 5.1.5+dfsg1-2build2) date 2020-11-19 08:55:39*
%MOMM*%
%LPD*%
G04 APERTURE LIST*
%ADD10O,3.700000X5.200000*%
%ADD11R,3.700000X5.200000*%
%ADD12O,5.200000X3.700000*%
%ADD13R,1.950000X1.700000*%
%ADD14R,2.100000X2.100000*%
%ADD15O,2.100000X2.100000*%
%ADD16R,1.200000X1.150000*%
%ADD17R,1.600000X1.600000*%
%ADD18R,1.300000X0.800000*%
%ADD19R,2.400000X4.200000*%
%ADD20R,2.400000X1.900000*%
%ADD21R,1.000000X1.900000*%
%ADD22R,1.600000X1.000000*%
%ADD23R,1.000000X1.600000*%
%ADD24R,1.950000X1.000000*%
%ADD25C,1.920000*%
%ADD26C,3.100000*%
%ADD27R,2.900000X2.200000*%
%ADD28R,2.000000X3.900000*%
%ADD29C,3.600000*%
%ADD30C,1.900000*%
%ADD31R,1.400000X1.650000*%
%ADD32R,3.900000X2.000000*%
%ADD33R,1.400000X2.000000*%
%ADD34R,1.300000X1.200000*%
%ADD35C,2.540000*%
%ADD36R,1.100000X0.650000*%
%ADD37R,0.650000X1.100000*%
%ADD38R,2.125000X2.125000*%
%ADD39R,1.780000X0.850000*%
%ADD40R,2.500000X1.875000*%
%ADD41R,2.300000X2.775000*%
%ADD42R,2.300000X1.575000*%
G04 APERTURE END LIST*
D10*
X119380000Y-121285000D03*
D11*
X125480000Y-121285000D03*
D12*
X122430000Y-126365000D03*
D13*
X116675000Y-77760000D03*
X124625000Y-77760000D03*
X116675000Y-82260000D03*
X124625000Y-82260000D03*
X116675000Y-80010000D03*
D14*
X165100000Y-127000000D03*
D15*
X167640000Y-127000000D03*
X170180000Y-127000000D03*
X172720000Y-127000000D03*
X175260000Y-127000000D03*
X177800000Y-127000000D03*
D16*
X134100000Y-91440000D03*
X132600000Y-91440000D03*
X128790000Y-91440000D03*
X130290000Y-91440000D03*
X162445000Y-105410000D03*
X163945000Y-105410000D03*
X160135000Y-105410000D03*
X158635000Y-105410000D03*
D14*
X156210000Y-78740000D03*
D15*
X153670000Y-78740000D03*
X151130000Y-78740000D03*
X148590000Y-78740000D03*
X146050000Y-78740000D03*
X143510000Y-78740000D03*
X140970000Y-78740000D03*
X138430000Y-78740000D03*
X135890000Y-78740000D03*
X133350000Y-78740000D03*
D14*
X177800000Y-78740000D03*
D15*
X175260000Y-78740000D03*
X172720000Y-78740000D03*
X170180000Y-78740000D03*
X167640000Y-78740000D03*
X165100000Y-78740000D03*
X162560000Y-78740000D03*
X160020000Y-78740000D03*
D17*
X143340000Y-87630000D03*
X141140000Y-87630000D03*
X173820000Y-92710000D03*
X171620000Y-92710000D03*
D14*
X142240000Y-127000000D03*
D15*
X144780000Y-127000000D03*
X147320000Y-127000000D03*
X149860000Y-127000000D03*
X152400000Y-127000000D03*
X154940000Y-127000000D03*
X157480000Y-127000000D03*
X160020000Y-127000000D03*
D18*
X150280000Y-112630000D03*
X150280000Y-113430000D03*
X150280000Y-111830000D03*
X150280000Y-114230000D03*
X151980000Y-111830000D03*
X151980000Y-112630000D03*
X151980000Y-113430000D03*
X151980000Y-114230000D03*
X141390000Y-90405000D03*
X141390000Y-91205000D03*
X141390000Y-89605000D03*
X141390000Y-92005000D03*
X143090000Y-89605000D03*
X143090000Y-90405000D03*
X143090000Y-91205000D03*
X143090000Y-92005000D03*
D17*
X143340000Y-96520000D03*
X141140000Y-96520000D03*
X143340000Y-93980000D03*
X141140000Y-93980000D03*
D19*
X118770000Y-111125000D03*
D20*
X125070000Y-111125000D03*
X125070000Y-108825000D03*
X125070000Y-113425000D03*
D19*
X132740000Y-111125000D03*
D20*
X139040000Y-111125000D03*
X139040000Y-108825000D03*
X139040000Y-113425000D03*
D21*
X137795000Y-93820000D03*
X136525000Y-93820000D03*
X135255000Y-93820000D03*
X133985000Y-93820000D03*
X132715000Y-93820000D03*
X131445000Y-93820000D03*
X130175000Y-93820000D03*
X128905000Y-93820000D03*
X128905000Y-99220000D03*
X130175000Y-99220000D03*
X131445000Y-99220000D03*
X132715000Y-99220000D03*
X133985000Y-99220000D03*
X135255000Y-99220000D03*
X136525000Y-99220000D03*
X137795000Y-99220000D03*
D22*
X164660000Y-108960000D03*
X164660000Y-109760000D03*
X164660000Y-110560000D03*
X164660000Y-111360000D03*
X164660000Y-112160000D03*
X164660000Y-112960000D03*
X164660000Y-113760000D03*
X164660000Y-114560000D03*
D23*
X166110000Y-116010000D03*
X166910000Y-116010000D03*
X167710000Y-116010000D03*
X168510000Y-116010000D03*
X169310000Y-116010000D03*
X170110000Y-116010000D03*
X170910000Y-116010000D03*
X171710000Y-116010000D03*
D22*
X173160000Y-114560000D03*
X173160000Y-113760000D03*
X173160000Y-112960000D03*
X173160000Y-112160000D03*
X173160000Y-111360000D03*
X173160000Y-110560000D03*
X173160000Y-109760000D03*
X173160000Y-108960000D03*
D23*
X171710000Y-107510000D03*
X170910000Y-107510000D03*
X170110000Y-107510000D03*
X169310000Y-107510000D03*
X168510000Y-107510000D03*
X167710000Y-107510000D03*
X166910000Y-107510000D03*
X166110000Y-107510000D03*
D24*
X148430000Y-104775000D03*
X148430000Y-106045000D03*
X148430000Y-107315000D03*
X148430000Y-108585000D03*
X153830000Y-108585000D03*
X153830000Y-107315000D03*
X153830000Y-106045000D03*
X153830000Y-104775000D03*
D14*
X144780000Y-109220000D03*
D15*
X144780000Y-111760000D03*
X144780000Y-114300000D03*
D25*
X122810000Y-90455000D03*
X122810000Y-92995000D03*
X120810000Y-92995000D03*
X120810000Y-90455000D03*
D26*
X118110000Y-85725000D03*
X118110000Y-97725000D03*
D27*
X137890000Y-126365000D03*
X133890000Y-126365000D03*
D28*
X139700000Y-117315000D03*
X139700000Y-122715000D03*
X132080000Y-117315000D03*
X132080000Y-122715000D03*
D29*
X128270000Y-127000000D03*
X180340000Y-121920000D03*
X180340000Y-93980000D03*
X129540000Y-78740000D03*
D30*
X130810000Y-87630000D03*
X135690000Y-87630000D03*
X158750000Y-101600000D03*
X163630000Y-101600000D03*
D31*
X122190000Y-105410000D03*
X124190000Y-105410000D03*
X160290000Y-114300000D03*
X162290000Y-114300000D03*
D32*
X118110000Y-105410000D03*
X118110000Y-100530000D03*
D18*
X150280000Y-100565000D03*
X150280000Y-101365000D03*
X150280000Y-99765000D03*
X150280000Y-102165000D03*
X151980000Y-99765000D03*
X151980000Y-100565000D03*
X151980000Y-101365000D03*
X151980000Y-102165000D03*
D16*
X142990000Y-98425000D03*
X141490000Y-98425000D03*
X136640000Y-106045000D03*
X135140000Y-106045000D03*
X127520000Y-114300000D03*
X129020000Y-114300000D03*
X142990000Y-100330000D03*
X141490000Y-100330000D03*
X162040000Y-111760000D03*
X160540000Y-111760000D03*
D33*
X159790000Y-108585000D03*
X162790000Y-108585000D03*
D34*
X124190000Y-102550000D03*
X124190000Y-100650000D03*
X122190000Y-101600000D03*
D14*
X129540000Y-102870000D03*
D15*
X132080000Y-102870000D03*
X134620000Y-102870000D03*
X137160000Y-102870000D03*
D14*
X139700000Y-102870000D03*
D15*
X142240000Y-102870000D03*
D14*
X177800000Y-99060000D03*
D15*
X180340000Y-99060000D03*
X177800000Y-101600000D03*
X180340000Y-101600000D03*
X177800000Y-104140000D03*
X180340000Y-104140000D03*
X177800000Y-106680000D03*
X180340000Y-106680000D03*
D35*
X129540000Y-82550000D03*
X180340000Y-118110000D03*
D16*
X137910000Y-91440000D03*
X136410000Y-91440000D03*
D36*
X166510000Y-110010000D03*
X166510000Y-110510000D03*
X166510000Y-111010000D03*
X166510000Y-111510000D03*
X166510000Y-112010000D03*
X166510000Y-112510000D03*
X166510000Y-113010000D03*
X166510000Y-113510000D03*
D37*
X167160000Y-114160000D03*
X167660000Y-114160000D03*
X168160000Y-114160000D03*
X168660000Y-114160000D03*
X169160000Y-114160000D03*
X169660000Y-114160000D03*
X170160000Y-114160000D03*
X170660000Y-114160000D03*
D36*
X171310000Y-113510000D03*
X171310000Y-113010000D03*
X171310000Y-112510000D03*
X171310000Y-112010000D03*
X171310000Y-111510000D03*
X171310000Y-111010000D03*
X171310000Y-110510000D03*
X171310000Y-110010000D03*
D37*
X170660000Y-109360000D03*
X170160000Y-109360000D03*
X169660000Y-109360000D03*
X169160000Y-109360000D03*
X168660000Y-109360000D03*
X168160000Y-109360000D03*
X167660000Y-109360000D03*
X167160000Y-109360000D03*
D38*
X169772500Y-112622500D03*
X169772500Y-110897500D03*
X168047500Y-112622500D03*
X168047500Y-110897500D03*
D39*
X118230000Y-90140000D03*
X118230000Y-90790000D03*
X118230000Y-91440000D03*
X118230000Y-92090000D03*
X118230000Y-92740000D03*
D40*
X117870000Y-88977500D03*
X117870000Y-93902500D03*
D41*
X115570000Y-88530000D03*
X115570000Y-94350000D03*
D42*
X115570000Y-90600000D03*
X115570000Y-92280000D03*
M02*
