G04 #@! TF.GenerationSoftware,KiCad,Pcbnew,5.1.5+dfsg1-2build2*
G04 #@! TF.CreationDate,2020-11-19T08:55:39-07:00*
G04 #@! TF.ProjectId,sduino_uno,73647569-6e6f-45f7-956e-6f2e6b696361,2017-11-15*
G04 #@! TF.SameCoordinates,Original*
G04 #@! TF.FileFunction,Soldermask,Bot*
G04 #@! TF.FilePolarity,Negative*
%FSLAX46Y46*%
G04 Gerber Fmt 4.6, Leading zero omitted, Abs format (unit mm)*
G04 Created by KiCad (PCBNEW 5.1.5+dfsg1-2build2) date 2020-11-19 08:55:39*
%MOMM*%
%LPD*%
G04 APERTURE LIST*
%ADD10O,3.700000X5.200000*%
%ADD11R,3.700000X5.200000*%
%ADD12O,5.200000X3.700000*%
%ADD13R,2.100000X2.100000*%
%ADD14O,2.100000X2.100000*%
%ADD15C,1.920000*%
%ADD16C,3.100000*%
%ADD17C,3.600000*%
%ADD18C,1.900000*%
G04 APERTURE END LIST*
D10*
X119380000Y-121285000D03*
D11*
X125480000Y-121285000D03*
D12*
X122430000Y-126365000D03*
D13*
X165100000Y-127000000D03*
D14*
X167640000Y-127000000D03*
X170180000Y-127000000D03*
X172720000Y-127000000D03*
X175260000Y-127000000D03*
X177800000Y-127000000D03*
D13*
X156210000Y-78740000D03*
D14*
X153670000Y-78740000D03*
X151130000Y-78740000D03*
X148590000Y-78740000D03*
X146050000Y-78740000D03*
X143510000Y-78740000D03*
X140970000Y-78740000D03*
X138430000Y-78740000D03*
X135890000Y-78740000D03*
X133350000Y-78740000D03*
D13*
X177800000Y-78740000D03*
D14*
X175260000Y-78740000D03*
X172720000Y-78740000D03*
X170180000Y-78740000D03*
X167640000Y-78740000D03*
X165100000Y-78740000D03*
X162560000Y-78740000D03*
X160020000Y-78740000D03*
D13*
X142240000Y-127000000D03*
D14*
X144780000Y-127000000D03*
X147320000Y-127000000D03*
X149860000Y-127000000D03*
X152400000Y-127000000D03*
X154940000Y-127000000D03*
X157480000Y-127000000D03*
X160020000Y-127000000D03*
D13*
X144780000Y-109220000D03*
D14*
X144780000Y-111760000D03*
X144780000Y-114300000D03*
D15*
X122810000Y-90455000D03*
X122810000Y-92995000D03*
X120810000Y-92995000D03*
X120810000Y-90455000D03*
D16*
X118110000Y-85725000D03*
X118110000Y-97725000D03*
D17*
X128270000Y-127000000D03*
X180340000Y-121920000D03*
X180340000Y-93980000D03*
X129540000Y-78740000D03*
D18*
X130810000Y-87630000D03*
X135690000Y-87630000D03*
X158750000Y-101600000D03*
X163630000Y-101600000D03*
D13*
X129540000Y-102870000D03*
D14*
X132080000Y-102870000D03*
X134620000Y-102870000D03*
X137160000Y-102870000D03*
D13*
X139700000Y-102870000D03*
D14*
X142240000Y-102870000D03*
D13*
X177800000Y-99060000D03*
D14*
X180340000Y-99060000D03*
X177800000Y-101600000D03*
X180340000Y-101600000D03*
X177800000Y-104140000D03*
X180340000Y-104140000D03*
X177800000Y-106680000D03*
X180340000Y-106680000D03*
M02*
